%TF.GenerationSoftware,KiCad,Pcbnew,7.0.7*%
%TF.CreationDate,2023-09-17T22:58:44+02:00*%
%TF.ProjectId,SHC_WEMOS,5348435f-5745-44d4-9f53-2e6b69636164,rev?*%
%TF.SameCoordinates,Original*%
%TF.FileFunction,Copper,L1,Top*%
%TF.FilePolarity,Positive*%
%FSLAX46Y46*%
G04 Gerber Fmt 4.6, Leading zero omitted, Abs format (unit mm)*
G04 Created by KiCad (PCBNEW 7.0.7) date 2023-09-17 22:58:44*
%MOMM*%
%LPD*%
G01*
G04 APERTURE LIST*
G04 Aperture macros list*
%AMRoundRect*
0 Rectangle with rounded corners*
0 $1 Rounding radius*
0 $2 $3 $4 $5 $6 $7 $8 $9 X,Y pos of 4 corners*
0 Add a 4 corners polygon primitive as box body*
4,1,4,$2,$3,$4,$5,$6,$7,$8,$9,$2,$3,0*
0 Add four circle primitives for the rounded corners*
1,1,$1+$1,$2,$3*
1,1,$1+$1,$4,$5*
1,1,$1+$1,$6,$7*
1,1,$1+$1,$8,$9*
0 Add four rect primitives between the rounded corners*
20,1,$1+$1,$2,$3,$4,$5,0*
20,1,$1+$1,$4,$5,$6,$7,0*
20,1,$1+$1,$6,$7,$8,$9,0*
20,1,$1+$1,$8,$9,$2,$3,0*%
%AMFreePoly0*
4,1,19,0.500000,-0.750000,0.000000,-0.750000,0.000000,-0.744911,-0.071157,-0.744911,-0.207708,-0.704816,-0.327430,-0.627875,-0.420627,-0.520320,-0.479746,-0.390866,-0.500000,-0.250000,-0.500000,0.250000,-0.479746,0.390866,-0.420627,0.520320,-0.327430,0.627875,-0.207708,0.704816,-0.071157,0.744911,0.000000,0.744911,0.000000,0.750000,0.500000,0.750000,0.500000,-0.750000,0.500000,-0.750000,
$1*%
%AMFreePoly1*
4,1,19,0.000000,0.744911,0.071157,0.744911,0.207708,0.704816,0.327430,0.627875,0.420627,0.520320,0.479746,0.390866,0.500000,0.250000,0.500000,-0.250000,0.479746,-0.390866,0.420627,-0.520320,0.327430,-0.627875,0.207708,-0.704816,0.071157,-0.744911,0.000000,-0.744911,0.000000,-0.750000,-0.500000,-0.750000,-0.500000,0.750000,0.000000,0.750000,0.000000,0.744911,0.000000,0.744911,
$1*%
G04 Aperture macros list end*
%TA.AperFunction,ComponentPad*%
%ADD10RoundRect,0.250000X-0.600000X-0.750000X0.600000X-0.750000X0.600000X0.750000X-0.600000X0.750000X0*%
%TD*%
%TA.AperFunction,ComponentPad*%
%ADD11O,1.700000X2.000000*%
%TD*%
%TA.AperFunction,SMDPad,CuDef*%
%ADD12RoundRect,0.200000X-0.200000X-0.275000X0.200000X-0.275000X0.200000X0.275000X-0.200000X0.275000X0*%
%TD*%
%TA.AperFunction,SMDPad,CuDef*%
%ADD13RoundRect,0.135000X-0.135000X-0.185000X0.135000X-0.185000X0.135000X0.185000X-0.135000X0.185000X0*%
%TD*%
%TA.AperFunction,ComponentPad*%
%ADD14R,1.700000X1.700000*%
%TD*%
%TA.AperFunction,ComponentPad*%
%ADD15O,1.700000X1.700000*%
%TD*%
%TA.AperFunction,ComponentPad*%
%ADD16RoundRect,0.250000X-0.600000X-0.725000X0.600000X-0.725000X0.600000X0.725000X-0.600000X0.725000X0*%
%TD*%
%TA.AperFunction,ComponentPad*%
%ADD17O,1.700000X1.950000*%
%TD*%
%TA.AperFunction,SMDPad,CuDef*%
%ADD18RoundRect,0.250000X-0.250000X-0.475000X0.250000X-0.475000X0.250000X0.475000X-0.250000X0.475000X0*%
%TD*%
%TA.AperFunction,SMDPad,CuDef*%
%ADD19FreePoly0,180.000000*%
%TD*%
%TA.AperFunction,SMDPad,CuDef*%
%ADD20FreePoly1,180.000000*%
%TD*%
%TA.AperFunction,SMDPad,CuDef*%
%ADD21RoundRect,0.250000X-0.325000X-0.650000X0.325000X-0.650000X0.325000X0.650000X-0.325000X0.650000X0*%
%TD*%
%TA.AperFunction,ComponentPad*%
%ADD22R,2.000000X2.000000*%
%TD*%
%TA.AperFunction,ComponentPad*%
%ADD23O,1.600000X2.000000*%
%TD*%
%TA.AperFunction,ViaPad*%
%ADD24C,0.800000*%
%TD*%
%TA.AperFunction,Conductor*%
%ADD25C,0.500000*%
%TD*%
%TA.AperFunction,Conductor*%
%ADD26C,1.500000*%
%TD*%
G04 APERTURE END LIST*
%TA.AperFunction,EtchedComponent*%
%TO.C,JP2*%
G36*
X67400000Y41200000D02*
G01*
X66900000Y41200000D01*
X66900000Y41800000D01*
X67400000Y41800000D01*
X67400000Y41200000D01*
G37*
%TD.AperFunction*%
%TA.AperFunction,EtchedComponent*%
%TO.C,JP1*%
G36*
X67250000Y36200000D02*
G01*
X66750000Y36200000D01*
X66750000Y36800000D01*
X67250000Y36800000D01*
X67250000Y36200000D01*
G37*
%TD.AperFunction*%
%TD*%
D10*
%TO.P,J2,1,Pin_1*%
%TO.N,/SHIFT*%
X37250000Y5450000D03*
D11*
%TO.P,J2,2,Pin_2*%
%TO.N,+3.3V*%
X39750000Y5450000D03*
%TD*%
D12*
%TO.P,R6,1*%
%TO.N,/FOC+*%
X56175000Y25000000D03*
%TO.P,R6,2*%
%TO.N,+3.3V*%
X57825000Y25000000D03*
%TD*%
D13*
%TO.P,R9,1*%
%TO.N,+3.3V*%
X3990000Y17000000D03*
%TO.P,R9,2*%
%TO.N,/V_SENSE*%
X5010000Y17000000D03*
%TD*%
D14*
%TO.P,J6,1,Pin_1*%
%TO.N,GND*%
X75000000Y23460000D03*
D15*
%TO.P,J6,2,Pin_2*%
%TO.N,+3.3V*%
X75000000Y26000000D03*
%TO.P,J6,3,Pin_3*%
%TO.N,/SCL*%
X75000000Y28540000D03*
%TO.P,J6,4,Pin_4*%
%TO.N,/SDA*%
X75000000Y31080000D03*
%TO.P,J6,5,Pin_5*%
%TO.N,/RST*%
X75000000Y33620000D03*
%TO.P,J6,6,Pin_6*%
%TO.N,Net-(J6-Pin_6)*%
X75000000Y36160000D03*
%TO.P,J6,7,Pin_7*%
%TO.N,Net-(J6-Pin_7)*%
X75000000Y38700000D03*
%TD*%
D16*
%TO.P,J5,1,Pin_1*%
%TO.N,+5V*%
X70000000Y5500000D03*
D17*
%TO.P,J5,2,Pin_2*%
%TO.N,/TX*%
X72500000Y5500000D03*
%TO.P,J5,3,Pin_3*%
%TO.N,/RX*%
X75000000Y5500000D03*
%TO.P,J5,4,Pin_4*%
%TO.N,GND*%
X77500000Y5500000D03*
%TD*%
D12*
%TO.P,R7,1*%
%TO.N,/FOC-*%
X56175000Y21000000D03*
%TO.P,R7,2*%
%TO.N,+3.3V*%
X57825000Y21000000D03*
%TD*%
D18*
%TO.P,C7,1*%
%TO.N,/FOC-*%
X61050000Y21000000D03*
%TO.P,C7,2*%
%TO.N,GND*%
X62950000Y21000000D03*
%TD*%
D19*
%TO.P,JP2,1,A*%
%TO.N,Net-(J6-Pin_7)*%
X67800000Y41500000D03*
D20*
%TO.P,JP2,2,B*%
%TO.N,GND*%
X66500000Y41500000D03*
%TD*%
D21*
%TO.P,C8,1*%
%TO.N,+3.3V*%
X27525000Y17500000D03*
%TO.P,C8,2*%
%TO.N,GND*%
X30475000Y17500000D03*
%TD*%
D12*
%TO.P,R3,1*%
%TO.N,/SOUTH*%
X43175000Y31000000D03*
%TO.P,R3,2*%
%TO.N,GND*%
X44825000Y31000000D03*
%TD*%
D16*
%TO.P,J1,1,Pin_1*%
%TO.N,/EAST*%
X4500000Y5450000D03*
D17*
%TO.P,J1,2,Pin_2*%
%TO.N,/WEST*%
X7000000Y5450000D03*
%TO.P,J1,3,Pin_3*%
%TO.N,/SOUTH*%
X9500000Y5450000D03*
%TO.P,J1,4,Pin_4*%
%TO.N,/NORTH*%
X12000000Y5450000D03*
%TO.P,J1,5,Pin_5*%
%TO.N,+3.3V*%
X14500000Y5450000D03*
%TD*%
D18*
%TO.P,C1,1*%
%TO.N,/NORTH*%
X48050000Y28000000D03*
%TO.P,C1,2*%
%TO.N,GND*%
X49950000Y28000000D03*
%TD*%
D10*
%TO.P,J4,1,Pin_1*%
%TO.N,/FOC-*%
X57750000Y5450000D03*
D11*
%TO.P,J4,2,Pin_2*%
%TO.N,GND*%
X60250000Y5450000D03*
%TD*%
D18*
%TO.P,C3,1*%
%TO.N,/SOUTH*%
X48050000Y31000000D03*
%TO.P,C3,2*%
%TO.N,GND*%
X49950000Y31000000D03*
%TD*%
D22*
%TO.P,U1,1,~{RST}*%
%TO.N,/RST*%
X11720000Y22000000D03*
D23*
%TO.P,U1,2,A0*%
%TO.N,/V_SENSE*%
X14260000Y22000000D03*
%TO.P,U1,3,D0*%
%TO.N,/EAST*%
X16800000Y22000000D03*
%TO.P,U1,4,SCK/D5*%
%TO.N,/WEST*%
X19340000Y22000000D03*
%TO.P,U1,5,MISO/D6*%
%TO.N,/SOUTH*%
X21880000Y22000000D03*
%TO.P,U1,6,MOSI/D7*%
%TO.N,/NORTH*%
X24420000Y22000000D03*
%TO.P,U1,7,CS/D8*%
%TO.N,/SHIFT*%
X26960000Y22000000D03*
%TO.P,U1,8,3V3*%
%TO.N,+3.3V*%
X29500000Y22000000D03*
%TO.P,U1,9,5V*%
%TO.N,+5V*%
X29500000Y44860000D03*
%TO.P,U1,10,GND*%
%TO.N,GND*%
X26960000Y44860000D03*
%TO.P,U1,11,D4*%
%TO.N,/FOC-*%
X24420000Y44860000D03*
%TO.P,U1,12,D3*%
%TO.N,/FOC+*%
X21880000Y44860000D03*
%TO.P,U1,13,SDA/D2*%
%TO.N,/SDA*%
X19340000Y44860000D03*
%TO.P,U1,14,SCL/D1*%
%TO.N,/SCL*%
X16800000Y44860000D03*
%TO.P,U1,15,RX*%
%TO.N,/RX*%
X14260000Y44860000D03*
%TO.P,U1,16,TX*%
%TO.N,/TX*%
X11720000Y44860000D03*
%TD*%
D10*
%TO.P,J3,1,Pin_1*%
%TO.N,/FOC+*%
X47750000Y5450000D03*
D11*
%TO.P,J3,2,Pin_2*%
%TO.N,GND*%
X50250000Y5450000D03*
%TD*%
D18*
%TO.P,C6,1*%
%TO.N,/FOC+*%
X61100000Y25000000D03*
%TO.P,C6,2*%
%TO.N,GND*%
X63000000Y25000000D03*
%TD*%
%TO.P,C5,1*%
%TO.N,/SHIFT*%
X48050000Y21000000D03*
%TO.P,C5,2*%
%TO.N,GND*%
X49950000Y21000000D03*
%TD*%
%TO.P,C4,1*%
%TO.N,/WEST*%
X48050000Y34000000D03*
%TO.P,C4,2*%
%TO.N,GND*%
X49950000Y34000000D03*
%TD*%
D12*
%TO.P,R4,1*%
%TO.N,/WEST*%
X43175000Y34000000D03*
%TO.P,R4,2*%
%TO.N,GND*%
X44825000Y34000000D03*
%TD*%
%TO.P,R2,1*%
%TO.N,/EAST*%
X43175000Y37000000D03*
%TO.P,R2,2*%
%TO.N,GND*%
X44825000Y37000000D03*
%TD*%
D19*
%TO.P,JP1,1,A*%
%TO.N,Net-(J6-Pin_6)*%
X67650000Y36500000D03*
D20*
%TO.P,JP1,2,B*%
%TO.N,GND*%
X66350000Y36500000D03*
%TD*%
D18*
%TO.P,C2,1*%
%TO.N,/EAST*%
X48000000Y37000000D03*
%TO.P,C2,2*%
%TO.N,GND*%
X49900000Y37000000D03*
%TD*%
D13*
%TO.P,R8,1*%
%TO.N,/V_SENSE*%
X7500000Y17000000D03*
%TO.P,R8,2*%
%TO.N,GND*%
X8520000Y17000000D03*
%TD*%
D12*
%TO.P,R5,1*%
%TO.N,/SHIFT*%
X43175000Y21000000D03*
%TO.P,R5,2*%
%TO.N,GND*%
X44825000Y21000000D03*
%TD*%
%TO.P,R1,1*%
%TO.N,/NORTH*%
X43175000Y28000000D03*
%TO.P,R1,2*%
%TO.N,GND*%
X44825000Y28000000D03*
%TD*%
D24*
%TO.N,GND*%
X51398959Y21000000D03*
X32500000Y17500000D03*
X51500000Y37000000D03*
X65000000Y25000000D03*
X46500000Y21000000D03*
X10000000Y17000000D03*
X51500000Y31000000D03*
X64500000Y36500000D03*
X46500000Y28000000D03*
X46500000Y37000000D03*
X46500000Y31000000D03*
X64500000Y41500000D03*
X46500000Y34000000D03*
X51500000Y34000000D03*
X65000000Y21000000D03*
X51500000Y28000000D03*
%TO.N,+3.3V*%
X62500000Y32500000D03*
X59000000Y29000000D03*
%TO.N,/RST*%
X51500000Y39000000D03*
%TD*%
D25*
%TO.N,/NORTH*%
X24420000Y19960000D02*
X24420000Y22000000D01*
X43175000Y28000000D02*
X32673963Y28000000D01*
X12000000Y5475000D02*
X12000000Y5450000D01*
X24420000Y22000000D02*
X28826207Y26406208D01*
X22977502Y16477503D02*
X12017677Y5517678D01*
X43175000Y28000000D02*
X44012087Y27162913D01*
X47212912Y27162913D02*
X48050000Y28000000D01*
X44012092Y27162918D02*
G75*
G03*
X45612500Y26500000I1600408J1600382D01*
G01*
X22977503Y16477502D02*
G75*
G03*
X24420000Y19960000I-3482503J3482498D01*
G01*
X32673963Y28000040D02*
G75*
G03*
X28826208Y26406207I37J-5441540D01*
G01*
X12017668Y5517687D02*
G75*
G03*
X12000000Y5475000I42732J-42687D01*
G01*
X45612500Y26499994D02*
G75*
G03*
X47212912Y27162913I0J2263306D01*
G01*
%TO.N,GND*%
X64500000Y41500000D02*
X66500000Y41500000D01*
X51398959Y21000000D02*
X49950000Y21000000D01*
X46500000Y37000000D02*
X44825000Y37000000D01*
X51500000Y37000000D02*
X49900000Y37000000D01*
X10000000Y17000000D02*
X8520000Y17000000D01*
X51500000Y28000000D02*
X49950000Y28000000D01*
X46500000Y31000000D02*
X44825000Y31000000D01*
X32500000Y17500000D02*
X30475000Y17500000D01*
X65000000Y25000000D02*
X63000000Y25000000D01*
X51500000Y34000000D02*
X49950000Y34000000D01*
X46500000Y28000000D02*
X44825000Y28000000D01*
X51500000Y31000000D02*
X49950000Y31000000D01*
X46500000Y34000000D02*
X44825000Y34000000D01*
X64500000Y36500000D02*
X66350000Y36500000D01*
X65000000Y21000000D02*
X62950000Y21000000D01*
X46500000Y21000000D02*
X44825000Y21000000D01*
%TO.N,/EAST*%
X30206207Y35406208D02*
X16800000Y22000000D01*
X34053963Y37000000D02*
X43175000Y37000000D01*
X4725000Y5450000D02*
X4500000Y5450000D01*
X48000000Y36750000D02*
X48000000Y37000000D01*
X43925000Y36250000D02*
X43175000Y37000000D01*
X15206207Y15706208D02*
X5109099Y5609100D01*
X45735660Y35500000D02*
X46292893Y35500000D01*
X47823223Y36323224D02*
X47500000Y36000000D01*
X16800000Y19553964D02*
X16800000Y22000000D01*
X15206206Y15706209D02*
G75*
G03*
X16800000Y19553964I-3847766J3847761D01*
G01*
X4725000Y5450002D02*
G75*
G03*
X5109098Y5609101I0J543198D01*
G01*
X43925012Y36250012D02*
G75*
G03*
X45735660Y35500000I1810688J1810688D01*
G01*
X46292893Y35500003D02*
G75*
G03*
X47500000Y36000000I7J1707097D01*
G01*
X47823233Y36323214D02*
G75*
G03*
X48000000Y36750000I-426833J426786D01*
G01*
X34053963Y37000040D02*
G75*
G03*
X30206208Y35406207I37J-5441540D01*
G01*
%TO.N,/SOUTH*%
X21880000Y22000000D02*
X21880000Y19940000D01*
X47890900Y30390901D02*
X47525000Y30025000D01*
X9500000Y5475000D02*
X9500000Y5450000D01*
X43175000Y31000000D02*
X33133963Y31000000D01*
X48050000Y30775000D02*
X48050000Y31000000D01*
X20423359Y16423361D02*
X9517677Y5517678D01*
X43175000Y31000000D02*
X43925000Y30250000D01*
X29286207Y29406208D02*
X21880000Y22000000D01*
X45735660Y29500000D02*
X46257537Y29500000D01*
X9517668Y5517687D02*
G75*
G03*
X9500000Y5475000I42732J-42687D01*
G01*
X20423364Y16423356D02*
G75*
G03*
X21880000Y19940000I-3516664J3516644D01*
G01*
X47890901Y30390900D02*
G75*
G03*
X48050000Y30775000I-384101J384100D01*
G01*
X33133963Y31000040D02*
G75*
G03*
X29286208Y29406207I37J-5441540D01*
G01*
X46257537Y29499985D02*
G75*
G03*
X47525000Y30025000I-37J1792515D01*
G01*
X43925012Y30250012D02*
G75*
G03*
X45735660Y29500000I1810688J1810688D01*
G01*
%TO.N,/WEST*%
X43925000Y33250000D02*
X43175000Y34000000D01*
X19340000Y22000000D02*
X29746207Y32406208D01*
X47890900Y33390901D02*
X47525000Y33025000D01*
X48050000Y33775000D02*
X48050000Y34000000D01*
X33593963Y34000000D02*
X43175000Y34000000D01*
X45735660Y32500000D02*
X46257537Y32500000D01*
X19340000Y19895000D02*
X19340000Y22000000D01*
X17851540Y16301541D02*
X7000000Y5450000D01*
X46257537Y32499985D02*
G75*
G03*
X47525000Y33025000I-37J1792515D01*
G01*
X43925012Y33250012D02*
G75*
G03*
X45735660Y32500000I1810688J1810688D01*
G01*
X47890901Y33390900D02*
G75*
G03*
X48050000Y33775000I-384101J384100D01*
G01*
X33593963Y34000040D02*
G75*
G03*
X29746208Y32406207I37J-5441540D01*
G01*
X17851536Y16301545D02*
G75*
G03*
X19340000Y19895000I-3593436J3593455D01*
G01*
%TO.N,/SHIFT*%
X38843792Y16668793D02*
X43175000Y21000000D01*
X47212912Y21837088D02*
X48050000Y21000000D01*
X40768792Y23406208D02*
X43175000Y21000000D01*
X28460000Y23500000D02*
X26960000Y22000000D01*
X36921036Y25000000D02*
X32081320Y25000000D01*
X43175000Y21000000D02*
X44012087Y21837088D01*
X37250000Y12821037D02*
X37250000Y5450000D01*
X40768784Y23406200D02*
G75*
G03*
X36921036Y25000000I-3847784J-3847800D01*
G01*
X32081320Y24999991D02*
G75*
G03*
X28460000Y23500000I-20J-5121291D01*
G01*
X45612500Y22500008D02*
G75*
G03*
X44012087Y21837088I0J-2263308D01*
G01*
X38843821Y16668764D02*
G75*
G03*
X37250000Y12821037I3847679J-3847764D01*
G01*
X47212907Y21837083D02*
G75*
G03*
X45612500Y22500000I-1600407J-1600383D01*
G01*
%TO.N,/FOC+*%
X54581207Y38418793D02*
X54093792Y38906208D01*
X56175000Y25000000D02*
X56175000Y34571037D01*
X60280590Y24180591D02*
X61100000Y25000000D01*
X53500000Y20433490D02*
X53500000Y13453964D01*
X24646207Y42093793D02*
X21880000Y44860000D01*
X56175000Y25000000D02*
X56994409Y24180591D01*
X51906207Y9606208D02*
X47750000Y5450000D01*
X56175000Y25000000D02*
X54837500Y23662500D01*
X50246036Y40500000D02*
X28493963Y40500000D01*
X51906200Y9606215D02*
G75*
G03*
X53500000Y13453964I-3847800J3847785D01*
G01*
X56994405Y24180587D02*
G75*
G03*
X58637500Y23500000I1643095J1643113D01*
G01*
X58637500Y23500007D02*
G75*
G03*
X60280590Y24180591I0J2323693D01*
G01*
X54093784Y38906200D02*
G75*
G03*
X50246036Y40500000I-3847784J-3847800D01*
G01*
X56175010Y34571037D02*
G75*
G03*
X54581206Y38418792I-5441610J-37D01*
G01*
X24646215Y42093801D02*
G75*
G03*
X28493963Y40500000I3847785J3847799D01*
G01*
X54837497Y23662503D02*
G75*
G03*
X53500000Y20433490I3229003J-3229003D01*
G01*
%TO.N,/FOC-*%
X56762563Y38237437D02*
X54593792Y40406208D01*
X57012087Y21837088D02*
X56175000Y21000000D01*
X29302325Y42000000D02*
X50746036Y42000000D01*
X25850000Y43430000D02*
X24420000Y44860000D01*
X59237436Y32262564D02*
X64906207Y26593793D01*
X56962500Y6237500D02*
X57750000Y5450000D01*
X61050000Y21000000D02*
X60212912Y21837088D01*
X66500000Y20707107D02*
X66500000Y22746037D01*
X56175000Y21000000D02*
X56175000Y8138694D01*
X64275000Y19000000D02*
X64792893Y19000000D01*
X61050000Y21000000D02*
X62183794Y19866206D01*
X54593784Y40406200D02*
G75*
G03*
X50746036Y42000000I-3847784J-3847800D01*
G01*
X58000008Y35250000D02*
G75*
G03*
X59237436Y32262564I4224892J0D01*
G01*
X60212907Y21837083D02*
G75*
G03*
X58612500Y22500000I-1600407J-1600383D01*
G01*
X66000002Y19499998D02*
G75*
G03*
X66500000Y20707107I-1207102J1207102D01*
G01*
X56174998Y8138694D02*
G75*
G03*
X56962501Y6237501I2688702J6D01*
G01*
X58612500Y22500008D02*
G75*
G03*
X57012087Y21837088I0J-2263308D01*
G01*
X57999992Y35250000D02*
G75*
G03*
X56762563Y38237437I-4224892J0D01*
G01*
X25849993Y43429993D02*
G75*
G03*
X29302325Y42000000I3452307J3452307D01*
G01*
X62183796Y19866208D02*
G75*
G03*
X64275000Y19000000I2091204J2091192D01*
G01*
X64792893Y19000003D02*
G75*
G03*
X66000000Y19500000I7J1707097D01*
G01*
X66500010Y22746037D02*
G75*
G03*
X64906206Y26593792I-5441610J-37D01*
G01*
%TO.N,+3.3V*%
X1500000Y12749305D02*
X1500000Y5914214D01*
X13025000Y3975000D02*
X14500000Y5450000D01*
X15819714Y5794715D02*
X27525000Y17500000D01*
X9464034Y2500000D02*
X4914213Y2500000D01*
X14987500Y5450000D02*
X14500000Y5450000D01*
X2745000Y15755000D02*
X3990000Y17000000D01*
X14987500Y5449993D02*
G75*
G03*
X15819713Y5794716I0J1176907D01*
G01*
X2499996Y3499996D02*
G75*
G03*
X4914213Y2500000I2414204J2414204D01*
G01*
X2745001Y15754999D02*
G75*
G03*
X1500000Y12749305I3005699J-3005699D01*
G01*
X1500006Y5914214D02*
G75*
G03*
X2500000Y3500000I3414194J-14D01*
G01*
X9464034Y2499986D02*
G75*
G03*
X13025000Y3975000I-34J5036014D01*
G01*
D26*
%TO.N,+5V*%
X72560660Y2500000D02*
X78292893Y2500000D01*
X70000000Y4750000D02*
X70000000Y5500000D01*
X70750000Y3250000D02*
X70530330Y3469670D01*
X80000000Y39550898D02*
X80000000Y4207107D01*
X74690897Y44860000D02*
X29500000Y44860000D01*
X78445001Y43305001D02*
G75*
G03*
X74690897Y44860000I-3754101J-3754101D01*
G01*
X79500002Y2999998D02*
G75*
G03*
X80000000Y4207107I-1207102J1207102D01*
G01*
X70000012Y4750000D02*
G75*
G03*
X70530330Y3469670I1810688J0D01*
G01*
X70750012Y3250012D02*
G75*
G03*
X72560660Y2500000I1810688J1810688D01*
G01*
X78292893Y2500003D02*
G75*
G03*
X79500000Y3000000I7J1707097D01*
G01*
X79999999Y39550898D02*
G75*
G03*
X78445000Y43305000I-5309099J2D01*
G01*
D25*
%TO.N,/RST*%
X30973963Y39000000D02*
X51500000Y39000000D01*
X27126207Y37406208D02*
X11720000Y22000000D01*
X30973963Y39000040D02*
G75*
G03*
X27126208Y37406207I37J-5441540D01*
G01*
%TO.N,Net-(J6-Pin_6)*%
X68230416Y36160000D02*
X75000000Y36160000D01*
X67650000Y36500000D02*
X67820000Y36330000D01*
X67819995Y36329995D02*
G75*
G03*
X68230416Y36160000I410405J410405D01*
G01*
%TO.N,Net-(J6-Pin_7)*%
X74497089Y38700000D02*
X75000000Y38700000D01*
X67800000Y41500000D02*
X69750000Y41500000D01*
X72932125Y40264964D02*
X74497089Y38700000D01*
X72932103Y40264940D02*
G75*
G03*
X69750000Y41500000I-3185503J-3490540D01*
G01*
%TO.N,/V_SENSE*%
X6350017Y17350018D02*
X6425000Y17425000D01*
X13871091Y20511092D02*
X12735000Y19375000D01*
X6495000Y17000000D02*
X5505000Y17000000D01*
X5505000Y17000000D02*
X5010000Y17000000D01*
X6495000Y17000000D02*
X7500000Y17000000D01*
X7451040Y17850000D02*
X9053324Y17850000D01*
X14260000Y21450000D02*
X14260000Y22000000D01*
X9053324Y17849990D02*
G75*
G03*
X12735000Y19375000I-24J5206710D01*
G01*
X6350061Y17349974D02*
G75*
G03*
X6495000Y17000000I144939J-144974D01*
G01*
X13871088Y20511095D02*
G75*
G03*
X14260000Y21450000I-938888J938905D01*
G01*
X5505000Y16999991D02*
G75*
G03*
X6350016Y17350019I0J1195009D01*
G01*
X7451040Y17849983D02*
G75*
G03*
X6425000Y17425000I-40J-1450983D01*
G01*
%TD*%
%TA.AperFunction,Conductor*%
%TO.N,GND*%
G36*
X63502582Y25496260D02*
G01*
X63993490Y25253223D01*
X63999384Y25246482D01*
X63999999Y25242738D01*
X63999999Y24757263D01*
X63996572Y24748990D01*
X63993490Y24746778D01*
X63502584Y24503742D01*
X63493649Y24503142D01*
X63489088Y24505987D01*
X63007173Y24991761D01*
X63003780Y25000047D01*
X63007173Y25008240D01*
X63489089Y25494016D01*
X63497346Y25497474D01*
X63502582Y25496260D01*
G37*
%TD.AperFunction*%
%TD*%
%TA.AperFunction,Conductor*%
%TO.N,GND*%
G36*
X46494942Y28395565D02*
G01*
X46499835Y28388065D01*
X46500035Y28385938D01*
X46501000Y28000000D01*
X46500035Y27614063D01*
X46496587Y27605798D01*
X46488306Y27602392D01*
X46486179Y27602592D01*
X45709544Y27748211D01*
X45702044Y27753104D01*
X45700000Y27759711D01*
X45700000Y28240290D01*
X45703427Y28248563D01*
X45709542Y28251790D01*
X46486180Y28397409D01*
X46494942Y28395565D01*
G37*
%TD.AperFunction*%
%TD*%
%TA.AperFunction,Conductor*%
%TO.N,/EAST*%
G36*
X42824188Y37396916D02*
G01*
X42827740Y37394190D01*
X43169155Y37007747D01*
X43172065Y36999278D01*
X43169155Y36992253D01*
X42827740Y36605811D01*
X42819694Y36601880D01*
X42815254Y36602464D01*
X42805266Y36605811D01*
X42770251Y36617546D01*
X42382982Y36747326D01*
X42376227Y36753204D01*
X42375000Y36758420D01*
X42375000Y37241581D01*
X42378427Y37249854D01*
X42382982Y37252675D01*
X42815256Y37397537D01*
X42824188Y37396916D01*
G37*
%TD.AperFunction*%
%TD*%
%TA.AperFunction,Conductor*%
%TO.N,GND*%
G36*
X64994942Y21395565D02*
G01*
X64999835Y21388065D01*
X65000035Y21385938D01*
X65001000Y21000000D01*
X65000035Y20614063D01*
X64996587Y20605798D01*
X64988306Y20602392D01*
X64986179Y20602592D01*
X64209544Y20748211D01*
X64202044Y20753104D01*
X64200000Y20759711D01*
X64200000Y21240290D01*
X64203427Y21248563D01*
X64209542Y21251790D01*
X64986180Y21397409D01*
X64994942Y21395565D01*
G37*
%TD.AperFunction*%
%TD*%
%TA.AperFunction,Conductor*%
%TO.N,+5V*%
G36*
X70846461Y5570912D02*
G01*
X70850591Y5562966D01*
X70850620Y5562553D01*
X70921867Y4173553D01*
X70918868Y4165116D01*
X70917304Y4163672D01*
X69745248Y3264344D01*
X69736599Y3262026D01*
X69728844Y3266504D01*
X69727006Y3269989D01*
X69312536Y4537121D01*
X69313221Y4546049D01*
X69314156Y4547587D01*
X69996256Y5496431D01*
X70003868Y5501149D01*
X70004737Y5501258D01*
X70837924Y5573610D01*
X70846461Y5570912D01*
G37*
%TD.AperFunction*%
%TD*%
%TA.AperFunction,Conductor*%
%TO.N,/NORTH*%
G36*
X24426618Y21996459D02*
G01*
X25151533Y21499048D01*
X25156415Y21491542D01*
X25155857Y21485264D01*
X24672859Y20207563D01*
X24666728Y20201036D01*
X24661915Y20200000D01*
X24178085Y20200000D01*
X24169812Y20203427D01*
X24167141Y20207563D01*
X23684142Y21485267D01*
X23684422Y21494214D01*
X23688464Y21499047D01*
X24413380Y21996459D01*
X24422141Y21998313D01*
X24426618Y21996459D01*
G37*
%TD.AperFunction*%
%TD*%
%TA.AperFunction,Conductor*%
%TO.N,/NORTH*%
G36*
X47559368Y28203231D02*
G01*
X48043273Y28003766D01*
X48049615Y27997445D01*
X48050509Y27992649D01*
X48032305Y27282341D01*
X48028667Y27274159D01*
X48025425Y27271978D01*
X47394718Y26987100D01*
X47385768Y26986818D01*
X47381516Y26989604D01*
X47044823Y27335693D01*
X47041510Y27344013D01*
X47043137Y27349805D01*
X47544842Y28198370D01*
X47552001Y28203745D01*
X47559368Y28203231D01*
G37*
%TD.AperFunction*%
%TD*%
%TA.AperFunction,Conductor*%
%TO.N,/FOC-*%
G36*
X56659116Y21824492D02*
G01*
X56999281Y21484328D01*
X57002708Y21476055D01*
X57000727Y21469541D01*
X56580326Y20842263D01*
X56572874Y20837299D01*
X56566153Y20837958D01*
X56180156Y20996879D01*
X56173810Y21003198D01*
X56173114Y21005524D01*
X56085799Y21467153D01*
X56087628Y21475918D01*
X56091081Y21479241D01*
X56644631Y21826134D01*
X56653460Y21827623D01*
X56659116Y21824492D01*
G37*
%TD.AperFunction*%
%TD*%
%TA.AperFunction,Conductor*%
%TO.N,GND*%
G36*
X51494942Y37395565D02*
G01*
X51499835Y37388065D01*
X51500035Y37385938D01*
X51501000Y37000000D01*
X51500035Y36614063D01*
X51496587Y36605798D01*
X51488306Y36602392D01*
X51486179Y36602592D01*
X50709544Y36748211D01*
X50702044Y36753104D01*
X50700000Y36759711D01*
X50700000Y37240290D01*
X50703427Y37248563D01*
X50709542Y37251790D01*
X51486180Y37397409D01*
X51494942Y37395565D01*
G37*
%TD.AperFunction*%
%TD*%
%TA.AperFunction,Conductor*%
%TO.N,/NORTH*%
G36*
X25456698Y23385326D02*
G01*
X25459906Y23383052D01*
X25802576Y23040382D01*
X25806003Y23032109D01*
X25804997Y23027362D01*
X25192242Y21646964D01*
X25185753Y21640793D01*
X25176801Y21641017D01*
X25176546Y21641134D01*
X24424812Y21996683D01*
X24418798Y22003318D01*
X24418277Y22005314D01*
X24257648Y22957662D01*
X24259651Y22966390D01*
X24265307Y22970646D01*
X25447758Y23385818D01*
X25456698Y23385326D01*
G37*
%TD.AperFunction*%
%TD*%
%TA.AperFunction,Conductor*%
%TO.N,GND*%
G36*
X64994942Y25395565D02*
G01*
X64999835Y25388065D01*
X65000035Y25385938D01*
X65001000Y25000000D01*
X65000035Y24614063D01*
X64996587Y24605798D01*
X64988306Y24602392D01*
X64986179Y24602592D01*
X64209544Y24748211D01*
X64202044Y24753104D01*
X64200000Y24759711D01*
X64200000Y25240290D01*
X64203427Y25248563D01*
X64209542Y25251790D01*
X64986180Y25397409D01*
X64994942Y25395565D01*
G37*
%TD.AperFunction*%
%TD*%
%TA.AperFunction,Conductor*%
%TO.N,/FOC-*%
G36*
X61549631Y21203249D02*
G01*
X61555176Y21198453D01*
X62071499Y20335201D01*
X62072805Y20326342D01*
X62069731Y20320922D01*
X61728388Y19979579D01*
X61720115Y19976152D01*
X61715226Y19977223D01*
X61489451Y20081081D01*
X61074512Y20271956D01*
X61068429Y20278526D01*
X61067706Y20282285D01*
X61066550Y20327372D01*
X61049499Y20992660D01*
X61052713Y21001017D01*
X61056732Y21003774D01*
X61540677Y21203264D01*
X61549631Y21203249D01*
G37*
%TD.AperFunction*%
%TD*%
%TA.AperFunction,Conductor*%
%TO.N,/WEST*%
G36*
X42824188Y34396916D02*
G01*
X42827740Y34394190D01*
X43169155Y34007747D01*
X43172065Y33999278D01*
X43169155Y33992253D01*
X42827740Y33605811D01*
X42819694Y33601880D01*
X42815254Y33602464D01*
X42805266Y33605811D01*
X42770251Y33617546D01*
X42382982Y33747326D01*
X42376227Y33753204D01*
X42375000Y33758420D01*
X42375000Y34241581D01*
X42378427Y34249854D01*
X42382982Y34252675D01*
X42815256Y34397537D01*
X42824188Y34396916D01*
G37*
%TD.AperFunction*%
%TD*%
%TA.AperFunction,Conductor*%
%TO.N,GND*%
G36*
X45184741Y21397538D02*
G01*
X45617018Y21252675D01*
X45623773Y21246797D01*
X45625000Y21241581D01*
X45625000Y20758420D01*
X45621573Y20750147D01*
X45617018Y20747326D01*
X45184745Y20602464D01*
X45175811Y20603085D01*
X45172259Y20605811D01*
X45047233Y20747326D01*
X44830843Y20992254D01*
X44827934Y21000722D01*
X44830844Y21007747D01*
X45172260Y21394191D01*
X45180305Y21398121D01*
X45184741Y21397538D01*
G37*
%TD.AperFunction*%
%TD*%
%TA.AperFunction,Conductor*%
%TO.N,GND*%
G36*
X51393901Y21395565D02*
G01*
X51398794Y21388065D01*
X51398994Y21385938D01*
X51399959Y21000000D01*
X51398994Y20614063D01*
X51395546Y20605798D01*
X51387265Y20602392D01*
X51385138Y20602592D01*
X50608503Y20748211D01*
X50601003Y20753104D01*
X50598959Y20759711D01*
X50598959Y21240290D01*
X50602386Y21248563D01*
X50608501Y21251790D01*
X51385139Y21397409D01*
X51393901Y21395565D01*
G37*
%TD.AperFunction*%
%TD*%
%TA.AperFunction,Conductor*%
%TO.N,/FOC+*%
G36*
X55783845Y25162044D02*
G01*
X56169844Y25003121D01*
X56176189Y24996803D01*
X56176885Y24994477D01*
X56264201Y24532848D01*
X56262372Y24524083D01*
X56258918Y24520760D01*
X55705368Y24173868D01*
X55696538Y24172378D01*
X55690882Y24175509D01*
X55350718Y24515673D01*
X55347291Y24523946D01*
X55349271Y24530459D01*
X55769674Y25157740D01*
X55777125Y25162702D01*
X55783845Y25162044D01*
G37*
%TD.AperFunction*%
%TD*%
%TA.AperFunction,Conductor*%
%TO.N,/SOUTH*%
G36*
X43575107Y31162025D02*
G01*
X43580326Y31157739D01*
X44000727Y30530460D01*
X44002486Y30521679D01*
X43999281Y30515673D01*
X43659117Y30175509D01*
X43650844Y30172082D01*
X43644631Y30173868D01*
X43091082Y30520760D01*
X43085891Y30528057D01*
X43085799Y30532848D01*
X43173114Y30994479D01*
X43178019Y31001970D01*
X43180147Y31003118D01*
X43566154Y31162044D01*
X43575107Y31162025D01*
G37*
%TD.AperFunction*%
%TD*%
%TA.AperFunction,Conductor*%
%TO.N,GND*%
G36*
X46494942Y31395565D02*
G01*
X46499835Y31388065D01*
X46500035Y31385938D01*
X46501000Y31000000D01*
X46500035Y30614063D01*
X46496587Y30605798D01*
X46488306Y30602392D01*
X46486179Y30602592D01*
X45709544Y30748211D01*
X45702044Y30753104D01*
X45700000Y30759711D01*
X45700000Y31240290D01*
X45703427Y31248563D01*
X45709542Y31251790D01*
X46486180Y31397409D01*
X46494942Y31395565D01*
G37*
%TD.AperFunction*%
%TD*%
%TA.AperFunction,Conductor*%
%TO.N,/EAST*%
G36*
X16806618Y21996459D02*
G01*
X17531533Y21499048D01*
X17536415Y21491542D01*
X17535857Y21485264D01*
X17052859Y20207563D01*
X17046728Y20201036D01*
X17041915Y20200000D01*
X16558085Y20200000D01*
X16549812Y20203427D01*
X16547141Y20207563D01*
X16064142Y21485267D01*
X16064422Y21494214D01*
X16068464Y21499047D01*
X16793380Y21996459D01*
X16802141Y21998313D01*
X16806618Y21996459D01*
G37*
%TD.AperFunction*%
%TD*%
%TA.AperFunction,Conductor*%
%TO.N,/WEST*%
G36*
X43575107Y34162025D02*
G01*
X43580326Y34157739D01*
X44000727Y33530460D01*
X44002486Y33521679D01*
X43999281Y33515673D01*
X43659117Y33175509D01*
X43650844Y33172082D01*
X43644631Y33173868D01*
X43091082Y33520760D01*
X43085891Y33528057D01*
X43085799Y33532848D01*
X43173114Y33994479D01*
X43178019Y34001970D01*
X43180147Y34003118D01*
X43566154Y34162044D01*
X43575107Y34162025D01*
G37*
%TD.AperFunction*%
%TD*%
%TA.AperFunction,Conductor*%
%TO.N,GND*%
G36*
X45184741Y31397538D02*
G01*
X45617018Y31252675D01*
X45623773Y31246797D01*
X45625000Y31241581D01*
X45625000Y30758420D01*
X45621573Y30750147D01*
X45617018Y30747326D01*
X45184745Y30602464D01*
X45175811Y30603085D01*
X45172259Y30605811D01*
X45047233Y30747326D01*
X44830843Y30992254D01*
X44827934Y31000722D01*
X44830844Y31007747D01*
X45172260Y31394191D01*
X45180305Y31398121D01*
X45184741Y31397538D01*
G37*
%TD.AperFunction*%
%TD*%
%TA.AperFunction,Conductor*%
%TO.N,GND*%
G36*
X51494942Y28395565D02*
G01*
X51499835Y28388065D01*
X51500035Y28385938D01*
X51501000Y28000000D01*
X51500035Y27614063D01*
X51496587Y27605798D01*
X51488306Y27602392D01*
X51486179Y27602592D01*
X50709544Y27748211D01*
X50702044Y27753104D01*
X50700000Y27759711D01*
X50700000Y28240290D01*
X50703427Y28248563D01*
X50709542Y28251790D01*
X51486180Y28397409D01*
X51494942Y28395565D01*
G37*
%TD.AperFunction*%
%TD*%
%TA.AperFunction,Conductor*%
%TO.N,/SHIFT*%
G36*
X43659116Y21824492D02*
G01*
X43999281Y21484328D01*
X44002708Y21476055D01*
X44000727Y21469541D01*
X43580326Y20842263D01*
X43572874Y20837299D01*
X43566153Y20837958D01*
X43180156Y20996879D01*
X43173810Y21003198D01*
X43173114Y21005524D01*
X43085799Y21467153D01*
X43087628Y21475918D01*
X43091081Y21479241D01*
X43644631Y21826134D01*
X43653460Y21827623D01*
X43659116Y21824492D01*
G37*
%TD.AperFunction*%
%TD*%
%TA.AperFunction,Conductor*%
%TO.N,/NORTH*%
G36*
X42824188Y28396916D02*
G01*
X42827740Y28394190D01*
X43169155Y28007747D01*
X43172065Y27999278D01*
X43169155Y27992253D01*
X42827740Y27605811D01*
X42819694Y27601880D01*
X42815254Y27602464D01*
X42805266Y27605811D01*
X42770251Y27617546D01*
X42382982Y27747326D01*
X42376227Y27753204D01*
X42375000Y27758420D01*
X42375000Y28241581D01*
X42378427Y28249854D01*
X42382982Y28252675D01*
X42815256Y28397537D01*
X42824188Y28396916D01*
G37*
%TD.AperFunction*%
%TD*%
%TA.AperFunction,Conductor*%
%TO.N,/SOUTH*%
G36*
X42824188Y31396916D02*
G01*
X42827740Y31394190D01*
X43169155Y31007747D01*
X43172065Y30999278D01*
X43169155Y30992253D01*
X42827740Y30605811D01*
X42819694Y30601880D01*
X42815254Y30602464D01*
X42805266Y30605811D01*
X42770251Y30617546D01*
X42382982Y30747326D01*
X42376227Y30753204D01*
X42375000Y30758420D01*
X42375000Y31241581D01*
X42378427Y31249854D01*
X42382982Y31252675D01*
X42815256Y31397537D01*
X42824188Y31396916D01*
G37*
%TD.AperFunction*%
%TD*%
%TA.AperFunction,Conductor*%
%TO.N,+3.3V*%
G36*
X13716806Y5853084D02*
G01*
X13717544Y5852737D01*
X13874053Y5772395D01*
X14496317Y5452961D01*
X14502112Y5446134D01*
X14502157Y5445992D01*
X14780229Y4541908D01*
X14779386Y4532993D01*
X14773159Y4527515D01*
X13431683Y4023724D01*
X13422734Y4024023D01*
X13419297Y4026404D01*
X13076673Y4369028D01*
X13073246Y4377301D01*
X13074189Y4381904D01*
X13701446Y5846935D01*
X13707852Y5853190D01*
X13716806Y5853084D01*
G37*
%TD.AperFunction*%
%TD*%
%TA.AperFunction,Conductor*%
%TO.N,GND*%
G36*
X50452582Y21496260D02*
G01*
X50943491Y21253223D01*
X50949385Y21246482D01*
X50950000Y21242738D01*
X50950000Y20757263D01*
X50946573Y20748990D01*
X50943491Y20746778D01*
X50452584Y20503742D01*
X50443649Y20503142D01*
X50439088Y20505987D01*
X49957173Y20991761D01*
X49953780Y21000047D01*
X49957173Y21008240D01*
X50439089Y21494016D01*
X50447346Y21497474D01*
X50452582Y21496260D01*
G37*
%TD.AperFunction*%
%TD*%
%TA.AperFunction,Conductor*%
%TO.N,/SHIFT*%
G36*
X47394718Y22012902D02*
G01*
X48025425Y21728023D01*
X48031554Y21721494D01*
X48032305Y21717660D01*
X48050509Y21007352D01*
X48047295Y20998994D01*
X48043272Y20996235D01*
X47559371Y20796772D01*
X47550416Y20796787D01*
X47544841Y20801634D01*
X47423212Y21007352D01*
X47043136Y21650197D01*
X47041876Y21659062D01*
X47044820Y21664308D01*
X47381518Y22010398D01*
X47389742Y22013937D01*
X47394718Y22012902D01*
G37*
%TD.AperFunction*%
%TD*%
%TA.AperFunction,Conductor*%
%TO.N,GND*%
G36*
X50452582Y31496260D02*
G01*
X50943491Y31253223D01*
X50949385Y31246482D01*
X50950000Y31242738D01*
X50950000Y30757263D01*
X50946573Y30748990D01*
X50943491Y30746778D01*
X50452584Y30503742D01*
X50443649Y30503142D01*
X50439088Y30505987D01*
X49957173Y30991761D01*
X49953780Y31000047D01*
X49957173Y31008240D01*
X50439089Y31494016D01*
X50447346Y31497474D01*
X50452582Y31496260D01*
G37*
%TD.AperFunction*%
%TD*%
%TA.AperFunction,Conductor*%
%TO.N,/WEST*%
G36*
X48043884Y34002436D02*
G01*
X48051004Y33997008D01*
X48052320Y33993625D01*
X48207971Y33281819D01*
X48206391Y33273005D01*
X48204170Y33270449D01*
X47602404Y32752900D01*
X47593897Y32750104D01*
X47585904Y32754142D01*
X47585493Y32754648D01*
X47292139Y33136954D01*
X47289821Y33145604D01*
X47290103Y33147043D01*
X47547015Y34121780D01*
X47552438Y34128905D01*
X47561309Y34130111D01*
X48043884Y34002436D01*
G37*
%TD.AperFunction*%
%TD*%
%TA.AperFunction,Conductor*%
%TO.N,/SHIFT*%
G36*
X27996698Y23385326D02*
G01*
X27999906Y23383052D01*
X28342576Y23040382D01*
X28346003Y23032109D01*
X28344997Y23027362D01*
X27732242Y21646964D01*
X27725753Y21640793D01*
X27716801Y21641017D01*
X27716546Y21641134D01*
X26964812Y21996683D01*
X26958798Y22003318D01*
X26958277Y22005314D01*
X26797648Y22957662D01*
X26799651Y22966390D01*
X26805307Y22970646D01*
X27987758Y23385818D01*
X27996698Y23385326D01*
G37*
%TD.AperFunction*%
%TD*%
%TA.AperFunction,Conductor*%
%TO.N,Net-(J6-Pin_6)*%
G36*
X74673010Y36940955D02*
G01*
X74679108Y36934733D01*
X74999134Y36164489D01*
X74999143Y36155534D01*
X74999134Y36155511D01*
X74679108Y35385268D01*
X74672769Y35378943D01*
X74664058Y35378854D01*
X73307455Y35907098D01*
X73300989Y35913294D01*
X73300000Y35918001D01*
X73300000Y36402000D01*
X73303427Y36410273D01*
X73307455Y36412903D01*
X74664058Y36941147D01*
X74673010Y36940955D01*
G37*
%TD.AperFunction*%
%TD*%
%TA.AperFunction,Conductor*%
%TO.N,GND*%
G36*
X50452582Y28496260D02*
G01*
X50943491Y28253223D01*
X50949385Y28246482D01*
X50950000Y28242738D01*
X50950000Y27757263D01*
X50946573Y27748990D01*
X50943491Y27746778D01*
X50452584Y27503742D01*
X50443649Y27503142D01*
X50439088Y27505987D01*
X49957174Y27991761D01*
X49953780Y28000048D01*
X49957172Y28008239D01*
X50439089Y28494016D01*
X50447346Y28497474D01*
X50452582Y28496260D01*
G37*
%TD.AperFunction*%
%TD*%
%TA.AperFunction,Conductor*%
%TO.N,/FOC-*%
G36*
X60394718Y22012902D02*
G01*
X61025425Y21728023D01*
X61031554Y21721494D01*
X61032305Y21717660D01*
X61050509Y21007352D01*
X61047295Y20998994D01*
X61043272Y20996235D01*
X60559370Y20796772D01*
X60550415Y20796787D01*
X60544840Y20801634D01*
X60429784Y20996235D01*
X60043136Y21650197D01*
X60041876Y21659062D01*
X60044820Y21664308D01*
X60381518Y22010398D01*
X60389742Y22013937D01*
X60394718Y22012902D01*
G37*
%TD.AperFunction*%
%TD*%
%TA.AperFunction,Conductor*%
%TO.N,GND*%
G36*
X46494942Y21395565D02*
G01*
X46499835Y21388065D01*
X46500035Y21385938D01*
X46501000Y21000000D01*
X46500035Y20614063D01*
X46496587Y20605798D01*
X46488306Y20602392D01*
X46486179Y20602592D01*
X45709544Y20748211D01*
X45702044Y20753104D01*
X45700000Y20759711D01*
X45700000Y21240290D01*
X45703427Y21248563D01*
X45709542Y21251790D01*
X46486180Y21397409D01*
X46494942Y21395565D01*
G37*
%TD.AperFunction*%
%TD*%
%TA.AperFunction,Conductor*%
%TO.N,/EAST*%
G36*
X5777121Y6624780D02*
G01*
X5778434Y6623648D01*
X6121298Y6280784D01*
X6124725Y6272511D01*
X6123004Y6266403D01*
X5355714Y5012922D01*
X5348472Y5007655D01*
X5340305Y5008666D01*
X4504979Y5446314D01*
X4499241Y5453189D01*
X4498751Y5455691D01*
X4417595Y6414063D01*
X4420311Y6422596D01*
X4427523Y6426622D01*
X5768432Y6626947D01*
X5777121Y6624780D01*
G37*
%TD.AperFunction*%
%TD*%
%TA.AperFunction,Conductor*%
%TO.N,GND*%
G36*
X45184741Y37397538D02*
G01*
X45617018Y37252675D01*
X45623773Y37246797D01*
X45625000Y37241581D01*
X45625000Y36758420D01*
X45621573Y36750147D01*
X45617018Y36747326D01*
X45184745Y36602464D01*
X45175811Y36603085D01*
X45172259Y36605811D01*
X45047233Y36747326D01*
X44830843Y36992254D01*
X44827934Y37000722D01*
X44830844Y37007747D01*
X45172260Y37394191D01*
X45180305Y37398121D01*
X45184741Y37397538D01*
G37*
%TD.AperFunction*%
%TD*%
%TA.AperFunction,Conductor*%
%TO.N,GND*%
G36*
X51494942Y31395565D02*
G01*
X51499835Y31388065D01*
X51500035Y31385938D01*
X51501000Y31000000D01*
X51500035Y30614063D01*
X51496587Y30605798D01*
X51488306Y30602392D01*
X51486179Y30602592D01*
X50709544Y30748211D01*
X50702044Y30753104D01*
X50700000Y30759711D01*
X50700000Y31240290D01*
X50703427Y31248563D01*
X50709542Y31251790D01*
X51486180Y31397409D01*
X51494942Y31395565D01*
G37*
%TD.AperFunction*%
%TD*%
%TA.AperFunction,Conductor*%
%TO.N,+3.3V*%
G36*
X14630200Y6399659D02*
G01*
X15877140Y6210069D01*
X15883653Y6206775D01*
X16226138Y5864290D01*
X16229565Y5856017D01*
X16226138Y5847744D01*
X16226060Y5847666D01*
X15147805Y4789594D01*
X15139499Y4786246D01*
X15131259Y4789750D01*
X15131162Y4789850D01*
X14503145Y5445273D01*
X14499896Y5453618D01*
X14499981Y5454805D01*
X14616830Y6389545D01*
X14621257Y6397327D01*
X14629891Y6399702D01*
X14630200Y6399659D01*
G37*
%TD.AperFunction*%
%TD*%
%TA.AperFunction,Conductor*%
%TO.N,GND*%
G36*
X51494942Y34395565D02*
G01*
X51499835Y34388065D01*
X51500035Y34385938D01*
X51501000Y34000000D01*
X51500035Y33614063D01*
X51496587Y33605798D01*
X51488306Y33602392D01*
X51486179Y33602592D01*
X50709544Y33748211D01*
X50702044Y33753104D01*
X50700000Y33759711D01*
X50700000Y34240290D01*
X50703427Y34248563D01*
X50709542Y34251790D01*
X51486180Y34397409D01*
X51494942Y34395565D01*
G37*
%TD.AperFunction*%
%TD*%
%TA.AperFunction,Conductor*%
%TO.N,/RST*%
G36*
X13256062Y23878151D02*
G01*
X13598150Y23536063D01*
X13601577Y23527790D01*
X13600528Y23522949D01*
X12724675Y21596074D01*
X12718132Y21589960D01*
X12709556Y21590102D01*
X11723782Y21997438D01*
X11717446Y22003762D01*
X11310101Y22989558D01*
X11310108Y22998512D01*
X11316073Y23004676D01*
X13242951Y23880530D01*
X13251897Y23880833D01*
X13256062Y23878151D01*
G37*
%TD.AperFunction*%
%TD*%
%TA.AperFunction,Conductor*%
%TO.N,Net-(J6-Pin_7)*%
G36*
X73789324Y39766249D02*
G01*
X74990365Y39551721D01*
X74997907Y39546893D01*
X75000008Y39540213D01*
X75000702Y38704154D01*
X74997282Y38695878D01*
X74997265Y38695861D01*
X74408577Y38108556D01*
X74400300Y38105139D01*
X74392031Y38108576D01*
X74390896Y38109897D01*
X73435738Y39405669D01*
X73433588Y39414362D01*
X73436881Y39420882D01*
X73779003Y39763004D01*
X73787275Y39766430D01*
X73789324Y39766249D01*
G37*
%TD.AperFunction*%
%TD*%
%TA.AperFunction,Conductor*%
%TO.N,/RST*%
G36*
X51494942Y39395565D02*
G01*
X51499835Y39388065D01*
X51500035Y39385938D01*
X51501000Y39000000D01*
X51500035Y38614063D01*
X51496587Y38605798D01*
X51488306Y38602392D01*
X51486179Y38602592D01*
X50709544Y38748211D01*
X50702044Y38753104D01*
X50700000Y38759711D01*
X50700000Y39240290D01*
X50703427Y39248563D01*
X50709542Y39251790D01*
X51486180Y39397409D01*
X51494942Y39395565D01*
G37*
%TD.AperFunction*%
%TD*%
%TA.AperFunction,Conductor*%
%TO.N,GND*%
G36*
X46494942Y37395565D02*
G01*
X46499835Y37388065D01*
X46500035Y37385938D01*
X46501000Y37000000D01*
X46500035Y36614063D01*
X46496587Y36605798D01*
X46488306Y36602392D01*
X46486179Y36602592D01*
X45709544Y36748211D01*
X45702044Y36753104D01*
X45700000Y36759711D01*
X45700000Y37240290D01*
X45703427Y37248563D01*
X45709542Y37251790D01*
X46486180Y37397409D01*
X46494942Y37395565D01*
G37*
%TD.AperFunction*%
%TD*%
%TA.AperFunction,Conductor*%
%TO.N,/FOC+*%
G36*
X22652125Y45213293D02*
G01*
X22652242Y45213038D01*
X23264997Y43832639D01*
X23265221Y43823687D01*
X23262576Y43819619D01*
X22919906Y43476949D01*
X22911633Y43473522D01*
X22907757Y43474183D01*
X21725309Y43889355D01*
X21718638Y43895329D01*
X21717648Y43902340D01*
X21878277Y44854689D01*
X21883032Y44862275D01*
X21884806Y44863315D01*
X22636548Y45218869D01*
X22645490Y45219307D01*
X22652125Y45213293D01*
G37*
%TD.AperFunction*%
%TD*%
%TA.AperFunction,Conductor*%
%TO.N,/WEST*%
G36*
X20376698Y23385326D02*
G01*
X20379906Y23383052D01*
X20722576Y23040382D01*
X20726003Y23032109D01*
X20724997Y23027362D01*
X20112242Y21646964D01*
X20105753Y21640793D01*
X20096801Y21641017D01*
X20096546Y21641134D01*
X19344812Y21996683D01*
X19338798Y22003318D01*
X19338277Y22005314D01*
X19177648Y22957662D01*
X19179651Y22966390D01*
X19185307Y22970646D01*
X20367758Y23385818D01*
X20376698Y23385326D01*
G37*
%TD.AperFunction*%
%TD*%
%TA.AperFunction,Conductor*%
%TO.N,GND*%
G36*
X32494942Y17895565D02*
G01*
X32499835Y17888065D01*
X32500035Y17885938D01*
X32501000Y17500000D01*
X32500035Y17114063D01*
X32496587Y17105798D01*
X32488306Y17102392D01*
X32486179Y17102592D01*
X31709544Y17248211D01*
X31702044Y17253104D01*
X31700000Y17259711D01*
X31700000Y17740290D01*
X31703427Y17748563D01*
X31709542Y17751790D01*
X32486180Y17897409D01*
X32494942Y17895565D01*
G37*
%TD.AperFunction*%
%TD*%
%TA.AperFunction,Conductor*%
%TO.N,/EAST*%
G36*
X47511892Y37114603D02*
G01*
X47993903Y37002284D01*
X48001182Y36997070D01*
X48002542Y36993940D01*
X48194791Y36282073D01*
X48193640Y36273193D01*
X48191173Y36270194D01*
X47682366Y35827767D01*
X47673875Y35824924D01*
X47666288Y35828453D01*
X47330201Y36175169D01*
X47326903Y36183494D01*
X47327096Y36185434D01*
X47497766Y37105336D01*
X47502645Y37112845D01*
X47511404Y37114705D01*
X47511892Y37114603D01*
G37*
%TD.AperFunction*%
%TD*%
%TA.AperFunction,Conductor*%
%TO.N,GND*%
G36*
X31057732Y18070630D02*
G01*
X31619058Y17753359D01*
X31624573Y17746305D01*
X31625000Y17743174D01*
X31625000Y17256827D01*
X31621573Y17248554D01*
X31619057Y17246641D01*
X31057734Y16929372D01*
X31048846Y16928285D01*
X31043711Y16931278D01*
X30482293Y17491721D01*
X30478860Y17499990D01*
X30482280Y17508266D01*
X30482294Y17508280D01*
X31043712Y18068724D01*
X31051987Y18072143D01*
X31057732Y18070630D01*
G37*
%TD.AperFunction*%
%TD*%
%TA.AperFunction,Conductor*%
%TO.N,GND*%
G36*
X45184741Y28397538D02*
G01*
X45617018Y28252675D01*
X45623773Y28246797D01*
X45625000Y28241581D01*
X45625000Y27758420D01*
X45621573Y27750147D01*
X45617018Y27747326D01*
X45184745Y27602464D01*
X45175811Y27603085D01*
X45172259Y27605811D01*
X45047233Y27747326D01*
X44830843Y27992254D01*
X44827934Y28000722D01*
X44830844Y28007747D01*
X45172260Y28394191D01*
X45180305Y28398121D01*
X45184741Y28397538D01*
G37*
%TD.AperFunction*%
%TD*%
%TA.AperFunction,Conductor*%
%TO.N,/SHIFT*%
G36*
X37501524Y7296573D02*
G01*
X37503379Y7294158D01*
X38076514Y6303373D01*
X38077690Y6294496D01*
X38074736Y6289320D01*
X37258350Y5457508D01*
X37250109Y5454004D01*
X37241805Y5457353D01*
X37241650Y5457508D01*
X36425263Y6289320D01*
X36421914Y6297624D01*
X36423485Y6303373D01*
X36996621Y7294158D01*
X37003730Y7299604D01*
X37006749Y7300000D01*
X37493251Y7300000D01*
X37501524Y7296573D01*
G37*
%TD.AperFunction*%
%TD*%
%TA.AperFunction,Conductor*%
%TO.N,/EAST*%
G36*
X17836698Y23385326D02*
G01*
X17839906Y23383052D01*
X18182576Y23040382D01*
X18186003Y23032109D01*
X18184997Y23027362D01*
X17572242Y21646964D01*
X17565753Y21640793D01*
X17556801Y21641017D01*
X17556546Y21641134D01*
X16804812Y21996683D01*
X16798798Y22003318D01*
X16798277Y22005314D01*
X16637648Y22957662D01*
X16639651Y22966390D01*
X16645307Y22970646D01*
X17827758Y23385818D01*
X17836698Y23385326D01*
G37*
%TD.AperFunction*%
%TD*%
%TA.AperFunction,Conductor*%
%TO.N,/SOUTH*%
G36*
X48043884Y31002436D02*
G01*
X48051004Y30997008D01*
X48052320Y30993625D01*
X48207971Y30281819D01*
X48206391Y30273005D01*
X48204170Y30270449D01*
X47602404Y29752900D01*
X47593897Y29750104D01*
X47585904Y29754142D01*
X47585493Y29754648D01*
X47292139Y30136954D01*
X47289821Y30145604D01*
X47290103Y30147043D01*
X47547015Y31121780D01*
X47552438Y31128905D01*
X47561309Y31130111D01*
X48043884Y31002436D01*
G37*
%TD.AperFunction*%
%TD*%
%TA.AperFunction,Conductor*%
%TO.N,GND*%
G36*
X50402582Y37496260D02*
G01*
X50893491Y37253223D01*
X50899385Y37246482D01*
X50900000Y37242738D01*
X50900000Y36757263D01*
X50896573Y36748990D01*
X50893491Y36746778D01*
X50402584Y36503742D01*
X50393649Y36503142D01*
X50389088Y36505987D01*
X49907173Y36991761D01*
X49903780Y37000047D01*
X49907173Y37008240D01*
X50389089Y37494016D01*
X50397346Y37497474D01*
X50402582Y37496260D01*
G37*
%TD.AperFunction*%
%TD*%
%TA.AperFunction,Conductor*%
%TO.N,/FOC-*%
G36*
X25192125Y45213293D02*
G01*
X25192242Y45213038D01*
X25804997Y43832639D01*
X25805221Y43823687D01*
X25802576Y43819619D01*
X25459906Y43476949D01*
X25451633Y43473522D01*
X25447757Y43474183D01*
X24265309Y43889355D01*
X24258638Y43895329D01*
X24257648Y43902340D01*
X24418277Y44854689D01*
X24423032Y44862275D01*
X24424806Y44863315D01*
X25176548Y45218869D01*
X25185490Y45219307D01*
X25192125Y45213293D01*
G37*
%TD.AperFunction*%
%TD*%
%TA.AperFunction,Conductor*%
%TO.N,+3.3V*%
G36*
X77015469Y54479815D02*
G01*
X77036111Y54463181D01*
X81963181Y49536112D01*
X81996666Y49474789D01*
X81999500Y49448431D01*
X81999500Y124500D01*
X81979815Y57461D01*
X81927011Y11706D01*
X81875500Y500D01*
X26124000Y500D01*
X26056961Y20185D01*
X26011206Y72989D01*
X26000000Y124500D01*
X26000000Y17250000D01*
X26450001Y17250000D01*
X26450001Y16800014D01*
X26460494Y16697303D01*
X26515641Y16530881D01*
X26515643Y16530876D01*
X26607684Y16381655D01*
X26731654Y16257685D01*
X26880875Y16165644D01*
X26880880Y16165642D01*
X27047302Y16110495D01*
X27047309Y16110494D01*
X27150019Y16100001D01*
X27274999Y16100001D01*
X27275000Y16100002D01*
X27275000Y17250000D01*
X27775000Y17250000D01*
X27775000Y16100001D01*
X27899972Y16100001D01*
X27899986Y16100002D01*
X28002697Y16110495D01*
X28169119Y16165642D01*
X28169124Y16165644D01*
X28318345Y16257685D01*
X28442315Y16381655D01*
X28534356Y16530876D01*
X28534358Y16530881D01*
X28589505Y16697303D01*
X28589506Y16697310D01*
X28599997Y16799999D01*
X29399500Y16799999D01*
X29399501Y16799982D01*
X29410000Y16697204D01*
X29410001Y16697201D01*
X29442467Y16599227D01*
X29465186Y16530666D01*
X29557288Y16381344D01*
X29681344Y16257288D01*
X29830666Y16165186D01*
X29997203Y16110001D01*
X30099991Y16099500D01*
X30850008Y16099501D01*
X30850016Y16099502D01*
X30850019Y16099502D01*
X30906302Y16105252D01*
X30952797Y16110001D01*
X31119334Y16165186D01*
X31268656Y16257288D01*
X31392712Y16381344D01*
X31484814Y16530666D01*
X31494002Y16558398D01*
X31533770Y16615839D01*
X31550683Y16627338D01*
X31692437Y16707460D01*
X31760484Y16723309D01*
X31776303Y16721385D01*
X32248177Y16632909D01*
X32248178Y16632909D01*
X32405354Y16599500D01*
X32433950Y16599500D01*
X32439758Y16599227D01*
X32440972Y16599113D01*
X32440983Y16599112D01*
X32440994Y16599113D01*
X32440996Y16599112D01*
X32512384Y16599500D01*
X32594644Y16599500D01*
X32594646Y16599500D01*
X32779803Y16638856D01*
X32952730Y16715849D01*
X33105871Y16827112D01*
X33232533Y16967784D01*
X33327179Y17131716D01*
X33385674Y17311744D01*
X33405460Y17500000D01*
X33385674Y17688256D01*
X33327179Y17868284D01*
X33232533Y18032216D01*
X33105871Y18172888D01*
X33105870Y18172889D01*
X32952734Y18284149D01*
X32952729Y18284152D01*
X32779807Y18361143D01*
X32779802Y18361145D01*
X32614885Y18396198D01*
X32594646Y18400500D01*
X32405354Y18400500D01*
X32279650Y18373782D01*
X32248224Y18367102D01*
X31776304Y18278618D01*
X31706785Y18285611D01*
X31692437Y18292544D01*
X31604392Y18342308D01*
X31550690Y18372662D01*
X31502016Y18422784D01*
X31494006Y18441592D01*
X31484814Y18469334D01*
X31392712Y18618656D01*
X31268656Y18742712D01*
X31119334Y18834814D01*
X30952797Y18889999D01*
X30952795Y18890000D01*
X30850010Y18900500D01*
X30099998Y18900500D01*
X30099980Y18900499D01*
X29997203Y18890000D01*
X29997200Y18889999D01*
X29830668Y18834815D01*
X29830663Y18834813D01*
X29681342Y18742711D01*
X29557289Y18618658D01*
X29465187Y18469337D01*
X29465185Y18469332D01*
X29465115Y18469120D01*
X29410001Y18302797D01*
X29410001Y18302796D01*
X29410000Y18302796D01*
X29399500Y18200017D01*
X29399500Y16799999D01*
X28599997Y16799999D01*
X28599999Y16800014D01*
X28600000Y16800027D01*
X28600000Y17250000D01*
X27775000Y17250000D01*
X27275000Y17250000D01*
X26450001Y17250000D01*
X26000000Y17250000D01*
X26000000Y17750000D01*
X26450000Y17750000D01*
X27275000Y17750000D01*
X27275000Y18900000D01*
X27775000Y18900000D01*
X27775000Y17750000D01*
X28599999Y17750000D01*
X28599999Y18199972D01*
X28599998Y18199987D01*
X28589505Y18302698D01*
X28534358Y18469120D01*
X28534356Y18469125D01*
X28442315Y18618346D01*
X28318345Y18742316D01*
X28169124Y18834357D01*
X28169119Y18834359D01*
X28002697Y18889506D01*
X28002690Y18889507D01*
X27899986Y18900000D01*
X27775000Y18900000D01*
X27275000Y18900000D01*
X27150027Y18900000D01*
X27150012Y18899999D01*
X27047302Y18889506D01*
X26880880Y18834359D01*
X26880875Y18834357D01*
X26731654Y18742316D01*
X26607684Y18618346D01*
X26515643Y18469125D01*
X26515641Y18469120D01*
X26460494Y18302698D01*
X26460493Y18302691D01*
X26450000Y18199987D01*
X26450000Y17750000D01*
X26000000Y17750000D01*
X26000000Y20646380D01*
X26019685Y20713419D01*
X26072489Y20759174D01*
X26141647Y20769118D01*
X26195121Y20747956D01*
X26307266Y20669432D01*
X26513504Y20573261D01*
X26513509Y20573260D01*
X26513511Y20573259D01*
X26529063Y20569092D01*
X26733308Y20514365D01*
X26895230Y20500199D01*
X26959998Y20494532D01*
X26960000Y20494532D01*
X26960002Y20494532D01*
X27016672Y20499491D01*
X27186692Y20514365D01*
X27406496Y20573261D01*
X27612734Y20669432D01*
X27799139Y20799953D01*
X27960047Y20960861D01*
X28090568Y21147266D01*
X28117895Y21205871D01*
X28164064Y21258305D01*
X28231257Y21277458D01*
X28298139Y21257243D01*
X28342657Y21205867D01*
X28369865Y21147518D01*
X28500342Y20961180D01*
X28661179Y20800343D01*
X28847517Y20669866D01*
X29053673Y20573735D01*
X29053682Y20573731D01*
X29249999Y20521128D01*
X29250000Y20521129D01*
X29250000Y21387699D01*
X29269685Y21454738D01*
X29322489Y21500493D01*
X29391647Y21510437D01*
X29464237Y21500000D01*
X29464238Y21500000D01*
X29535762Y21500000D01*
X29535763Y21500000D01*
X29608353Y21510437D01*
X29677512Y21500493D01*
X29730315Y21454738D01*
X29750000Y21387699D01*
X29750000Y20521128D01*
X29946317Y20573731D01*
X29946326Y20573735D01*
X30152482Y20669866D01*
X30338820Y20800343D01*
X30499657Y20961180D01*
X30630134Y21147518D01*
X30726265Y21353674D01*
X30726269Y21353683D01*
X30785139Y21573390D01*
X30785141Y21573401D01*
X30800000Y21743237D01*
X30800000Y21750000D01*
X30113347Y21750000D01*
X30046308Y21769685D01*
X30000553Y21822489D01*
X29990609Y21891647D01*
X29994369Y21908933D01*
X29996143Y21914978D01*
X30000000Y21928111D01*
X30000000Y22071889D01*
X29994368Y22091067D01*
X29994370Y22160936D01*
X30032145Y22219714D01*
X30095701Y22248738D01*
X30113347Y22250000D01*
X30800000Y22250000D01*
X30800000Y22256763D01*
X30785141Y22426600D01*
X30785139Y22426611D01*
X30726269Y22646318D01*
X30726265Y22646327D01*
X30630134Y22852483D01*
X30499657Y23038821D01*
X30338820Y23199658D01*
X30152482Y23330135D01*
X29946326Y23426266D01*
X29946317Y23426270D01*
X29920452Y23433200D01*
X29860791Y23469565D01*
X29830262Y23532412D01*
X29838557Y23601788D01*
X29883042Y23655665D01*
X29885924Y23657558D01*
X29893624Y23662463D01*
X29898308Y23665168D01*
X29938766Y23686229D01*
X30231748Y23838745D01*
X30236616Y23841015D01*
X30583934Y23984878D01*
X30588980Y23986714D01*
X30947509Y24099757D01*
X30952696Y24101147D01*
X31319702Y24182508D01*
X31324999Y24183443D01*
X31697705Y24232509D01*
X31703058Y24232978D01*
X31972078Y24244722D01*
X32081532Y24249500D01*
X32160198Y24249500D01*
X36842150Y24249500D01*
X36921031Y24249500D01*
X37286684Y24235132D01*
X37291469Y24234755D01*
X37652475Y24192025D01*
X37657238Y24191271D01*
X38013764Y24120352D01*
X38018464Y24119223D01*
X38368308Y24020556D01*
X38372920Y24019058D01*
X38465593Y23984868D01*
X38713931Y23893250D01*
X38718430Y23891386D01*
X39048516Y23739214D01*
X39052842Y23737010D01*
X39369993Y23559396D01*
X39374109Y23556874D01*
X39394700Y23543115D01*
X39676331Y23354935D01*
X39680269Y23352075D01*
X39965719Y23127043D01*
X39969403Y23123896D01*
X40108950Y22994902D01*
X40233335Y22879922D01*
X40238102Y22875516D01*
X40238291Y22875341D01*
X41928580Y21185052D01*
X41943905Y21166405D01*
X42009161Y21069036D01*
X42030132Y21002388D01*
X42011741Y20934982D01*
X42009161Y20930968D01*
X41943900Y20833592D01*
X41928575Y20814945D01*
X38281399Y17167769D01*
X38280456Y17166770D01*
X38156769Y17043084D01*
X37867116Y16708815D01*
X37867117Y16708815D01*
X37602052Y16354737D01*
X37503225Y16200962D01*
X37362927Y15982658D01*
X37362926Y15982656D01*
X37362926Y15982657D01*
X37150957Y15594474D01*
X37150953Y15594465D01*
X36967212Y15192138D01*
X36967209Y15192132D01*
X36967208Y15192128D01*
X36812642Y14777732D01*
X36688027Y14353347D01*
X36594007Y13921160D01*
X36531058Y13483366D01*
X36499501Y13042192D01*
X36499500Y12821042D01*
X36499499Y12738422D01*
X36499500Y12738406D01*
X36499500Y7477600D01*
X36482835Y7415510D01*
X35985922Y6556494D01*
X35985103Y6554531D01*
X35976227Y6537236D01*
X35965186Y6519335D01*
X35945874Y6461060D01*
X35944235Y6456673D01*
X35935866Y6436631D01*
X35935863Y6436623D01*
X35934290Y6430867D01*
X35931282Y6417868D01*
X35929731Y6412343D01*
X35910001Y6352798D01*
X35899500Y6250017D01*
X35899500Y4649999D01*
X35899501Y4649982D01*
X35910000Y4547204D01*
X35910001Y4547201D01*
X35953729Y4415241D01*
X35965186Y4380666D01*
X36057288Y4231344D01*
X36181344Y4107288D01*
X36330666Y4015186D01*
X36497203Y3960001D01*
X36599991Y3949500D01*
X37900008Y3949501D01*
X38002797Y3960001D01*
X38169334Y4015186D01*
X38318656Y4107288D01*
X38442712Y4231344D01*
X38534814Y4380666D01*
X38534814Y4380667D01*
X38538448Y4386558D01*
X38590396Y4433283D01*
X38659358Y4444506D01*
X38723441Y4416663D01*
X38731668Y4409144D01*
X38878921Y4261892D01*
X39072421Y4126400D01*
X39286507Y4026571D01*
X39286516Y4026567D01*
X39500000Y3969366D01*
X39500000Y4837699D01*
X39519685Y4904738D01*
X39572489Y4950493D01*
X39641647Y4960437D01*
X39714237Y4950000D01*
X39714238Y4950000D01*
X39785762Y4950000D01*
X39785763Y4950000D01*
X39858353Y4960437D01*
X39927512Y4950493D01*
X39980315Y4904738D01*
X40000000Y4837699D01*
X40000000Y3969367D01*
X40213483Y4026567D01*
X40213492Y4026571D01*
X40427577Y4126400D01*
X40427579Y4126401D01*
X40621073Y4261887D01*
X40621079Y4261892D01*
X40788108Y4428921D01*
X40788113Y4428927D01*
X40923599Y4622421D01*
X40923600Y4622423D01*
X41023429Y4836508D01*
X41023433Y4836517D01*
X41084567Y5064674D01*
X41084569Y5064685D01*
X41096407Y5200000D01*
X40363347Y5200000D01*
X40296308Y5219685D01*
X40250553Y5272489D01*
X40240609Y5341647D01*
X40244369Y5358933D01*
X40250000Y5378112D01*
X40250000Y5521889D01*
X40244369Y5541067D01*
X40244370Y5610936D01*
X40282145Y5669714D01*
X40345701Y5698738D01*
X40363347Y5700000D01*
X41096407Y5700000D01*
X41096407Y5700001D01*
X41084569Y5835316D01*
X41084567Y5835327D01*
X41023433Y6063484D01*
X41023429Y6063493D01*
X40923600Y6277578D01*
X40923599Y6277580D01*
X40788113Y6471074D01*
X40788108Y6471080D01*
X40621082Y6638106D01*
X40427578Y6773601D01*
X40213492Y6873430D01*
X40213486Y6873433D01*
X40000000Y6930636D01*
X40000000Y6062302D01*
X39980315Y5995263D01*
X39927511Y5949508D01*
X39858355Y5939564D01*
X39785766Y5950000D01*
X39785763Y5950000D01*
X39714237Y5950000D01*
X39714233Y5950000D01*
X39641645Y5939564D01*
X39572487Y5949508D01*
X39519684Y5995264D01*
X39500000Y6062302D01*
X39500000Y6930636D01*
X39499999Y6930636D01*
X39286513Y6873433D01*
X39286507Y6873430D01*
X39072422Y6773601D01*
X39072420Y6773600D01*
X38878926Y6638114D01*
X38731668Y6490856D01*
X38670345Y6457372D01*
X38600653Y6462356D01*
X38544720Y6504228D01*
X38538447Y6513443D01*
X38523719Y6537322D01*
X38516052Y6552524D01*
X38516017Y6552506D01*
X38514788Y6555029D01*
X38514177Y6556242D01*
X38514077Y6556491D01*
X38017165Y7415510D01*
X38000500Y7477600D01*
X38000500Y12821042D01*
X38000499Y12821043D01*
X38014868Y13186684D01*
X38015244Y13191467D01*
X38057974Y13552460D01*
X38058735Y13557259D01*
X38129651Y13913765D01*
X38130776Y13918448D01*
X38229451Y14268315D01*
X38230940Y14272900D01*
X38356766Y14613957D01*
X38358601Y14618385D01*
X38510794Y14948512D01*
X38512986Y14952813D01*
X38690601Y15269960D01*
X38693140Y15274101D01*
X38794906Y15426403D01*
X38895081Y15576322D01*
X38897937Y15580252D01*
X39122966Y15865694D01*
X39126115Y15869382D01*
X39374499Y16138075D01*
X39374498Y16138076D01*
X39375174Y16138808D01*
X39430248Y16193880D01*
X39430248Y16193881D01*
X39437303Y16200935D01*
X39437320Y16200956D01*
X42985553Y19749188D01*
X43007380Y19766573D01*
X43391711Y20007421D01*
X43446331Y20025838D01*
X43502196Y20030914D01*
X43664606Y20081522D01*
X43810185Y20169528D01*
X43912320Y20271664D01*
X43973641Y20305147D01*
X44043333Y20300163D01*
X44087679Y20271664D01*
X44189815Y20169528D01*
X44335394Y20081522D01*
X44497804Y20030914D01*
X44568384Y20024500D01*
X44568387Y20024500D01*
X45081613Y20024500D01*
X45081616Y20024500D01*
X45152196Y20030914D01*
X45314606Y20081522D01*
X45419163Y20144730D01*
X45443905Y20156185D01*
X45657352Y20227715D01*
X45719604Y20232016D01*
X46248178Y20132909D01*
X46405354Y20099500D01*
X46433950Y20099500D01*
X46439758Y20099227D01*
X46440972Y20099113D01*
X46440983Y20099112D01*
X46440994Y20099113D01*
X46440996Y20099112D01*
X46512384Y20099500D01*
X46594644Y20099500D01*
X46594646Y20099500D01*
X46779803Y20138856D01*
X46952730Y20215849D01*
X46952731Y20215851D01*
X46958359Y20219098D01*
X46959017Y20217958D01*
X47018164Y20239065D01*
X47086220Y20223245D01*
X47130791Y20180366D01*
X47207288Y20056344D01*
X47331344Y19932288D01*
X47480666Y19840186D01*
X47647203Y19785001D01*
X47749991Y19774500D01*
X48350008Y19774501D01*
X48350016Y19774502D01*
X48350019Y19774502D01*
X48406302Y19780252D01*
X48452797Y19785001D01*
X48619334Y19840186D01*
X48768656Y19932288D01*
X48892712Y20056344D01*
X48894461Y20059181D01*
X48896169Y20060717D01*
X48897193Y20062011D01*
X48897414Y20061837D01*
X48946406Y20105904D01*
X49015368Y20117128D01*
X49079451Y20089287D01*
X49105537Y20059183D01*
X49107288Y20056344D01*
X49231344Y19932288D01*
X49380666Y19840186D01*
X49547203Y19785001D01*
X49649991Y19774500D01*
X50250008Y19774501D01*
X50250016Y19774502D01*
X50250019Y19774502D01*
X50306302Y19780252D01*
X50352797Y19785001D01*
X50519334Y19840186D01*
X50668656Y19932288D01*
X50792712Y20056344D01*
X50819983Y20100558D01*
X50870501Y20146586D01*
X50889317Y20155902D01*
X50958129Y20168004D01*
X50967183Y20166651D01*
X51147137Y20132909D01*
X51304313Y20099500D01*
X51332909Y20099500D01*
X51338717Y20099227D01*
X51339931Y20099113D01*
X51339942Y20099112D01*
X51339953Y20099113D01*
X51339955Y20099112D01*
X51411343Y20099500D01*
X51493603Y20099500D01*
X51493605Y20099500D01*
X51678762Y20138856D01*
X51851689Y20215849D01*
X52004830Y20327112D01*
X52131492Y20467784D01*
X52226138Y20631716D01*
X52284633Y20811744D01*
X52304419Y21000000D01*
X52284633Y21188256D01*
X52226138Y21368284D01*
X52131492Y21532216D01*
X52004830Y21672888D01*
X52004829Y21672889D01*
X51851693Y21784149D01*
X51851688Y21784152D01*
X51678766Y21861143D01*
X51678761Y21861145D01*
X51498568Y21899445D01*
X51493605Y21900500D01*
X51304313Y21900500D01*
X51178609Y21873782D01*
X51147183Y21867102D01*
X50967184Y21833353D01*
X50897666Y21840346D01*
X50889316Y21844102D01*
X50870503Y21853416D01*
X50819982Y21899445D01*
X50792712Y21943656D01*
X50668657Y22067711D01*
X50668656Y22067711D01*
X50668656Y22067712D01*
X50519334Y22159814D01*
X50352797Y22214999D01*
X50352795Y22215000D01*
X50250010Y22225500D01*
X49649998Y22225500D01*
X49649980Y22225499D01*
X49547203Y22215000D01*
X49547200Y22214999D01*
X49380668Y22159815D01*
X49380663Y22159813D01*
X49231342Y22067711D01*
X49107285Y21943654D01*
X49105537Y21940818D01*
X49103829Y21939283D01*
X49102807Y21937989D01*
X49102585Y21938164D01*
X49053589Y21894095D01*
X48984626Y21882874D01*
X48920544Y21910718D01*
X48894463Y21940818D01*
X48892714Y21943654D01*
X48768657Y22067711D01*
X48768656Y22067711D01*
X48768656Y22067712D01*
X48619334Y22159814D01*
X48452797Y22214999D01*
X48452795Y22215000D01*
X48350016Y22225500D01*
X48350009Y22225500D01*
X48178761Y22225500D01*
X48127718Y22236493D01*
X47687207Y22435464D01*
X47650569Y22460790D01*
X47638907Y22472452D01*
X47638906Y22472453D01*
X47638901Y22472458D01*
X47409999Y22660316D01*
X47163785Y22824832D01*
X46902631Y22964423D01*
X46895946Y22967192D01*
X46629054Y23077745D01*
X46345671Y23163709D01*
X46345665Y23163710D01*
X46055260Y23221474D01*
X46055243Y23221477D01*
X45832395Y23243425D01*
X45760560Y23250500D01*
X45760557Y23250500D01*
X45663870Y23250500D01*
X45663843Y23250508D01*
X45612500Y23250508D01*
X45464440Y23250508D01*
X45398003Y23243965D01*
X45169755Y23221485D01*
X45169742Y23221483D01*
X44879319Y23163713D01*
X44879314Y23163712D01*
X44879304Y23163709D01*
X44595941Y23077752D01*
X44322371Y22964433D01*
X44322356Y22964426D01*
X44061221Y22824846D01*
X44061203Y22824835D01*
X43815004Y22660329D01*
X43815001Y22660326D01*
X43814996Y22660323D01*
X43814996Y22660322D01*
X43765847Y22619986D01*
X43586082Y22472454D01*
X43482356Y22368724D01*
X43364449Y22250820D01*
X43342615Y22233429D01*
X43240844Y22169652D01*
X43173585Y22150733D01*
X43109152Y22169652D01*
X43007384Y22233427D01*
X42985549Y22250819D01*
X41267439Y23968929D01*
X41267151Y23969201D01*
X41143095Y24093258D01*
X40808829Y24382900D01*
X40808829Y24382901D01*
X40454741Y24647967D01*
X40454742Y24647966D01*
X40231204Y24791625D01*
X40082661Y24887087D01*
X39975608Y24945543D01*
X39694463Y25099061D01*
X39292140Y25282796D01*
X39292141Y25282796D01*
X39292138Y25282797D01*
X38877727Y25437365D01*
X38453346Y25561976D01*
X38453343Y25561977D01*
X38021158Y25655995D01*
X37583365Y25718943D01*
X37142191Y25750499D01*
X37008758Y25750500D01*
X37008757Y25750500D01*
X36921041Y25750500D01*
X36842160Y25750501D01*
X36842159Y25750501D01*
X36839136Y25750501D01*
X36839117Y25750500D01*
X32036140Y25750500D01*
X32035837Y25750492D01*
X31871610Y25750492D01*
X31453252Y25720572D01*
X31453253Y25720572D01*
X31038096Y25660883D01*
X30886001Y25627797D01*
X30628257Y25571729D01*
X30225835Y25453569D01*
X30225823Y25453565D01*
X30225821Y25453564D01*
X29832841Y25306991D01*
X29832834Y25306988D01*
X29451321Y25132758D01*
X29083199Y24931748D01*
X28730358Y24704992D01*
X28730359Y24704992D01*
X28730354Y24704989D01*
X28654180Y24647966D01*
X28394581Y24453635D01*
X28394581Y24453634D01*
X28373162Y24435074D01*
X28077606Y24178973D01*
X28077602Y24178969D01*
X28077602Y24178970D01*
X27994456Y24095824D01*
X27749504Y23850873D01*
X27702903Y23821557D01*
X27600356Y23785551D01*
X27530581Y23781915D01*
X27469916Y23816579D01*
X27437623Y23878538D01*
X27443954Y23948120D01*
X27471593Y23990228D01*
X29294045Y25812681D01*
X29294060Y25812693D01*
X29301117Y25819751D01*
X29301120Y25819752D01*
X29356897Y25875530D01*
X29625606Y26123928D01*
X29629261Y26127050D01*
X29914722Y26352095D01*
X29918656Y26354952D01*
X30220878Y26556894D01*
X30225019Y26559433D01*
X30542169Y26737049D01*
X30546470Y26739241D01*
X30876600Y26891436D01*
X30881050Y26893279D01*
X31222088Y27019098D01*
X31226673Y27020587D01*
X31576537Y27119262D01*
X31581226Y27120388D01*
X31937761Y27191311D01*
X31942512Y27192063D01*
X32303529Y27234795D01*
X32308310Y27235171D01*
X32662622Y27249095D01*
X32672951Y27249500D01*
X32673968Y27249500D01*
X42257409Y27249500D01*
X42296809Y27243074D01*
X42408437Y27205666D01*
X42556092Y27156185D01*
X42580830Y27144734D01*
X42685394Y27081522D01*
X42847804Y27030914D01*
X42903665Y27025838D01*
X42958288Y27007420D01*
X43342613Y26766576D01*
X43364448Y26749184D01*
X43513454Y26600178D01*
X43513636Y26600006D01*
X43586096Y26527545D01*
X43586108Y26527534D01*
X43664142Y26463493D01*
X43815000Y26339685D01*
X43815004Y26339683D01*
X43815008Y26339679D01*
X43949220Y26250001D01*
X44061214Y26175168D01*
X44322368Y26035577D01*
X44468610Y25975001D01*
X44595941Y25922258D01*
X44595945Y25922257D01*
X44595947Y25922256D01*
X44879316Y25836296D01*
X45169746Y25778525D01*
X45464440Y25749500D01*
X45533619Y25749500D01*
X45561132Y25749500D01*
X45561152Y25749494D01*
X45612500Y25749494D01*
X45760557Y25749494D01*
X45760560Y25749494D01*
X46055255Y25778519D01*
X46345686Y25836290D01*
X46629055Y25922250D01*
X46629070Y25922256D01*
X46667052Y25937989D01*
X46902634Y26035571D01*
X47163789Y26175163D01*
X47410003Y26339680D01*
X47638906Y26527539D01*
X47650587Y26539222D01*
X47687222Y26564547D01*
X48127714Y26763508D01*
X48178758Y26774501D01*
X48350002Y26774501D01*
X48350008Y26774501D01*
X48452797Y26785001D01*
X48619334Y26840186D01*
X48768656Y26932288D01*
X48892712Y27056344D01*
X48894461Y27059181D01*
X48896169Y27060717D01*
X48897193Y27062011D01*
X48897414Y27061837D01*
X48946406Y27105904D01*
X49015368Y27117128D01*
X49079451Y27089287D01*
X49105537Y27059183D01*
X49107288Y27056344D01*
X49231344Y26932288D01*
X49380666Y26840186D01*
X49547203Y26785001D01*
X49649991Y26774500D01*
X50250008Y26774501D01*
X50250016Y26774502D01*
X50250019Y26774502D01*
X50306302Y26780252D01*
X50352797Y26785001D01*
X50519334Y26840186D01*
X50668656Y26932288D01*
X50792712Y27056344D01*
X50819983Y27100558D01*
X50870504Y27146587D01*
X50881087Y27151826D01*
X50895813Y27159117D01*
X50917073Y27169642D01*
X50985887Y27181745D01*
X50994939Y27180392D01*
X51248178Y27132909D01*
X51405354Y27099500D01*
X51433950Y27099500D01*
X51439758Y27099227D01*
X51440972Y27099113D01*
X51440983Y27099112D01*
X51440994Y27099113D01*
X51440996Y27099112D01*
X51512384Y27099500D01*
X51594644Y27099500D01*
X51594646Y27099500D01*
X51779803Y27138856D01*
X51952730Y27215849D01*
X52105871Y27327112D01*
X52232533Y27467784D01*
X52327179Y27631716D01*
X52385674Y27811744D01*
X52405460Y28000000D01*
X52385674Y28188256D01*
X52327179Y28368284D01*
X52232533Y28532216D01*
X52105871Y28672888D01*
X52105870Y28672889D01*
X51952734Y28784149D01*
X51952729Y28784152D01*
X51779807Y28861143D01*
X51779802Y28861145D01*
X51599609Y28899445D01*
X51594646Y28900500D01*
X51405354Y28900500D01*
X51299526Y28878006D01*
X51248224Y28867102D01*
X50994939Y28819612D01*
X50925421Y28826605D01*
X50917071Y28830361D01*
X50870503Y28853416D01*
X50819982Y28899445D01*
X50792712Y28943656D01*
X50668657Y29067711D01*
X50668656Y29067711D01*
X50668656Y29067712D01*
X50519334Y29159814D01*
X50352797Y29214999D01*
X50352795Y29215000D01*
X50250010Y29225500D01*
X49649998Y29225500D01*
X49649980Y29225499D01*
X49547203Y29215000D01*
X49547200Y29214999D01*
X49380668Y29159815D01*
X49380663Y29159813D01*
X49231342Y29067711D01*
X49107285Y28943654D01*
X49105537Y28940818D01*
X49103829Y28939283D01*
X49102807Y28937989D01*
X49102585Y28938164D01*
X49053589Y28894095D01*
X48984626Y28882874D01*
X48920544Y28910718D01*
X48894463Y28940818D01*
X48892714Y28943654D01*
X48768657Y29067711D01*
X48768656Y29067711D01*
X48768656Y29067712D01*
X48619334Y29159814D01*
X48452797Y29214999D01*
X48452795Y29215000D01*
X48350016Y29225500D01*
X48098761Y29225500D01*
X48031722Y29245185D01*
X47985967Y29297989D01*
X47976023Y29367147D01*
X48005048Y29430703D01*
X48017895Y29443504D01*
X48380344Y29755229D01*
X48444006Y29784017D01*
X48448557Y29784568D01*
X48452797Y29785001D01*
X48619334Y29840186D01*
X48768656Y29932288D01*
X48892712Y30056344D01*
X48894461Y30059181D01*
X48896169Y30060717D01*
X48897193Y30062011D01*
X48897414Y30061837D01*
X48946406Y30105904D01*
X49015368Y30117128D01*
X49079451Y30089287D01*
X49105537Y30059183D01*
X49107288Y30056344D01*
X49231344Y29932288D01*
X49380666Y29840186D01*
X49547203Y29785001D01*
X49649991Y29774500D01*
X50250008Y29774501D01*
X50250016Y29774502D01*
X50250019Y29774502D01*
X50309870Y29780616D01*
X50352797Y29785001D01*
X50519334Y29840186D01*
X50668656Y29932288D01*
X50792712Y30056344D01*
X50819983Y30100558D01*
X50870504Y30146587D01*
X50881087Y30151826D01*
X50917072Y30169642D01*
X50985887Y30181745D01*
X50994939Y30180392D01*
X51248178Y30132909D01*
X51405354Y30099500D01*
X51433950Y30099500D01*
X51439758Y30099227D01*
X51440972Y30099113D01*
X51440983Y30099112D01*
X51440994Y30099113D01*
X51440996Y30099112D01*
X51512384Y30099500D01*
X51594644Y30099500D01*
X51594646Y30099500D01*
X51779803Y30138856D01*
X51952730Y30215849D01*
X52105871Y30327112D01*
X52232533Y30467784D01*
X52327179Y30631716D01*
X52385674Y30811744D01*
X52405460Y31000000D01*
X52385674Y31188256D01*
X52327179Y31368284D01*
X52232533Y31532216D01*
X52105871Y31672888D01*
X52105870Y31672889D01*
X51952734Y31784149D01*
X51952729Y31784152D01*
X51779807Y31861143D01*
X51779802Y31861145D01*
X51599609Y31899445D01*
X51594646Y31900500D01*
X51405354Y31900500D01*
X51299526Y31878006D01*
X51248224Y31867102D01*
X50994939Y31819612D01*
X50925421Y31826605D01*
X50917071Y31830361D01*
X50870503Y31853416D01*
X50819982Y31899445D01*
X50792712Y31943656D01*
X50668657Y32067711D01*
X50668656Y32067711D01*
X50668656Y32067712D01*
X50519334Y32159814D01*
X50352797Y32214999D01*
X50352795Y32215000D01*
X50250010Y32225500D01*
X49649998Y32225500D01*
X49649980Y32225499D01*
X49547203Y32215000D01*
X49547200Y32214999D01*
X49380668Y32159815D01*
X49380663Y32159813D01*
X49231342Y32067711D01*
X49107285Y31943654D01*
X49105537Y31940818D01*
X49103829Y31939283D01*
X49102807Y31937989D01*
X49102585Y31938164D01*
X49053589Y31894095D01*
X48984626Y31882874D01*
X48920544Y31910718D01*
X48894463Y31940818D01*
X48892714Y31943654D01*
X48768657Y32067711D01*
X48768656Y32067711D01*
X48768656Y32067712D01*
X48619334Y32159814D01*
X48452797Y32214999D01*
X48452795Y32215000D01*
X48350016Y32225500D01*
X48098761Y32225500D01*
X48031722Y32245185D01*
X47985967Y32297989D01*
X47976023Y32367147D01*
X48005048Y32430703D01*
X48017895Y32443504D01*
X48380344Y32755229D01*
X48444006Y32784017D01*
X48448557Y32784568D01*
X48452797Y32785001D01*
X48619334Y32840186D01*
X48768656Y32932288D01*
X48892712Y33056344D01*
X48894461Y33059181D01*
X48896169Y33060717D01*
X48897193Y33062011D01*
X48897414Y33061837D01*
X48946406Y33105904D01*
X49015368Y33117128D01*
X49079451Y33089287D01*
X49105537Y33059183D01*
X49107288Y33056344D01*
X49231344Y32932288D01*
X49380666Y32840186D01*
X49547203Y32785001D01*
X49649991Y32774500D01*
X50250008Y32774501D01*
X50250016Y32774502D01*
X50250019Y32774502D01*
X50309870Y32780616D01*
X50352797Y32785001D01*
X50519334Y32840186D01*
X50668656Y32932288D01*
X50792712Y33056344D01*
X50819983Y33100558D01*
X50870504Y33146587D01*
X50881087Y33151826D01*
X50895813Y33159117D01*
X50917073Y33169642D01*
X50985887Y33181745D01*
X50994939Y33180392D01*
X51248178Y33132909D01*
X51405354Y33099500D01*
X51433950Y33099500D01*
X51439758Y33099227D01*
X51440972Y33099113D01*
X51440983Y33099112D01*
X51440994Y33099113D01*
X51440996Y33099112D01*
X51512384Y33099500D01*
X51594644Y33099500D01*
X51594646Y33099500D01*
X51779803Y33138856D01*
X51952730Y33215849D01*
X52105871Y33327112D01*
X52232533Y33467784D01*
X52327179Y33631716D01*
X52385674Y33811744D01*
X52405460Y34000000D01*
X52385674Y34188256D01*
X52327179Y34368284D01*
X52232533Y34532216D01*
X52105871Y34672888D01*
X52105870Y34672889D01*
X51952734Y34784149D01*
X51952729Y34784152D01*
X51779807Y34861143D01*
X51779802Y34861145D01*
X51599609Y34899445D01*
X51594646Y34900500D01*
X51405354Y34900500D01*
X51299526Y34878006D01*
X51248224Y34867102D01*
X50994939Y34819612D01*
X50925421Y34826605D01*
X50917071Y34830361D01*
X50870503Y34853416D01*
X50819982Y34899445D01*
X50792712Y34943656D01*
X50668657Y35067711D01*
X50668656Y35067711D01*
X50668656Y35067712D01*
X50519334Y35159814D01*
X50352797Y35214999D01*
X50352795Y35215000D01*
X50250010Y35225500D01*
X49649998Y35225500D01*
X49649980Y35225499D01*
X49547203Y35215000D01*
X49547200Y35214999D01*
X49380668Y35159815D01*
X49380663Y35159813D01*
X49231342Y35067711D01*
X49107285Y34943654D01*
X49105537Y34940818D01*
X49103829Y34939283D01*
X49102807Y34937989D01*
X49102585Y34938164D01*
X49053589Y34894095D01*
X48984626Y34882874D01*
X48920544Y34910718D01*
X48894463Y34940818D01*
X48892714Y34943654D01*
X48768657Y35067711D01*
X48768656Y35067711D01*
X48768656Y35067712D01*
X48619334Y35159814D01*
X48452797Y35214999D01*
X48452795Y35215000D01*
X48350016Y35225500D01*
X48091640Y35225500D01*
X48024601Y35245185D01*
X47978846Y35297989D01*
X47968902Y35367147D01*
X47997927Y35430703D01*
X48011090Y35442970D01*
X48010715Y35443402D01*
X48118482Y35537110D01*
X48385281Y35769103D01*
X48427635Y35793233D01*
X48569334Y35840186D01*
X48718656Y35932288D01*
X48842712Y36056344D01*
X48844461Y36059181D01*
X48846169Y36060717D01*
X48847193Y36062011D01*
X48847414Y36061837D01*
X48896406Y36105904D01*
X48965368Y36117128D01*
X49029451Y36089287D01*
X49055537Y36059183D01*
X49057288Y36056344D01*
X49181344Y35932288D01*
X49330666Y35840186D01*
X49497203Y35785001D01*
X49599991Y35774500D01*
X50200008Y35774501D01*
X50200016Y35774502D01*
X50200019Y35774502D01*
X50256302Y35780252D01*
X50302797Y35785001D01*
X50469334Y35840186D01*
X50618656Y35932288D01*
X50742712Y36056344D01*
X50769984Y36100560D01*
X50820500Y36146586D01*
X50880809Y36176443D01*
X50949619Y36188545D01*
X50958653Y36187195D01*
X51248178Y36132909D01*
X51405354Y36099500D01*
X51433950Y36099500D01*
X51439758Y36099227D01*
X51440972Y36099113D01*
X51440983Y36099112D01*
X51440994Y36099113D01*
X51440996Y36099112D01*
X51512384Y36099500D01*
X51594644Y36099500D01*
X51594646Y36099500D01*
X51779803Y36138856D01*
X51952730Y36215849D01*
X52105871Y36327112D01*
X52232533Y36467784D01*
X52327179Y36631716D01*
X52385674Y36811744D01*
X52405460Y37000000D01*
X52385674Y37188256D01*
X52327179Y37368284D01*
X52232533Y37532216D01*
X52105871Y37672888D01*
X52105870Y37672889D01*
X51952734Y37784149D01*
X51952729Y37784152D01*
X51779807Y37861143D01*
X51779800Y37861145D01*
X51697161Y37878710D01*
X51635679Y37911902D01*
X51601902Y37973065D01*
X51606554Y38042779D01*
X51648158Y38098912D01*
X51697161Y38121290D01*
X51703201Y38122574D01*
X51779803Y38138856D01*
X51952730Y38215849D01*
X52105871Y38327112D01*
X52232533Y38467784D01*
X52327179Y38631716D01*
X52385674Y38811744D01*
X52405460Y39000000D01*
X52405460Y39000003D01*
X52405460Y39006498D01*
X52407446Y39006498D01*
X52418316Y39065959D01*
X52466045Y39116985D01*
X52533784Y39134107D01*
X52589655Y39118389D01*
X52694993Y39059396D01*
X52699109Y39056874D01*
X52774501Y39006498D01*
X53001331Y38854935D01*
X53005269Y38852075D01*
X53290719Y38627043D01*
X53294403Y38623896D01*
X53463284Y38467786D01*
X53555097Y38382915D01*
X53563102Y38375516D01*
X53563290Y38375341D01*
X54035955Y37902677D01*
X54050522Y37888110D01*
X54298901Y37619414D01*
X54302051Y37615726D01*
X54442634Y37437397D01*
X54527079Y37330279D01*
X54529941Y37326339D01*
X54731876Y37024123D01*
X54734407Y37019993D01*
X54912010Y36702862D01*
X54914221Y36698522D01*
X55066394Y36368436D01*
X55068258Y36363937D01*
X55194065Y36022926D01*
X55195569Y36018297D01*
X55221938Y35924803D01*
X55294228Y35668484D01*
X55295365Y35663749D01*
X55366276Y35307262D01*
X55367037Y35302458D01*
X55409762Y34941495D01*
X55410142Y34936663D01*
X55420508Y34672888D01*
X55424500Y34571287D01*
X55424500Y25974164D01*
X55420584Y25943246D01*
X55302439Y25484376D01*
X55302438Y25484374D01*
X55297532Y25457131D01*
X55295705Y25449669D01*
X55280914Y25402198D01*
X55276866Y25357653D01*
X55256381Y25299841D01*
X54943899Y24833589D01*
X54928574Y24814943D01*
X54345162Y24231531D01*
X54343160Y24229528D01*
X54343127Y24229511D01*
X54343132Y24229506D01*
X54306813Y24193187D01*
X54159095Y24045468D01*
X54075952Y23948120D01*
X53887749Y23727764D01*
X53642166Y23389747D01*
X53642167Y23389747D01*
X53642164Y23389743D01*
X53556841Y23250508D01*
X53423864Y23033511D01*
X53423860Y23033504D01*
X53423858Y23033500D01*
X53282684Y22756430D01*
X53234175Y22661226D01*
X53074284Y22275213D01*
X52945178Y21877866D01*
X52945178Y21877865D01*
X52945175Y21877855D01*
X52872083Y21573401D01*
X52847640Y21471587D01*
X52782279Y21058913D01*
X52782279Y21058912D01*
X52751545Y20668384D01*
X52749500Y20642394D01*
X52749500Y20521211D01*
X52749500Y13532850D01*
X52749500Y13453969D01*
X52738996Y13186650D01*
X52735133Y13088349D01*
X52734751Y13083506D01*
X52692028Y12722552D01*
X52691266Y12717741D01*
X52620355Y12361255D01*
X52619218Y12356520D01*
X52520561Y12006711D01*
X52519056Y12002079D01*
X52393249Y11661069D01*
X52391385Y11656570D01*
X52239213Y11326484D01*
X52237002Y11322144D01*
X52059406Y11005026D01*
X52056868Y11000884D01*
X51854933Y10698668D01*
X51852071Y10694728D01*
X51627051Y10409290D01*
X51623888Y10405587D01*
X51375331Y10136701D01*
X48750047Y7511418D01*
X48710258Y7484721D01*
X47457393Y6960122D01*
X47409501Y6950500D01*
X47099999Y6950500D01*
X47099980Y6950499D01*
X46997203Y6940000D01*
X46997200Y6939999D01*
X46830668Y6884815D01*
X46830663Y6884813D01*
X46681342Y6792711D01*
X46557289Y6668658D01*
X46465187Y6519337D01*
X46465185Y6519332D01*
X46449196Y6471080D01*
X46410001Y6352797D01*
X46410001Y6352796D01*
X46410000Y6352796D01*
X46399500Y6250017D01*
X46399500Y4649999D01*
X46399501Y4649982D01*
X46410000Y4547204D01*
X46410001Y4547201D01*
X46453729Y4415241D01*
X46465186Y4380666D01*
X46557288Y4231344D01*
X46681344Y4107288D01*
X46830666Y4015186D01*
X46997203Y3960001D01*
X47099991Y3949500D01*
X48400008Y3949501D01*
X48502797Y3960001D01*
X48669334Y4015186D01*
X48818656Y4107288D01*
X48942712Y4231344D01*
X49034814Y4380666D01*
X49034814Y4380669D01*
X49038178Y4386121D01*
X49090126Y4432846D01*
X49159088Y4444069D01*
X49223170Y4416226D01*
X49231398Y4408706D01*
X49378599Y4261505D01*
X49460625Y4204070D01*
X49572165Y4125968D01*
X49572167Y4125967D01*
X49572170Y4125965D01*
X49786337Y4026097D01*
X49786343Y4026096D01*
X49786344Y4026095D01*
X49811551Y4019341D01*
X50014592Y3964937D01*
X50191034Y3949500D01*
X50249999Y3944341D01*
X50250000Y3944341D01*
X50250001Y3944341D01*
X50308966Y3949500D01*
X50485408Y3964937D01*
X50713663Y4026097D01*
X50927829Y4125965D01*
X51121401Y4261505D01*
X51288495Y4428599D01*
X51424035Y4622171D01*
X51523903Y4836337D01*
X51585063Y5064592D01*
X51600500Y5241034D01*
X51600500Y5658966D01*
X51585063Y5835408D01*
X51523903Y6063663D01*
X51424035Y6277829D01*
X51405105Y6304865D01*
X51288494Y6471403D01*
X51121402Y6638494D01*
X51121395Y6638499D01*
X50927834Y6774033D01*
X50927830Y6774035D01*
X50887777Y6792712D01*
X50713663Y6873903D01*
X50713659Y6873904D01*
X50713655Y6873906D01*
X50543822Y6919412D01*
X50484161Y6955777D01*
X50453632Y7018624D01*
X50461927Y7088000D01*
X50488231Y7126865D01*
X52467798Y9106431D01*
X52467801Y9106436D01*
X52468924Y9107558D01*
X52469173Y9107824D01*
X52593260Y9231909D01*
X52674504Y9325669D01*
X52882905Y9566178D01*
X53147967Y9920259D01*
X53387088Y10292340D01*
X53599060Y10680537D01*
X53782795Y11082860D01*
X53814059Y11166679D01*
X53937365Y11497272D01*
X54061976Y11921654D01*
X54061977Y11921657D01*
X54155995Y12353841D01*
X54218943Y12791635D01*
X54250499Y13232809D01*
X54250500Y13453959D01*
X54250500Y13483366D01*
X54250501Y13532840D01*
X54250500Y13532845D01*
X54250500Y20433492D01*
X54264902Y20763397D01*
X54265371Y20768750D01*
X54308119Y21093461D01*
X54309057Y21098773D01*
X54379941Y21418510D01*
X54381333Y21423710D01*
X54479820Y21736075D01*
X54481656Y21741120D01*
X54607003Y22043735D01*
X54609266Y22048587D01*
X54760502Y22339109D01*
X54763198Y22343777D01*
X54864327Y22502518D01*
X54939167Y22619994D01*
X54942255Y22624404D01*
X55141639Y22884248D01*
X55145098Y22888369D01*
X55368115Y23131748D01*
X55368184Y23131816D01*
X55423961Y23187593D01*
X55423961Y23187594D01*
X55985554Y23749189D01*
X56007380Y23766574D01*
X56109154Y23830352D01*
X56176412Y23849270D01*
X56240843Y23830351D01*
X56342614Y23766575D01*
X56364450Y23749183D01*
X56405608Y23708025D01*
X56405628Y23708003D01*
X56427403Y23686229D01*
X56427415Y23686207D01*
X56570510Y23543116D01*
X56803996Y23351500D01*
X56804004Y23351494D01*
X57055150Y23183685D01*
X57189263Y23112001D01*
X57239106Y23063039D01*
X57254567Y22994902D01*
X57230736Y22929222D01*
X57189263Y22893286D01*
X57159616Y22877439D01*
X57061213Y22824841D01*
X57061203Y22824835D01*
X56815004Y22660329D01*
X56815001Y22660326D01*
X56814996Y22660323D01*
X56814996Y22660322D01*
X56765847Y22619986D01*
X56586082Y22472454D01*
X56482356Y22368724D01*
X56364449Y22250820D01*
X56342615Y22233429D01*
X55958285Y21992580D01*
X55903662Y21974163D01*
X55847804Y21969086D01*
X55757087Y21940818D01*
X55685393Y21918478D01*
X55539811Y21830470D01*
X55419530Y21710189D01*
X55331522Y21564607D01*
X55280913Y21402193D01*
X55276489Y21353504D01*
X55274500Y21331616D01*
X55274500Y20668384D01*
X55280914Y20597804D01*
X55289860Y20569094D01*
X55296656Y20547285D01*
X55301531Y20523911D01*
X55301837Y20521128D01*
X55302440Y20515624D01*
X55420583Y20056762D01*
X55424499Y20025844D01*
X55424500Y8217573D01*
X55424500Y8190057D01*
X55424498Y8190051D01*
X55424498Y7969740D01*
X55457618Y7633460D01*
X55457621Y7633443D01*
X55523542Y7302038D01*
X55523543Y7302032D01*
X55621637Y6978661D01*
X55750951Y6666473D01*
X55750953Y6666468D01*
X55910234Y6368474D01*
X55910245Y6368456D01*
X56097970Y6087507D01*
X56097980Y6087493D01*
X56312350Y5826282D01*
X56363180Y5775453D01*
X56396666Y5714130D01*
X56399500Y5687771D01*
X56399500Y4649999D01*
X56399501Y4649981D01*
X56410000Y4547204D01*
X56410001Y4547201D01*
X56453729Y4415241D01*
X56465186Y4380666D01*
X56557288Y4231344D01*
X56681344Y4107288D01*
X56830666Y4015186D01*
X56997203Y3960001D01*
X57099991Y3949500D01*
X58400008Y3949501D01*
X58502797Y3960001D01*
X58669334Y4015186D01*
X58818656Y4107288D01*
X58942712Y4231344D01*
X59034814Y4380666D01*
X59034814Y4380669D01*
X59038178Y4386121D01*
X59090126Y4432846D01*
X59159088Y4444069D01*
X59223170Y4416226D01*
X59231398Y4408706D01*
X59378599Y4261505D01*
X59460625Y4204070D01*
X59572165Y4125968D01*
X59572167Y4125967D01*
X59572170Y4125965D01*
X59786337Y4026097D01*
X59786343Y4026096D01*
X59786344Y4026095D01*
X59811551Y4019341D01*
X60014592Y3964937D01*
X60191034Y3949500D01*
X60249999Y3944341D01*
X60250000Y3944341D01*
X60250001Y3944341D01*
X60308966Y3949500D01*
X60485408Y3964937D01*
X60713663Y4026097D01*
X60927829Y4125965D01*
X61121401Y4261505D01*
X61288495Y4428599D01*
X61424035Y4622171D01*
X61523903Y4836337D01*
X61585063Y5064592D01*
X61600500Y5241034D01*
X61600500Y5658966D01*
X61585063Y5835408D01*
X61523903Y6063663D01*
X61424035Y6277829D01*
X61405105Y6304865D01*
X61288494Y6471403D01*
X61121402Y6638494D01*
X61121395Y6638499D01*
X60927834Y6774033D01*
X60927830Y6774035D01*
X60887777Y6792712D01*
X60713663Y6873903D01*
X60713659Y6873904D01*
X60713655Y6873906D01*
X60485413Y6935062D01*
X60485403Y6935064D01*
X60250001Y6955659D01*
X60249999Y6955659D01*
X60014596Y6935064D01*
X60014586Y6935062D01*
X59786344Y6873906D01*
X59786335Y6873902D01*
X59572171Y6774036D01*
X59572169Y6774035D01*
X59378597Y6638495D01*
X59231398Y6491295D01*
X59170075Y6457810D01*
X59100383Y6462794D01*
X59044450Y6504666D01*
X59038178Y6513880D01*
X59011895Y6556491D01*
X58942712Y6668656D01*
X58818656Y6792712D01*
X58687786Y6873433D01*
X58669336Y6884813D01*
X58669331Y6884815D01*
X58626807Y6898906D01*
X58502797Y6939999D01*
X58502795Y6940000D01*
X58400016Y6950500D01*
X58400009Y6950500D01*
X57397844Y6950500D01*
X57330805Y6970185D01*
X57294742Y7005609D01*
X57286046Y7018624D01*
X57187425Y7166222D01*
X57183371Y7173243D01*
X57074835Y7393333D01*
X57071728Y7400833D01*
X57045669Y7477600D01*
X56992843Y7633217D01*
X56990749Y7641033D01*
X56942872Y7881728D01*
X56941814Y7889757D01*
X56925630Y8136673D01*
X56925500Y8140659D01*
X56925500Y10644868D01*
X73257580Y10644868D01*
X73277874Y10510232D01*
X73296684Y10385440D01*
X73296685Y10385438D01*
X73296686Y10385432D01*
X73374018Y10134729D01*
X73487847Y9898359D01*
X73487848Y9898358D01*
X73487850Y9898355D01*
X73487852Y9898351D01*
X73635647Y9681576D01*
X73814094Y9489254D01*
X73814098Y9489251D01*
X73814099Y9489250D01*
X74019223Y9325669D01*
X74246437Y9194487D01*
X74490664Y9098635D01*
X74746450Y9040253D01*
X74746456Y9040253D01*
X74746459Y9040252D01*
X74942580Y9025555D01*
X74942586Y9025555D01*
X75073580Y9025555D01*
X75269700Y9040252D01*
X75269702Y9040253D01*
X75269710Y9040253D01*
X75525496Y9098635D01*
X75769723Y9194487D01*
X75996937Y9325669D01*
X76202061Y9489250D01*
X76380513Y9681576D01*
X76528308Y9898351D01*
X76642143Y10134732D01*
X76719476Y10385440D01*
X76758580Y10644873D01*
X76758580Y10907237D01*
X76719476Y11166670D01*
X76642143Y11417378D01*
X76603668Y11497272D01*
X76528312Y11653752D01*
X76528311Y11653753D01*
X76528310Y11653754D01*
X76528308Y11653759D01*
X76380513Y11870534D01*
X76333077Y11921658D01*
X76202065Y12062857D01*
X76162613Y12094319D01*
X75996937Y12226441D01*
X75769723Y12357623D01*
X75525496Y12453475D01*
X75525491Y12453477D01*
X75525482Y12453479D01*
X75307898Y12503141D01*
X75269710Y12511857D01*
X75269709Y12511858D01*
X75269705Y12511858D01*
X75269700Y12511859D01*
X75073580Y12526555D01*
X75073574Y12526555D01*
X74942586Y12526555D01*
X74942580Y12526555D01*
X74746459Y12511859D01*
X74746454Y12511858D01*
X74490677Y12453479D01*
X74490658Y12453473D01*
X74246436Y12357623D01*
X74019223Y12226441D01*
X73814094Y12062857D01*
X73635647Y11870535D01*
X73487848Y11653753D01*
X73487847Y11653752D01*
X73374018Y11417382D01*
X73296686Y11166679D01*
X73296685Y11166674D01*
X73296684Y11166670D01*
X73281933Y11068808D01*
X73257580Y10907243D01*
X73257580Y10644868D01*
X56925500Y10644868D01*
X56925500Y20025844D01*
X56929416Y20056761D01*
X56935909Y20081981D01*
X56951804Y20143719D01*
X56987582Y20203731D01*
X57050127Y20234876D01*
X57119580Y20227262D01*
X57159569Y20200481D01*
X57190122Y20169928D01*
X57335604Y20081981D01*
X57335603Y20081981D01*
X57497894Y20031410D01*
X57497893Y20031410D01*
X57568408Y20025002D01*
X57568426Y20025001D01*
X57574999Y20025002D01*
X57575000Y20025002D01*
X57575000Y20750000D01*
X58075000Y20750000D01*
X58075000Y20025001D01*
X58081581Y20025001D01*
X58152102Y20031409D01*
X58152107Y20031410D01*
X58314396Y20081982D01*
X58459877Y20169928D01*
X58580072Y20290123D01*
X58668019Y20435605D01*
X58718590Y20597894D01*
X58725000Y20668428D01*
X58725000Y20750000D01*
X58075000Y20750000D01*
X57575000Y20750000D01*
X57575000Y21126000D01*
X57594685Y21193039D01*
X57647489Y21238794D01*
X57699000Y21250000D01*
X58724999Y21250000D01*
X58724998Y21331583D01*
X58718591Y21402103D01*
X58718590Y21402108D01*
X58665787Y21571559D01*
X58667319Y21572037D01*
X58658965Y21632459D01*
X58688333Y21695858D01*
X58747314Y21733314D01*
X58789708Y21737885D01*
X58795354Y21737516D01*
X58805915Y21736824D01*
X58813934Y21735768D01*
X59000066Y21698744D01*
X59007882Y21696650D01*
X59187573Y21635652D01*
X59195074Y21632545D01*
X59278901Y21591206D01*
X59365265Y21548615D01*
X59372289Y21544559D01*
X59530072Y21439131D01*
X59536494Y21434203D01*
X59573096Y21402103D01*
X59619427Y21361471D01*
X59644406Y21331353D01*
X60013483Y20707110D01*
X60032239Y20675388D01*
X60049500Y20612280D01*
X60049500Y20475000D01*
X60049501Y20474981D01*
X60060000Y20372204D01*
X60060001Y20372201D01*
X60115185Y20205669D01*
X60115187Y20205664D01*
X60118384Y20200481D01*
X60207288Y20056344D01*
X60331344Y19932288D01*
X60480666Y19840186D01*
X60647203Y19785001D01*
X60749991Y19774500D01*
X60919179Y19774501D01*
X60970997Y19763155D01*
X61422103Y19555643D01*
X61457957Y19530675D01*
X61685269Y19303363D01*
X61685353Y19303284D01*
X61767585Y19221052D01*
X61767590Y19221048D01*
X61767589Y19221048D01*
X62015615Y19012928D01*
X62015615Y19012929D01*
X62015616Y19012928D01*
X62077903Y18969314D01*
X62280838Y18827217D01*
X62280842Y18827215D01*
X62280843Y18827214D01*
X62427890Y18742316D01*
X62561248Y18665322D01*
X62561249Y18665321D01*
X62854681Y18528490D01*
X63117042Y18432998D01*
X63158947Y18417746D01*
X63471696Y18333944D01*
X63790559Y18277720D01*
X64113109Y18249500D01*
X64838325Y18249500D01*
X64838429Y18249503D01*
X64930909Y18249503D01*
X64930910Y18249504D01*
X65071084Y18265297D01*
X65205189Y18280406D01*
X65205194Y18280407D01*
X65205204Y18280408D01*
X65474316Y18341830D01*
X65734859Y18432997D01*
X65983556Y18552763D01*
X66217280Y18699621D01*
X66433091Y18871724D01*
X66474905Y18913538D01*
X66474907Y18913539D01*
X66494363Y18932995D01*
X66494371Y18933000D01*
X66530685Y18969315D01*
X66530686Y18969314D01*
X66628278Y19066907D01*
X66800381Y19282719D01*
X66947240Y19516443D01*
X67067006Y19765140D01*
X67158173Y20025683D01*
X67219595Y20294796D01*
X67220762Y20305147D01*
X67239896Y20474981D01*
X67250500Y20569094D01*
X67250500Y20707110D01*
X67250500Y20785991D01*
X67250500Y20785992D01*
X67250500Y22667157D01*
X67250501Y22667161D01*
X67250500Y22694670D01*
X67250509Y22694702D01*
X67250509Y22746042D01*
X67250510Y22746042D01*
X67250509Y22967191D01*
X67245765Y23033511D01*
X67218953Y23408367D01*
X67156005Y23846161D01*
X67061987Y24278347D01*
X67061987Y24278346D01*
X67061986Y24278350D01*
X66937374Y24702732D01*
X66782805Y25117143D01*
X66707153Y25282797D01*
X66599069Y25519469D01*
X66424556Y25839064D01*
X66387095Y25907668D01*
X66215186Y26175163D01*
X66147973Y26279749D01*
X66147974Y26279748D01*
X65882908Y26633836D01*
X65882907Y26633836D01*
X65593263Y26968104D01*
X65530452Y27030914D01*
X65505984Y27055382D01*
X65505979Y27055388D01*
X65495478Y27065889D01*
X65495475Y27065894D01*
X65378794Y27182575D01*
X65378771Y27182596D01*
X59769191Y32792177D01*
X59767092Y32794382D01*
X59633146Y32942170D01*
X59541189Y33043630D01*
X59537340Y33048321D01*
X59337858Y33317292D01*
X59334476Y33322353D01*
X59162323Y33609577D01*
X59159453Y33614946D01*
X59016280Y33917660D01*
X59013950Y33923285D01*
X58956566Y34083663D01*
X58901136Y34238580D01*
X58899370Y34244404D01*
X58890803Y34278606D01*
X58818004Y34569241D01*
X58816820Y34575198D01*
X58796796Y34710185D01*
X58767684Y34906444D01*
X58767089Y34912495D01*
X58760603Y35044518D01*
X58750572Y35248678D01*
X58750500Y35251639D01*
X58750500Y35328881D01*
X58750499Y35328886D01*
X58750499Y35332033D01*
X58750492Y35332186D01*
X58750492Y35445485D01*
X58719819Y35835236D01*
X58719819Y35835237D01*
X58658658Y36221394D01*
X58649047Y36261425D01*
X58591771Y36500000D01*
X63594540Y36500000D01*
X63614326Y36311744D01*
X63614327Y36311741D01*
X63672818Y36131723D01*
X63672821Y36131716D01*
X63767467Y35967784D01*
X63836225Y35891421D01*
X63894129Y35827112D01*
X64047265Y35715852D01*
X64047270Y35715849D01*
X64220192Y35638858D01*
X64220197Y35638856D01*
X64405354Y35599500D01*
X64405355Y35599500D01*
X64594644Y35599500D01*
X64594646Y35599500D01*
X64751809Y35632906D01*
X65362317Y35747376D01*
X65385170Y35749500D01*
X65408534Y35749500D01*
X65475573Y35729815D01*
X65512847Y35692542D01*
X65542903Y35645774D01*
X65542905Y35645771D01*
X65542911Y35645763D01*
X65617541Y35559636D01*
X65637057Y35537113D01*
X65637060Y35537110D01*
X65745830Y35442861D01*
X65797741Y35409500D01*
X65866778Y35365132D01*
X65866780Y35365132D01*
X65866784Y35365129D01*
X65997700Y35305342D01*
X66135655Y35264835D01*
X66278111Y35244353D01*
X66278114Y35244353D01*
X66850000Y35244353D01*
X66921961Y35249500D01*
X66959270Y35260456D01*
X67011848Y35264216D01*
X67150000Y35244353D01*
X67150003Y35244353D01*
X67721886Y35244353D01*
X67721889Y35244353D01*
X67864345Y35264835D01*
X68002300Y35305342D01*
X68133216Y35365129D01*
X68159275Y35381877D01*
X68171628Y35389815D01*
X68238668Y35409500D01*
X73168925Y35409500D01*
X73213918Y35401049D01*
X73616333Y35244354D01*
X74103865Y35054515D01*
X74267153Y34990933D01*
X74322481Y34948265D01*
X74345958Y34882457D01*
X74330130Y34814404D01*
X74293284Y34773809D01*
X74128594Y34658492D01*
X73961505Y34491403D01*
X73825965Y34297831D01*
X73825964Y34297829D01*
X73726098Y34083665D01*
X73726094Y34083656D01*
X73664938Y33855414D01*
X73664936Y33855404D01*
X73644341Y33620001D01*
X73644341Y33620000D01*
X73664936Y33384597D01*
X73664938Y33384587D01*
X73726094Y33156345D01*
X73726096Y33156341D01*
X73726097Y33156337D01*
X73801691Y32994225D01*
X73825965Y32942170D01*
X73825967Y32942166D01*
X73961501Y32748605D01*
X73961506Y32748598D01*
X74128597Y32581507D01*
X74128603Y32581502D01*
X74314158Y32451575D01*
X74357783Y32396998D01*
X74364977Y32327500D01*
X74333454Y32265145D01*
X74314158Y32248425D01*
X74128597Y32118495D01*
X73961505Y31951403D01*
X73825965Y31757831D01*
X73825964Y31757829D01*
X73726098Y31543665D01*
X73726094Y31543656D01*
X73664938Y31315414D01*
X73664936Y31315404D01*
X73644341Y31080001D01*
X73644341Y31080000D01*
X73664936Y30844597D01*
X73664938Y30844587D01*
X73726094Y30616345D01*
X73726096Y30616341D01*
X73726097Y30616337D01*
X73795368Y30467786D01*
X73825965Y30402170D01*
X73825967Y30402166D01*
X73878521Y30327112D01*
X73956428Y30215849D01*
X73961501Y30208605D01*
X73961506Y30208598D01*
X74128597Y30041507D01*
X74128603Y30041502D01*
X74314158Y29911575D01*
X74357783Y29856998D01*
X74364977Y29787500D01*
X74333454Y29725145D01*
X74314158Y29708425D01*
X74128597Y29578495D01*
X73961505Y29411403D01*
X73825965Y29217831D01*
X73825964Y29217829D01*
X73726098Y29003665D01*
X73726094Y29003656D01*
X73664938Y28775414D01*
X73664936Y28775404D01*
X73644341Y28540001D01*
X73644341Y28540000D01*
X73664936Y28304597D01*
X73664938Y28304587D01*
X73726094Y28076345D01*
X73726096Y28076341D01*
X73726097Y28076337D01*
X73761694Y28000000D01*
X73825965Y27862170D01*
X73825967Y27862166D01*
X73961501Y27668605D01*
X73961506Y27668598D01*
X74128597Y27501507D01*
X74128603Y27501502D01*
X74216403Y27440024D01*
X74297964Y27382914D01*
X74314594Y27371270D01*
X74358219Y27316693D01*
X74365413Y27247195D01*
X74333890Y27184840D01*
X74314595Y27168120D01*
X74128922Y27038110D01*
X74128920Y27038109D01*
X73961891Y26871080D01*
X73961886Y26871074D01*
X73826400Y26677580D01*
X73826399Y26677578D01*
X73726570Y26463493D01*
X73726567Y26463487D01*
X73669364Y26250001D01*
X73669364Y26250000D01*
X74386653Y26250000D01*
X74453692Y26230315D01*
X74499447Y26177511D01*
X74509391Y26108353D01*
X74505631Y26091067D01*
X74500000Y26071889D01*
X74500000Y25928111D01*
X74501721Y25922250D01*
X74505631Y25908933D01*
X74505630Y25839064D01*
X74467855Y25780286D01*
X74404299Y25751262D01*
X74386653Y25750000D01*
X73669364Y25750000D01*
X73726567Y25536514D01*
X73726570Y25536508D01*
X73826399Y25322422D01*
X73961894Y25128918D01*
X74083946Y25006866D01*
X74117431Y24945543D01*
X74112447Y24875851D01*
X74070575Y24819918D01*
X74039598Y24803003D01*
X73907671Y24753798D01*
X73907664Y24753794D01*
X73792455Y24667548D01*
X73792452Y24667545D01*
X73706206Y24552336D01*
X73706202Y24552329D01*
X73655908Y24417483D01*
X73649501Y24357884D01*
X73649501Y24357877D01*
X73649500Y24357865D01*
X73649500Y22562130D01*
X73649501Y22562124D01*
X73655908Y22502517D01*
X73706202Y22367672D01*
X73706206Y22367665D01*
X73792452Y22252456D01*
X73792455Y22252453D01*
X73907664Y22166207D01*
X73907671Y22166203D01*
X74042517Y22115909D01*
X74042516Y22115909D01*
X74049444Y22115165D01*
X74102127Y22109500D01*
X75897872Y22109501D01*
X75957483Y22115909D01*
X76092331Y22166204D01*
X76207546Y22252454D01*
X76293796Y22367669D01*
X76344091Y22502517D01*
X76350500Y22562127D01*
X76350499Y24357872D01*
X76344091Y24417483D01*
X76340004Y24428440D01*
X76293797Y24552329D01*
X76293793Y24552336D01*
X76207547Y24667545D01*
X76207544Y24667548D01*
X76092335Y24753794D01*
X76092328Y24753798D01*
X75960401Y24803003D01*
X75904467Y24844874D01*
X75880050Y24910338D01*
X75894902Y24978611D01*
X75916053Y25006867D01*
X76038108Y25128922D01*
X76173600Y25322422D01*
X76273429Y25536508D01*
X76273432Y25536514D01*
X76330636Y25750000D01*
X75613347Y25750000D01*
X75546308Y25769685D01*
X75500553Y25822489D01*
X75490609Y25891647D01*
X75494369Y25908933D01*
X75498279Y25922250D01*
X75500000Y25928111D01*
X75500000Y26071889D01*
X75494368Y26091067D01*
X75494370Y26160936D01*
X75532145Y26219714D01*
X75595701Y26248738D01*
X75613347Y26250000D01*
X76330636Y26250000D01*
X76330635Y26250001D01*
X76273432Y26463487D01*
X76273429Y26463493D01*
X76173600Y26677578D01*
X76173599Y26677580D01*
X76038113Y26871074D01*
X76038108Y26871080D01*
X75871078Y27038110D01*
X75685405Y27168121D01*
X75641780Y27222698D01*
X75634588Y27292196D01*
X75666110Y27354551D01*
X75685406Y27371270D01*
X75702034Y27382913D01*
X75871401Y27501505D01*
X76038495Y27668599D01*
X76174035Y27862170D01*
X76273903Y28076337D01*
X76335063Y28304592D01*
X76355659Y28540000D01*
X76335063Y28775408D01*
X76283168Y28969086D01*
X76273905Y29003656D01*
X76273904Y29003657D01*
X76273903Y29003663D01*
X76174035Y29217829D01*
X76168665Y29225499D01*
X76038494Y29411403D01*
X75871402Y29578494D01*
X75871396Y29578499D01*
X75685842Y29708425D01*
X75642217Y29763002D01*
X75635023Y29832500D01*
X75666546Y29894855D01*
X75685842Y29911575D01*
X75810583Y29998920D01*
X75871401Y30041505D01*
X76038495Y30208599D01*
X76174035Y30402170D01*
X76273903Y30616337D01*
X76335063Y30844592D01*
X76355659Y31080000D01*
X76335063Y31315408D01*
X76288626Y31488715D01*
X76273905Y31543656D01*
X76273904Y31543657D01*
X76273903Y31543663D01*
X76174035Y31757829D01*
X76155605Y31784151D01*
X76038494Y31951403D01*
X75871402Y32118494D01*
X75871396Y32118499D01*
X75685842Y32248425D01*
X75642217Y32303002D01*
X75635023Y32372500D01*
X75666546Y32434855D01*
X75685842Y32451575D01*
X75829099Y32551885D01*
X75871401Y32581505D01*
X76038495Y32748599D01*
X76174035Y32942170D01*
X76273903Y33156337D01*
X76335063Y33384592D01*
X76355659Y33620000D01*
X76335063Y33855408D01*
X76273903Y34083663D01*
X76174035Y34297829D01*
X76124707Y34368278D01*
X76038494Y34491403D01*
X75871402Y34658494D01*
X75871396Y34658499D01*
X75685842Y34788425D01*
X75642217Y34843002D01*
X75635023Y34912500D01*
X75666546Y34974855D01*
X75685842Y34991575D01*
X75775732Y35054517D01*
X75871401Y35121505D01*
X76038495Y35288599D01*
X76174035Y35482170D01*
X76273903Y35696337D01*
X76335063Y35924592D01*
X76355659Y36160000D01*
X76354220Y36176442D01*
X76349115Y36234791D01*
X76335063Y36395408D01*
X76273903Y36623663D01*
X76174035Y36837829D01*
X76152715Y36868278D01*
X76038494Y37031403D01*
X75871402Y37198494D01*
X75871401Y37198495D01*
X75715782Y37307461D01*
X75685841Y37328426D01*
X75642216Y37383003D01*
X75635024Y37452502D01*
X75666546Y37514856D01*
X75685836Y37531572D01*
X75871401Y37661505D01*
X76038495Y37828599D01*
X76174035Y38022170D01*
X76273903Y38236337D01*
X76335063Y38464592D01*
X76355659Y38700000D01*
X76335063Y38935408D01*
X76273903Y39163663D01*
X76174035Y39377829D01*
X76132326Y39437397D01*
X76038494Y39571403D01*
X75871402Y39738494D01*
X75871395Y39738499D01*
X75677834Y39874033D01*
X75677830Y39874035D01*
X75677829Y39874035D01*
X75463663Y39973903D01*
X75463659Y39973904D01*
X75463655Y39973906D01*
X75235413Y40035062D01*
X75235403Y40035064D01*
X75088818Y40047889D01*
X75083318Y40048619D01*
X74058228Y40231719D01*
X73995695Y40262885D01*
X73992351Y40266106D01*
X73513558Y40744899D01*
X73500433Y40760371D01*
X73496298Y40766144D01*
X73496297Y40766145D01*
X73451736Y40806812D01*
X73449688Y40808769D01*
X73431902Y40826555D01*
X73431198Y40827112D01*
X73419794Y40836129D01*
X73416472Y40838951D01*
X73309652Y40936438D01*
X73288484Y40955757D01*
X73288484Y40955756D01*
X73288482Y40955758D01*
X72970085Y41205858D01*
X72970083Y41205860D01*
X72634090Y41431769D01*
X72634089Y41431769D01*
X72514375Y41500000D01*
X72282335Y41632252D01*
X72282328Y41632256D01*
X72032370Y41751195D01*
X71916736Y41806218D01*
X71539290Y41952715D01*
X71152057Y42070943D01*
X70920238Y42123374D01*
X70757154Y42160258D01*
X70356734Y42220171D01*
X69952987Y42250355D01*
X69841833Y42250436D01*
X69840725Y42250500D01*
X69837721Y42250500D01*
X69750540Y42250500D01*
X69669020Y42250560D01*
X69667884Y42250500D01*
X68741466Y42250500D01*
X68674427Y42270185D01*
X68637152Y42307459D01*
X68607097Y42354226D01*
X68607092Y42354232D01*
X68607088Y42354238D01*
X68512943Y42462887D01*
X68512940Y42462890D01*
X68404170Y42557139D01*
X68404164Y42557143D01*
X68283221Y42634869D01*
X68283217Y42634871D01*
X68283216Y42634871D01*
X68152300Y42694658D01*
X68043236Y42726682D01*
X68014342Y42735166D01*
X67871889Y42755647D01*
X67300000Y42755647D01*
X67228040Y42750501D01*
X67190728Y42739545D01*
X67138149Y42735785D01*
X67000000Y42755647D01*
X66428111Y42755647D01*
X66428110Y42755647D01*
X66285658Y42735166D01*
X66285656Y42735166D01*
X66147700Y42694658D01*
X66016784Y42634871D01*
X66016782Y42634871D01*
X65895831Y42557140D01*
X65787060Y42462892D01*
X65787058Y42462890D01*
X65692911Y42354238D01*
X65692903Y42354226D01*
X65662848Y42307460D01*
X65610046Y42261706D01*
X65558534Y42250500D01*
X65385176Y42250500D01*
X65362324Y42252624D01*
X64751768Y42367103D01*
X64594646Y42400500D01*
X64566069Y42400500D01*
X64560277Y42400771D01*
X64558849Y42400905D01*
X64558847Y42400905D01*
X64486570Y42400500D01*
X64405354Y42400500D01*
X64372897Y42393602D01*
X64220197Y42361145D01*
X64220192Y42361143D01*
X64047270Y42284152D01*
X64047265Y42284149D01*
X63894129Y42172889D01*
X63767466Y42032215D01*
X63672821Y41868285D01*
X63672818Y41868278D01*
X63614327Y41688260D01*
X63614326Y41688256D01*
X63594540Y41500000D01*
X63614326Y41311744D01*
X63614327Y41311741D01*
X63672818Y41131723D01*
X63672821Y41131716D01*
X63767467Y40967784D01*
X63883460Y40838961D01*
X63894129Y40827112D01*
X64047265Y40715852D01*
X64047270Y40715849D01*
X64220192Y40638858D01*
X64220197Y40638856D01*
X64405354Y40599500D01*
X64405355Y40599500D01*
X64594644Y40599500D01*
X64594646Y40599500D01*
X64751809Y40632906D01*
X65362317Y40747376D01*
X65385170Y40749500D01*
X65558534Y40749500D01*
X65625573Y40729815D01*
X65662847Y40692542D01*
X65692903Y40645774D01*
X65692905Y40645771D01*
X65692911Y40645763D01*
X65767541Y40559636D01*
X65787057Y40537113D01*
X65787060Y40537110D01*
X65895830Y40442861D01*
X65926068Y40423428D01*
X66016778Y40365132D01*
X66016780Y40365132D01*
X66016784Y40365129D01*
X66147700Y40305342D01*
X66285655Y40264835D01*
X66428111Y40244353D01*
X66428114Y40244353D01*
X67000000Y40244353D01*
X67071961Y40249500D01*
X67109270Y40260456D01*
X67161848Y40264216D01*
X67300000Y40244353D01*
X67300003Y40244353D01*
X67871886Y40244353D01*
X67871889Y40244353D01*
X68014345Y40264835D01*
X68152300Y40305342D01*
X68283216Y40365129D01*
X68404164Y40442857D01*
X68404169Y40442860D01*
X68404166Y40442857D01*
X68512939Y40537109D01*
X68512943Y40537113D01*
X68607088Y40645763D01*
X68607089Y40645766D01*
X68607097Y40645774D01*
X68637151Y40692541D01*
X68689954Y40738294D01*
X68741466Y40749500D01*
X69747996Y40749500D01*
X69750904Y40749432D01*
X70113277Y40732421D01*
X70118960Y40731891D01*
X70476827Y40681721D01*
X70482434Y40680670D01*
X70834156Y40597699D01*
X70839634Y40596137D01*
X71182207Y40481073D01*
X71187518Y40479011D01*
X71518018Y40332837D01*
X71523109Y40330297D01*
X71725865Y40217204D01*
X71838695Y40154270D01*
X71843564Y40151251D01*
X72141553Y39946872D01*
X72146119Y39943421D01*
X72196033Y39901926D01*
X72417708Y39717643D01*
X72421916Y39713805D01*
X73019007Y39116715D01*
X73031139Y39102610D01*
X73818115Y38034993D01*
X73821903Y38029205D01*
X73825965Y38022170D01*
X73961500Y37828605D01*
X73961505Y37828599D01*
X73994374Y37795730D01*
X73999029Y37790517D01*
X74001336Y37787620D01*
X74008618Y37779144D01*
X74008622Y37779141D01*
X74076285Y37713497D01*
X74078879Y37711225D01*
X74128599Y37661505D01*
X74293282Y37546193D01*
X74336907Y37491616D01*
X74344101Y37422118D01*
X74312578Y37359763D01*
X74267152Y37329069D01*
X73213916Y36918951D01*
X73168923Y36910500D01*
X68743796Y36910500D01*
X68676757Y36930185D01*
X68631002Y36982989D01*
X68624819Y36999564D01*
X68594632Y37102369D01*
X68594627Y37102382D01*
X68534910Y37233144D01*
X68534897Y37233167D01*
X68457103Y37354217D01*
X68457088Y37354238D01*
X68362943Y37462887D01*
X68362940Y37462890D01*
X68254170Y37557139D01*
X68246589Y37562011D01*
X68133221Y37634869D01*
X68133217Y37634871D01*
X68133216Y37634871D01*
X68002300Y37694658D01*
X67904158Y37723475D01*
X67864342Y37735166D01*
X67721889Y37755647D01*
X67150000Y37755647D01*
X67078040Y37750501D01*
X67040728Y37739545D01*
X66988149Y37735785D01*
X66850000Y37755647D01*
X66278111Y37755647D01*
X66278110Y37755647D01*
X66135658Y37735166D01*
X66135656Y37735166D01*
X65997700Y37694658D01*
X65866784Y37634871D01*
X65866782Y37634871D01*
X65745831Y37557140D01*
X65745829Y37557139D01*
X65745830Y37557139D01*
X65745826Y37557136D01*
X65733197Y37546193D01*
X65637060Y37462892D01*
X65637058Y37462890D01*
X65542911Y37354238D01*
X65542903Y37354226D01*
X65512848Y37307460D01*
X65460046Y37261706D01*
X65408534Y37250500D01*
X65385176Y37250500D01*
X65362324Y37252624D01*
X64751768Y37367103D01*
X64594646Y37400500D01*
X64566069Y37400500D01*
X64560277Y37400771D01*
X64558849Y37400905D01*
X64558847Y37400905D01*
X64486570Y37400500D01*
X64405354Y37400500D01*
X64372897Y37393602D01*
X64220197Y37361145D01*
X64220192Y37361143D01*
X64047270Y37284152D01*
X64047265Y37284149D01*
X63894129Y37172889D01*
X63767466Y37032215D01*
X63672821Y36868285D01*
X63672818Y36868278D01*
X63614327Y36688260D01*
X63614326Y36688256D01*
X63594540Y36500000D01*
X58591771Y36500000D01*
X58567389Y36601557D01*
X58560209Y36623656D01*
X58446577Y36973384D01*
X58296960Y37334593D01*
X58272294Y37383003D01*
X58119466Y37682946D01*
X57915188Y38016299D01*
X57915185Y38016303D01*
X57915186Y38016303D01*
X57685384Y38332600D01*
X57436601Y38623889D01*
X57431475Y38629891D01*
X57293249Y38768118D01*
X57237472Y38823896D01*
X57237471Y38823897D01*
X57235145Y38826223D01*
X57235134Y38826233D01*
X55093569Y40967799D01*
X55093568Y40967800D01*
X55092438Y40968930D01*
X55092151Y40969201D01*
X54968095Y41093258D01*
X54633829Y41382900D01*
X54633829Y41382901D01*
X54279741Y41647967D01*
X54279742Y41647966D01*
X53936919Y41868284D01*
X53907661Y41887087D01*
X53766969Y41963911D01*
X53519463Y42099061D01*
X53117140Y42282796D01*
X53117141Y42282796D01*
X53117138Y42282797D01*
X52834888Y42388071D01*
X52702730Y42437364D01*
X52615808Y42462887D01*
X52278346Y42561976D01*
X52278343Y42561977D01*
X51846158Y42655995D01*
X51408365Y42718943D01*
X50967191Y42750499D01*
X50833758Y42750500D01*
X50833757Y42750500D01*
X50746041Y42750500D01*
X50667160Y42750501D01*
X50667159Y42750501D01*
X50664136Y42750501D01*
X50664117Y42750500D01*
X29302321Y42750500D01*
X28944912Y42766103D01*
X28939521Y42766575D01*
X28587526Y42812914D01*
X28582196Y42813854D01*
X28235566Y42890699D01*
X28230346Y42892098D01*
X28073072Y42941685D01*
X27891735Y42998860D01*
X27886657Y43000708D01*
X27558633Y43136579D01*
X27553736Y43138862D01*
X27408883Y43214268D01*
X27358509Y43262682D01*
X27342306Y43330647D01*
X27365419Y43396583D01*
X27413733Y43436636D01*
X27612734Y43529432D01*
X27799139Y43659953D01*
X27960047Y43820861D01*
X28090568Y44007266D01*
X28117618Y44065276D01*
X28163790Y44117715D01*
X28230983Y44136867D01*
X28297865Y44116652D01*
X28342382Y44065275D01*
X28369429Y44007272D01*
X28369432Y44007266D01*
X28499954Y43820859D01*
X28660858Y43659955D01*
X28660861Y43659953D01*
X28847266Y43529432D01*
X29053504Y43433261D01*
X29273308Y43374365D01*
X29435230Y43360199D01*
X29499998Y43354532D01*
X29500000Y43354532D01*
X29500002Y43354532D01*
X29556673Y43359491D01*
X29726692Y43374365D01*
X29946496Y43433261D01*
X30152734Y43529432D01*
X30235057Y43587076D01*
X30301263Y43609402D01*
X30306180Y43609500D01*
X74587278Y43609500D01*
X74690897Y43609500D01*
X74705783Y43608851D01*
X75041947Y43594174D01*
X75047296Y43593705D01*
X75392996Y43548193D01*
X75398304Y43547257D01*
X75738705Y43471792D01*
X75743903Y43470399D01*
X76076443Y43365550D01*
X76081524Y43363701D01*
X76403655Y43230270D01*
X76408525Y43227999D01*
X76717799Y43067001D01*
X76722477Y43064299D01*
X77016536Y42876964D01*
X77020964Y42873864D01*
X77273279Y42680255D01*
X77297572Y42661615D01*
X77301709Y42658144D01*
X77304054Y42655995D01*
X77558754Y42422604D01*
X77562580Y42418778D01*
X77743753Y42221064D01*
X77798140Y42161711D01*
X77801612Y42157574D01*
X78000423Y41898478D01*
X78013858Y41880969D01*
X78016962Y41876536D01*
X78204297Y41582478D01*
X78207003Y41577792D01*
X78345500Y41311741D01*
X78367988Y41268543D01*
X78370272Y41263645D01*
X78399233Y41193726D01*
X78503699Y40941523D01*
X78505550Y40936438D01*
X78569877Y40732421D01*
X78599377Y40638858D01*
X78610391Y40603928D01*
X78611791Y40598701D01*
X78687254Y40258307D01*
X78688194Y40252978D01*
X78733701Y39907317D01*
X78734173Y39901926D01*
X78749499Y39550885D01*
X78749500Y6584759D01*
X78729815Y6517720D01*
X78677011Y6471965D01*
X78607853Y6462021D01*
X78544297Y6491046D01*
X78537819Y6497078D01*
X78371402Y6663494D01*
X78371395Y6663499D01*
X78177834Y6799033D01*
X78177830Y6799035D01*
X78137777Y6817712D01*
X77963663Y6898903D01*
X77963659Y6898904D01*
X77963655Y6898906D01*
X77735413Y6960062D01*
X77735403Y6960064D01*
X77500001Y6980659D01*
X77499999Y6980659D01*
X77264596Y6960064D01*
X77264586Y6960062D01*
X77036344Y6898906D01*
X77036335Y6898902D01*
X76822171Y6799036D01*
X76822169Y6799035D01*
X76628597Y6663495D01*
X76461505Y6496403D01*
X76351575Y6339405D01*
X76296998Y6295780D01*
X76227500Y6288586D01*
X76165145Y6320109D01*
X76148425Y6339405D01*
X76038494Y6496403D01*
X75871402Y6663494D01*
X75871395Y6663499D01*
X75677834Y6799033D01*
X75677830Y6799035D01*
X75637777Y6817712D01*
X75463663Y6898903D01*
X75463659Y6898904D01*
X75463655Y6898906D01*
X75235413Y6960062D01*
X75235403Y6960064D01*
X75000001Y6980659D01*
X74999999Y6980659D01*
X74764596Y6960064D01*
X74764586Y6960062D01*
X74536344Y6898906D01*
X74536335Y6898902D01*
X74322171Y6799036D01*
X74322169Y6799035D01*
X74128597Y6663495D01*
X73961505Y6496403D01*
X73851575Y6339405D01*
X73796998Y6295780D01*
X73727500Y6288586D01*
X73665145Y6320109D01*
X73648425Y6339405D01*
X73538494Y6496403D01*
X73371402Y6663494D01*
X73371395Y6663499D01*
X73177834Y6799033D01*
X73177830Y6799035D01*
X73137777Y6817712D01*
X72963663Y6898903D01*
X72963659Y6898904D01*
X72963655Y6898906D01*
X72735413Y6960062D01*
X72735403Y6960064D01*
X72500001Y6980659D01*
X72499999Y6980659D01*
X72264596Y6960064D01*
X72264586Y6960062D01*
X72036344Y6898906D01*
X72036335Y6898902D01*
X71822171Y6799036D01*
X71822169Y6799035D01*
X71628597Y6663495D01*
X71481398Y6516295D01*
X71420075Y6482810D01*
X71350383Y6487794D01*
X71294450Y6529666D01*
X71288178Y6538880D01*
X71192712Y6693656D01*
X71068657Y6817711D01*
X71068656Y6817712D01*
X70959864Y6884815D01*
X70919336Y6909813D01*
X70919331Y6909815D01*
X70856497Y6930636D01*
X70752797Y6964999D01*
X70752795Y6965000D01*
X70650010Y6975500D01*
X69349998Y6975500D01*
X69349981Y6975499D01*
X69247203Y6965000D01*
X69247200Y6964999D01*
X69080668Y6909815D01*
X69080663Y6909813D01*
X68931342Y6817711D01*
X68807289Y6693658D01*
X68715187Y6544337D01*
X68715185Y6544332D01*
X68697528Y6491046D01*
X68660001Y6377797D01*
X68660001Y6377796D01*
X68660000Y6377796D01*
X68649500Y6275017D01*
X68649500Y4724999D01*
X68649501Y4724982D01*
X68660000Y4622204D01*
X68660001Y4622201D01*
X68715185Y4455669D01*
X68715189Y4455660D01*
X68757851Y4386494D01*
X68775715Y4333553D01*
X68778989Y4300311D01*
X68778990Y4300304D01*
X68778991Y4300298D01*
X68818614Y4101097D01*
X68833438Y4026567D01*
X68837667Y4005309D01*
X68924973Y3717493D01*
X68924975Y3717488D01*
X68924976Y3717485D01*
X69040067Y3439625D01*
X69040069Y3439620D01*
X69181846Y3174367D01*
X69337744Y2941043D01*
X69348942Y2924284D01*
X69539744Y2691786D01*
X69546759Y2684771D01*
X69564346Y2667182D01*
X69564370Y2667156D01*
X69566509Y2665017D01*
X69566510Y2665016D01*
X69646079Y2585447D01*
X69719348Y2512175D01*
X69719351Y2512173D01*
X69721175Y2510349D01*
X69721197Y2510329D01*
X69788385Y2443141D01*
X69906185Y2325340D01*
X69906739Y2324811D01*
X69983433Y2248115D01*
X70084379Y2163412D01*
X70238370Y2034197D01*
X70238376Y2034193D01*
X70238376Y2034192D01*
X70510980Y1843312D01*
X70510979Y1843313D01*
X70799185Y1676915D01*
X70799184Y1676915D01*
X70949993Y1606591D01*
X71100800Y1536267D01*
X71413523Y1422442D01*
X71734977Y1336305D01*
X72062715Y1278512D01*
X72354905Y1252945D01*
X72394242Y1249502D01*
X72394243Y1249502D01*
X72444349Y1249502D01*
X72444381Y1249500D01*
X72560640Y1249500D01*
X72664260Y1249498D01*
X72664266Y1249500D01*
X72666780Y1249499D01*
X72666827Y1249500D01*
X78350558Y1249500D01*
X78350671Y1249503D01*
X78438186Y1249502D01*
X78727383Y1277985D01*
X79012396Y1334676D01*
X79290480Y1419031D01*
X79558956Y1530237D01*
X79815239Y1667223D01*
X80056862Y1828669D01*
X80281496Y2013022D01*
X80347917Y2079444D01*
X80347923Y2079447D01*
X80384238Y2115762D01*
X80384239Y2115761D01*
X80486981Y2218502D01*
X80671333Y2443137D01*
X80832780Y2684759D01*
X80969766Y2941043D01*
X81080972Y3209519D01*
X81165327Y3487603D01*
X81222018Y3772616D01*
X81250501Y4061814D01*
X81250500Y4207112D01*
X81250500Y4310732D01*
X81250500Y39607053D01*
X81250500Y39607152D01*
X81250499Y39607177D01*
X81250499Y39785174D01*
X81217073Y40252538D01*
X81150391Y40716319D01*
X81050793Y41174163D01*
X81037644Y41218943D01*
X80918786Y41623738D01*
X80915610Y41632252D01*
X80823647Y41878816D01*
X80755043Y42062749D01*
X80669329Y42250436D01*
X80560401Y42488957D01*
X80560400Y42488957D01*
X80560399Y42488960D01*
X80335846Y42900200D01*
X80229452Y43065751D01*
X80082529Y43294368D01*
X80082530Y43294367D01*
X79801730Y43669474D01*
X79801729Y43669474D01*
X79494895Y44023578D01*
X79365556Y44152918D01*
X79365552Y44152925D01*
X79163583Y44354892D01*
X79163584Y44354892D01*
X78809474Y44661730D01*
X78809474Y44661731D01*
X78434368Y44942531D01*
X78434369Y44942530D01*
X78040198Y45195848D01*
X77775429Y45340422D01*
X77628960Y45420400D01*
X77628957Y45420402D01*
X77202751Y45615044D01*
X77202752Y45615044D01*
X77202749Y45615045D01*
X76763738Y45778787D01*
X76314164Y45910794D01*
X76085241Y45960594D01*
X75856319Y46010392D01*
X75392537Y46077074D01*
X74925173Y46110500D01*
X74803444Y46110500D01*
X30306180Y46110500D01*
X30239141Y46130185D01*
X30235057Y46132925D01*
X30152734Y46190568D01*
X30152732Y46190569D01*
X29946497Y46286739D01*
X29946488Y46286742D01*
X29726697Y46345634D01*
X29726693Y46345635D01*
X29726692Y46345635D01*
X29726691Y46345636D01*
X29726686Y46345636D01*
X29500002Y46365468D01*
X29499998Y46365468D01*
X29273313Y46345636D01*
X29273302Y46345634D01*
X29053511Y46286742D01*
X29053502Y46286739D01*
X28847267Y46190569D01*
X28847265Y46190568D01*
X28660858Y46060046D01*
X28499954Y45899142D01*
X28369432Y45712735D01*
X28369431Y45712733D01*
X28368491Y45710717D01*
X28343640Y45657422D01*
X28342382Y45654725D01*
X28296209Y45602286D01*
X28229016Y45583134D01*
X28162135Y45603350D01*
X28117618Y45654725D01*
X28090568Y45712734D01*
X27960047Y45899139D01*
X27960045Y45899142D01*
X27799141Y46060046D01*
X27612734Y46190568D01*
X27612732Y46190569D01*
X27406497Y46286739D01*
X27406488Y46286742D01*
X27186697Y46345634D01*
X27186693Y46345635D01*
X27186692Y46345635D01*
X27186691Y46345636D01*
X27186686Y46345636D01*
X26960002Y46365468D01*
X26959998Y46365468D01*
X26733313Y46345636D01*
X26733302Y46345634D01*
X26513511Y46286742D01*
X26513502Y46286739D01*
X26307267Y46190569D01*
X26195122Y46112045D01*
X26128916Y46089718D01*
X26061149Y46106730D01*
X26013337Y46157678D01*
X26000000Y46213621D01*
X26000000Y49440828D01*
X73247420Y49440828D01*
X73267714Y49306192D01*
X73286524Y49181400D01*
X73286525Y49181398D01*
X73286526Y49181392D01*
X73363858Y48930689D01*
X73477687Y48694319D01*
X73477688Y48694318D01*
X73477690Y48694315D01*
X73477692Y48694311D01*
X73625487Y48477536D01*
X73803934Y48285214D01*
X73803938Y48285211D01*
X73803939Y48285210D01*
X74009063Y48121629D01*
X74236277Y47990447D01*
X74480504Y47894595D01*
X74736290Y47836213D01*
X74736296Y47836213D01*
X74736299Y47836212D01*
X74932420Y47821515D01*
X74932426Y47821515D01*
X75063420Y47821515D01*
X75259540Y47836212D01*
X75259542Y47836213D01*
X75259550Y47836213D01*
X75515336Y47894595D01*
X75759563Y47990447D01*
X75986777Y48121629D01*
X76191901Y48285210D01*
X76370353Y48477536D01*
X76518148Y48694311D01*
X76631983Y48930692D01*
X76709316Y49181400D01*
X76748420Y49440833D01*
X76748420Y49703197D01*
X76709316Y49962630D01*
X76631983Y50213338D01*
X76620041Y50238135D01*
X76518152Y50449712D01*
X76518151Y50449713D01*
X76518150Y50449714D01*
X76518148Y50449719D01*
X76370353Y50666494D01*
X76360361Y50677262D01*
X76191905Y50858817D01*
X76152453Y50890279D01*
X75986777Y51022401D01*
X75759563Y51153583D01*
X75515336Y51249435D01*
X75515331Y51249437D01*
X75515322Y51249439D01*
X75297738Y51299101D01*
X75259550Y51307817D01*
X75259549Y51307818D01*
X75259545Y51307818D01*
X75259540Y51307819D01*
X75063420Y51322515D01*
X75063414Y51322515D01*
X74932426Y51322515D01*
X74932420Y51322515D01*
X74736299Y51307819D01*
X74736294Y51307818D01*
X74480517Y51249439D01*
X74480498Y51249433D01*
X74236276Y51153583D01*
X74009063Y51022401D01*
X73803934Y50858817D01*
X73625487Y50666495D01*
X73477688Y50449713D01*
X73477687Y50449712D01*
X73363858Y50213342D01*
X73286526Y49962639D01*
X73286525Y49962634D01*
X73286524Y49962630D01*
X73271773Y49864768D01*
X73247420Y49703203D01*
X73247420Y49440828D01*
X26000000Y49440828D01*
X26000000Y54375500D01*
X26019685Y54442539D01*
X26072489Y54488294D01*
X26124000Y54499500D01*
X76948430Y54499500D01*
X77015469Y54479815D01*
G37*
%TD.AperFunction*%
%TA.AperFunction,Conductor*%
G36*
X56540312Y37346380D02*
G01*
X56546195Y37339046D01*
X56650433Y37198495D01*
X56662142Y37182708D01*
X56665516Y37177659D01*
X56825645Y36910500D01*
X56837675Y36890429D01*
X56840545Y36885059D01*
X56983719Y36582341D01*
X56986049Y36576716D01*
X57098860Y36261425D01*
X57100627Y36255599D01*
X57181992Y35930774D01*
X57183179Y35924803D01*
X57232314Y35593565D01*
X57232910Y35587506D01*
X57249425Y35251366D01*
X57249500Y35248323D01*
X57249500Y35167926D01*
X57249508Y35167777D01*
X57249508Y35054515D01*
X57280181Y34664765D01*
X57280181Y34664764D01*
X57327139Y34368278D01*
X57341342Y34278606D01*
X57432611Y33898443D01*
X57432613Y33898436D01*
X57432614Y33898433D01*
X57553423Y33526617D01*
X57640128Y33317291D01*
X57703040Y33165408D01*
X57880533Y32817055D01*
X58084811Y32483702D01*
X58084814Y32483698D01*
X58084813Y32483698D01*
X58314615Y32167401D01*
X58568522Y31870113D01*
X58568524Y31870111D01*
X58643450Y31795183D01*
X58643488Y31795143D01*
X61511571Y28927061D01*
X64370920Y26067712D01*
X64375522Y26063110D01*
X64432743Y26001208D01*
X64463795Y25938619D01*
X64456078Y25869177D01*
X64412043Y25814930D01*
X64364539Y25795162D01*
X64168551Y25758414D01*
X64099032Y25765407D01*
X64090696Y25769157D01*
X63920502Y25853416D01*
X63869981Y25899445D01*
X63842712Y25943656D01*
X63718656Y26067712D01*
X63569334Y26159814D01*
X63402797Y26214999D01*
X63402795Y26215000D01*
X63300010Y26225500D01*
X62699998Y26225500D01*
X62699980Y26225499D01*
X62597203Y26215000D01*
X62597200Y26214999D01*
X62430668Y26159815D01*
X62430663Y26159813D01*
X62281342Y26067711D01*
X62157285Y25943654D01*
X62155537Y25940818D01*
X62153829Y25939283D01*
X62152807Y25937989D01*
X62152585Y25938164D01*
X62103589Y25894095D01*
X62034626Y25882874D01*
X61970544Y25910718D01*
X61944463Y25940818D01*
X61942714Y25943654D01*
X61818657Y26067711D01*
X61818656Y26067712D01*
X61669334Y26159814D01*
X61502797Y26214999D01*
X61502795Y26215000D01*
X61400010Y26225500D01*
X60799998Y26225500D01*
X60799980Y26225499D01*
X60697203Y26215000D01*
X60697200Y26214999D01*
X60530668Y26159815D01*
X60530663Y26159813D01*
X60381342Y26067711D01*
X60257289Y25943658D01*
X60165187Y25794337D01*
X60165185Y25794332D01*
X60150661Y25750501D01*
X60110001Y25627797D01*
X60110001Y25627796D01*
X60110000Y25627796D01*
X60099500Y25525017D01*
X60099500Y25385682D01*
X60082641Y25323258D01*
X59711364Y24686022D01*
X59685982Y24655218D01*
X59598253Y24578281D01*
X59591811Y24573339D01*
X59427470Y24463531D01*
X59420440Y24459472D01*
X59243177Y24372055D01*
X59235681Y24368951D01*
X59144106Y24337866D01*
X59048521Y24305419D01*
X59040684Y24303319D01*
X58978179Y24290886D01*
X58846829Y24264760D01*
X58838780Y24263700D01*
X58821202Y24262548D01*
X58788957Y24260435D01*
X58720776Y24275692D01*
X58671665Y24325391D01*
X58657220Y24393751D01*
X58666062Y24428355D01*
X58665787Y24428440D01*
X58667441Y24433750D01*
X58667780Y24435074D01*
X58668021Y24435610D01*
X58718590Y24597894D01*
X58725000Y24668428D01*
X58725000Y24750000D01*
X57699000Y24750000D01*
X57631961Y24769685D01*
X57586206Y24822489D01*
X57575000Y24874000D01*
X57575000Y25975000D01*
X58075000Y25975000D01*
X58075000Y25250000D01*
X58724999Y25250000D01*
X58724998Y25331583D01*
X58718591Y25402103D01*
X58718590Y25402108D01*
X58668018Y25564397D01*
X58580072Y25709878D01*
X58459877Y25830073D01*
X58314395Y25918020D01*
X58314396Y25918020D01*
X58152105Y25968591D01*
X58152106Y25968591D01*
X58081572Y25975000D01*
X58075000Y25975000D01*
X57575000Y25975000D01*
X57574999Y25975001D01*
X57568436Y25975000D01*
X57568417Y25974999D01*
X57497897Y25968592D01*
X57497892Y25968591D01*
X57335603Y25918019D01*
X57190122Y25830073D01*
X57159568Y25799519D01*
X57098244Y25766034D01*
X57028553Y25771020D01*
X56972620Y25812892D01*
X56951805Y25856280D01*
X56929414Y25943247D01*
X56925500Y25974151D01*
X56925500Y34492157D01*
X56925501Y34492161D01*
X56925500Y34519670D01*
X56925509Y34519702D01*
X56925509Y34571042D01*
X56925510Y34571042D01*
X56925509Y34792191D01*
X56923538Y34819752D01*
X56893953Y35233367D01*
X56831005Y35671161D01*
X56736987Y36103347D01*
X56736987Y36103346D01*
X56736986Y36103350D01*
X56612374Y36527732D01*
X56457805Y36942143D01*
X56384626Y37102382D01*
X56333805Y37213665D01*
X56323861Y37282824D01*
X56352886Y37346380D01*
X56411664Y37384154D01*
X56481534Y37384154D01*
X56540312Y37346380D01*
G37*
%TD.AperFunction*%
%TD*%
%TA.AperFunction,Conductor*%
%TO.N,/NORTH*%
G36*
X13057131Y6905924D02*
G01*
X13060806Y6903438D01*
X13403402Y6560842D01*
X13406829Y6552569D01*
X13405963Y6548151D01*
X12800289Y5062810D01*
X12793992Y5056443D01*
X12785037Y5056394D01*
X12784222Y5056764D01*
X12003669Y5447105D01*
X11997802Y5453870D01*
X11704296Y6355102D01*
X11704994Y6364030D01*
X11711064Y6369583D01*
X13048178Y6906024D01*
X13057131Y6905924D01*
G37*
%TD.AperFunction*%
%TD*%
%TA.AperFunction,Conductor*%
%TO.N,/SHIFT*%
G36*
X42783845Y21162045D02*
G01*
X43169844Y21003121D01*
X43176189Y20996803D01*
X43176885Y20994477D01*
X43264200Y20532848D01*
X43262371Y20524083D01*
X43258917Y20520760D01*
X42705368Y20173868D01*
X42696538Y20172378D01*
X42690882Y20175509D01*
X42350718Y20515674D01*
X42347291Y20523947D01*
X42349271Y20530460D01*
X42769674Y21157741D01*
X42777125Y21162703D01*
X42783845Y21162045D01*
G37*
%TD.AperFunction*%
%TD*%
%TA.AperFunction,Conductor*%
%TO.N,/WEST*%
G36*
X19346618Y21996459D02*
G01*
X20071533Y21499048D01*
X20076415Y21491542D01*
X20075857Y21485264D01*
X19592859Y20207563D01*
X19586728Y20201036D01*
X19581915Y20200000D01*
X19098085Y20200000D01*
X19089812Y20203427D01*
X19087141Y20207563D01*
X18604142Y21485267D01*
X18604422Y21494214D01*
X18608464Y21499047D01*
X19333380Y21996459D01*
X19342141Y21998313D01*
X19346618Y21996459D01*
G37*
%TD.AperFunction*%
%TD*%
%TA.AperFunction,Conductor*%
%TO.N,GND*%
G36*
X50452582Y34496260D02*
G01*
X50943491Y34253223D01*
X50949385Y34246482D01*
X50950000Y34242738D01*
X50950000Y33757263D01*
X50946573Y33748990D01*
X50943491Y33746778D01*
X50452584Y33503742D01*
X50443649Y33503142D01*
X50439088Y33505987D01*
X49957173Y33991761D01*
X49953780Y34000047D01*
X49957173Y34008240D01*
X50439089Y34494016D01*
X50447346Y34497474D01*
X50452582Y34496260D01*
G37*
%TD.AperFunction*%
%TD*%
%TA.AperFunction,Conductor*%
%TO.N,/FOC+*%
G36*
X60609429Y25203204D02*
G01*
X61093274Y25003764D01*
X61099616Y24997444D01*
X61100510Y24992648D01*
X61082308Y24282446D01*
X61078670Y24274264D01*
X61075291Y24272022D01*
X60462191Y24004494D01*
X60453238Y24004327D01*
X60449119Y24007067D01*
X60112598Y24353562D01*
X60109293Y24361882D01*
X60110882Y24367598D01*
X60594865Y25198277D01*
X60601990Y25203699D01*
X60609429Y25203204D01*
G37*
%TD.AperFunction*%
%TD*%
%TA.AperFunction,Conductor*%
%TO.N,/FOC+*%
G36*
X56424204Y25871573D02*
G01*
X56427261Y25866217D01*
X56558025Y25358338D01*
X56556770Y25349472D01*
X56554599Y25346794D01*
X56182904Y25006242D01*
X56174489Y25003180D01*
X56167096Y25006242D01*
X56067660Y25097347D01*
X55795399Y25346796D01*
X55791615Y25354910D01*
X55791973Y25358332D01*
X55922738Y25866217D01*
X55928120Y25873375D01*
X55934069Y25875000D01*
X56415931Y25875000D01*
X56424204Y25871573D01*
G37*
%TD.AperFunction*%
%TD*%
%TA.AperFunction,Conductor*%
%TO.N,/SHIFT*%
G36*
X42705367Y21826134D02*
G01*
X42911271Y21697100D01*
X43258917Y21479241D01*
X43264108Y21471944D01*
X43264200Y21467153D01*
X43176885Y21005524D01*
X43171980Y20998031D01*
X43169843Y20996879D01*
X42783846Y20837958D01*
X42774892Y20837977D01*
X42769673Y20842263D01*
X42665277Y20998031D01*
X42349272Y21469541D01*
X42347513Y21478322D01*
X42350716Y21484326D01*
X42690883Y21824493D01*
X42699155Y21827919D01*
X42705367Y21826134D01*
G37*
%TD.AperFunction*%
%TD*%
%TA.AperFunction,Conductor*%
%TO.N,/FOC+*%
G36*
X56575107Y25162025D02*
G01*
X56580326Y25157739D01*
X57000727Y24530460D01*
X57002486Y24521679D01*
X56999281Y24515673D01*
X56659117Y24175509D01*
X56650844Y24172082D01*
X56644631Y24173868D01*
X56091082Y24520760D01*
X56085891Y24528057D01*
X56085799Y24532848D01*
X56173114Y24994479D01*
X56178019Y25001970D01*
X56180147Y25003118D01*
X56566154Y25162044D01*
X56575107Y25162025D01*
G37*
%TD.AperFunction*%
%TD*%
%TA.AperFunction,Conductor*%
%TO.N,GND*%
G36*
X64513817Y36897410D02*
G01*
X65290457Y36751790D01*
X65297956Y36746897D01*
X65300000Y36740290D01*
X65300000Y36259711D01*
X65296573Y36251438D01*
X65290456Y36248211D01*
X64513820Y36102592D01*
X64505057Y36104436D01*
X64500164Y36111936D01*
X64499964Y36114054D01*
X64499000Y36500000D01*
X64499964Y36885941D01*
X64503412Y36894203D01*
X64511693Y36897609D01*
X64513817Y36897410D01*
G37*
%TD.AperFunction*%
%TD*%
%TA.AperFunction,Conductor*%
%TO.N,/FOC+*%
G36*
X49013222Y7055676D02*
G01*
X49355399Y6713500D01*
X49358826Y6705227D01*
X49357703Y6700225D01*
X48604757Y5107979D01*
X48598122Y5101965D01*
X48589713Y5102167D01*
X47755063Y5446910D01*
X47748725Y5453236D01*
X47748062Y5455408D01*
X47549808Y6440603D01*
X47551536Y6449389D01*
X47556758Y6453702D01*
X49000433Y7058196D01*
X49009385Y7058230D01*
X49013222Y7055676D01*
G37*
%TD.AperFunction*%
%TD*%
%TA.AperFunction,Conductor*%
%TO.N,/EAST*%
G36*
X43575107Y37162025D02*
G01*
X43580326Y37157739D01*
X44000727Y36530460D01*
X44002486Y36521679D01*
X43999281Y36515673D01*
X43659117Y36175509D01*
X43650844Y36172082D01*
X43644631Y36173868D01*
X43091082Y36520760D01*
X43085891Y36528057D01*
X43085799Y36532848D01*
X43173114Y36994479D01*
X43178019Y37001970D01*
X43180147Y37003118D01*
X43566154Y37162044D01*
X43575107Y37162025D01*
G37*
%TD.AperFunction*%
%TD*%
%TA.AperFunction,Conductor*%
%TO.N,/SOUTH*%
G36*
X10557131Y6905924D02*
G01*
X10560806Y6903438D01*
X10903402Y6560842D01*
X10906829Y6552569D01*
X10905963Y6548151D01*
X10300289Y5062810D01*
X10293992Y5056443D01*
X10285037Y5056394D01*
X10284222Y5056764D01*
X9503669Y5447105D01*
X9497802Y5453870D01*
X9204296Y6355102D01*
X9204994Y6364030D01*
X9211064Y6369583D01*
X10548178Y6906024D01*
X10557131Y6905924D01*
G37*
%TD.AperFunction*%
%TD*%
%TA.AperFunction,Conductor*%
%TO.N,/SOUTH*%
G36*
X22916698Y23385326D02*
G01*
X22919906Y23383052D01*
X23262576Y23040382D01*
X23266003Y23032109D01*
X23264997Y23027362D01*
X22652242Y21646964D01*
X22645753Y21640793D01*
X22636801Y21641017D01*
X22636546Y21641134D01*
X21884812Y21996683D01*
X21878798Y22003318D01*
X21878277Y22005314D01*
X21717648Y22957662D01*
X21719651Y22966390D01*
X21725307Y22970646D01*
X22907758Y23385818D01*
X22916698Y23385326D01*
G37*
%TD.AperFunction*%
%TD*%
%TA.AperFunction,Conductor*%
%TO.N,/SOUTH*%
G36*
X21886618Y21996459D02*
G01*
X22611533Y21499048D01*
X22616415Y21491542D01*
X22615857Y21485264D01*
X22132859Y20207563D01*
X22126728Y20201036D01*
X22121915Y20200000D01*
X21638085Y20200000D01*
X21629812Y20203427D01*
X21627141Y20207563D01*
X21144142Y21485267D01*
X21144422Y21494214D01*
X21148464Y21499047D01*
X21873380Y21996459D01*
X21882141Y21998313D01*
X21886618Y21996459D01*
G37*
%TD.AperFunction*%
%TD*%
%TA.AperFunction,Conductor*%
%TO.N,/WEST*%
G36*
X8077265Y6875978D02*
G01*
X8080702Y6873597D01*
X8423326Y6530973D01*
X8426753Y6522700D01*
X8425809Y6518095D01*
X7798553Y5053068D01*
X7792146Y5046811D01*
X7783192Y5046917D01*
X7782454Y5047264D01*
X7003682Y5447040D01*
X6997887Y5453867D01*
X6997842Y5454009D01*
X6719770Y6358094D01*
X6720613Y6367009D01*
X6726838Y6372486D01*
X8068319Y6876277D01*
X8077265Y6875978D01*
G37*
%TD.AperFunction*%
%TD*%
%TA.AperFunction,Conductor*%
%TO.N,/FOC-*%
G36*
X56182902Y20993760D02*
G01*
X56554599Y20653206D01*
X56558384Y20645091D01*
X56558025Y20641663D01*
X56427261Y20133783D01*
X56421880Y20126625D01*
X56415931Y20125000D01*
X55934069Y20125000D01*
X55925796Y20128427D01*
X55922739Y20133783D01*
X55882109Y20291585D01*
X55791974Y20641665D01*
X55793229Y20650529D01*
X55795394Y20653201D01*
X56167097Y20993760D01*
X56175511Y20996821D01*
X56182902Y20993760D01*
G37*
%TD.AperFunction*%
%TD*%
%TA.AperFunction,Conductor*%
%TO.N,/V_SENSE*%
G36*
X14261956Y21997487D02*
G01*
X14265361Y21994394D01*
X14820071Y21241930D01*
X14822221Y21233237D01*
X14819413Y21227231D01*
X13890833Y20178350D01*
X13882783Y20174428D01*
X13874317Y20177346D01*
X13873800Y20177833D01*
X13532208Y20519425D01*
X13528798Y20527067D01*
X13490956Y21227231D01*
X13460520Y21790368D01*
X13463495Y21798812D01*
X13469357Y21802346D01*
X14253098Y21998800D01*
X14261956Y21997487D01*
G37*
%TD.AperFunction*%
%TD*%
%TA.AperFunction,Conductor*%
%TO.N,GND*%
G36*
X45184741Y34397538D02*
G01*
X45617018Y34252675D01*
X45623773Y34246797D01*
X45625000Y34241581D01*
X45625000Y33758420D01*
X45621573Y33750147D01*
X45617018Y33747326D01*
X45184745Y33602464D01*
X45175811Y33603085D01*
X45172259Y33605811D01*
X45047233Y33747326D01*
X44830843Y33992254D01*
X44827934Y34000722D01*
X44830844Y34007747D01*
X45172260Y34394191D01*
X45180305Y34398121D01*
X45184741Y34397538D01*
G37*
%TD.AperFunction*%
%TD*%
%TA.AperFunction,Conductor*%
%TO.N,GND*%
G36*
X9994942Y17395565D02*
G01*
X9999835Y17388065D01*
X10000035Y17385938D01*
X10001000Y17000000D01*
X10000035Y16614063D01*
X9996587Y16605798D01*
X9988306Y16602392D01*
X9986179Y16602592D01*
X9209544Y16748211D01*
X9202044Y16753104D01*
X9200000Y16759711D01*
X9200000Y17240290D01*
X9203427Y17248563D01*
X9209542Y17251790D01*
X9986180Y17397409D01*
X9994942Y17395565D01*
G37*
%TD.AperFunction*%
%TD*%
%TA.AperFunction,Conductor*%
%TO.N,GND*%
G36*
X63452582Y21496260D02*
G01*
X63943491Y21253223D01*
X63949385Y21246482D01*
X63950000Y21242738D01*
X63950000Y20757263D01*
X63946573Y20748990D01*
X63943491Y20746778D01*
X63452584Y20503742D01*
X63443649Y20503142D01*
X63439088Y20505987D01*
X62957173Y20991761D01*
X62953780Y21000047D01*
X62957173Y21008240D01*
X63439089Y21494016D01*
X63447346Y21497474D01*
X63452582Y21496260D01*
G37*
%TD.AperFunction*%
%TD*%
%TA.AperFunction,Conductor*%
%TO.N,GND*%
G36*
X64513817Y41897410D02*
G01*
X65290457Y41751790D01*
X65297956Y41746897D01*
X65300000Y41740290D01*
X65300000Y41259711D01*
X65296573Y41251438D01*
X65290456Y41248211D01*
X64513820Y41102592D01*
X64505057Y41104436D01*
X64500164Y41111936D01*
X64499964Y41114054D01*
X64499000Y41500000D01*
X64499964Y41885941D01*
X64503412Y41894203D01*
X64511693Y41897609D01*
X64513817Y41897410D01*
G37*
%TD.AperFunction*%
%TD*%
%TA.AperFunction,Conductor*%
%TO.N,/NORTH*%
G36*
X43575107Y28162025D02*
G01*
X43580326Y28157739D01*
X44000727Y27530460D01*
X44002486Y27521679D01*
X43999281Y27515673D01*
X43659117Y27175509D01*
X43650844Y27172082D01*
X43644631Y27173868D01*
X43091082Y27520760D01*
X43085891Y27528057D01*
X43085799Y27532848D01*
X43173114Y27994479D01*
X43178019Y28001970D01*
X43180147Y28003118D01*
X43566154Y28162044D01*
X43575107Y28162025D01*
G37*
%TD.AperFunction*%
%TD*%
%TA.AperFunction,Conductor*%
%TO.N,GND*%
G36*
X46494942Y34395565D02*
G01*
X46499835Y34388065D01*
X46500035Y34385938D01*
X46501000Y34000000D01*
X46500035Y33614063D01*
X46496587Y33605798D01*
X46488306Y33602392D01*
X46486179Y33602592D01*
X45709544Y33748211D01*
X45702044Y33753104D01*
X45700000Y33759711D01*
X45700000Y34240290D01*
X45703427Y34248563D01*
X45709542Y34251790D01*
X46486180Y34397409D01*
X46494942Y34395565D01*
G37*
%TD.AperFunction*%
%TD*%
M02*
