%TF.GenerationSoftware,KiCad,Pcbnew,7.0.7*%
%TF.CreationDate,2023-09-17T22:58:44+02:00*%
%TF.ProjectId,SHC_WEMOS,5348435f-5745-44d4-9f53-2e6b69636164,rev?*%
%TF.SameCoordinates,Original*%
%TF.FileFunction,Copper,L2,Bot*%
%TF.FilePolarity,Positive*%
%FSLAX46Y46*%
G04 Gerber Fmt 4.6, Leading zero omitted, Abs format (unit mm)*
G04 Created by KiCad (PCBNEW 7.0.7) date 2023-09-17 22:58:44*
%MOMM*%
%LPD*%
G01*
G04 APERTURE LIST*
G04 Aperture macros list*
%AMRoundRect*
0 Rectangle with rounded corners*
0 $1 Rounding radius*
0 $2 $3 $4 $5 $6 $7 $8 $9 X,Y pos of 4 corners*
0 Add a 4 corners polygon primitive as box body*
4,1,4,$2,$3,$4,$5,$6,$7,$8,$9,$2,$3,0*
0 Add four circle primitives for the rounded corners*
1,1,$1+$1,$2,$3*
1,1,$1+$1,$4,$5*
1,1,$1+$1,$6,$7*
1,1,$1+$1,$8,$9*
0 Add four rect primitives between the rounded corners*
20,1,$1+$1,$2,$3,$4,$5,0*
20,1,$1+$1,$4,$5,$6,$7,0*
20,1,$1+$1,$6,$7,$8,$9,0*
20,1,$1+$1,$8,$9,$2,$3,0*%
G04 Aperture macros list end*
%TA.AperFunction,ComponentPad*%
%ADD10RoundRect,0.250000X-0.600000X-0.750000X0.600000X-0.750000X0.600000X0.750000X-0.600000X0.750000X0*%
%TD*%
%TA.AperFunction,ComponentPad*%
%ADD11O,1.700000X2.000000*%
%TD*%
%TA.AperFunction,ComponentPad*%
%ADD12R,1.700000X1.700000*%
%TD*%
%TA.AperFunction,ComponentPad*%
%ADD13O,1.700000X1.700000*%
%TD*%
%TA.AperFunction,ComponentPad*%
%ADD14RoundRect,0.250000X-0.600000X-0.725000X0.600000X-0.725000X0.600000X0.725000X-0.600000X0.725000X0*%
%TD*%
%TA.AperFunction,ComponentPad*%
%ADD15O,1.700000X1.950000*%
%TD*%
%TA.AperFunction,ComponentPad*%
%ADD16R,2.000000X2.000000*%
%TD*%
%TA.AperFunction,ComponentPad*%
%ADD17O,1.600000X2.000000*%
%TD*%
%TA.AperFunction,ViaPad*%
%ADD18C,0.800000*%
%TD*%
%TA.AperFunction,Conductor*%
%ADD19C,0.500000*%
%TD*%
G04 APERTURE END LIST*
D10*
%TO.P,J2,1,Pin_1*%
%TO.N,/SHIFT*%
X37250000Y5450000D03*
D11*
%TO.P,J2,2,Pin_2*%
%TO.N,+3.3V*%
X39750000Y5450000D03*
%TD*%
D12*
%TO.P,J6,1,Pin_1*%
%TO.N,GND*%
X75000000Y23460000D03*
D13*
%TO.P,J6,2,Pin_2*%
%TO.N,+3.3V*%
X75000000Y26000000D03*
%TO.P,J6,3,Pin_3*%
%TO.N,/SCL*%
X75000000Y28540000D03*
%TO.P,J6,4,Pin_4*%
%TO.N,/SDA*%
X75000000Y31080000D03*
%TO.P,J6,5,Pin_5*%
%TO.N,/RST*%
X75000000Y33620000D03*
%TO.P,J6,6,Pin_6*%
%TO.N,Net-(J6-Pin_6)*%
X75000000Y36160000D03*
%TO.P,J6,7,Pin_7*%
%TO.N,Net-(J6-Pin_7)*%
X75000000Y38700000D03*
%TD*%
D14*
%TO.P,J5,1,Pin_1*%
%TO.N,+5V*%
X70000000Y5500000D03*
D15*
%TO.P,J5,2,Pin_2*%
%TO.N,/TX*%
X72500000Y5500000D03*
%TO.P,J5,3,Pin_3*%
%TO.N,/RX*%
X75000000Y5500000D03*
%TO.P,J5,4,Pin_4*%
%TO.N,GND*%
X77500000Y5500000D03*
%TD*%
D14*
%TO.P,J1,1,Pin_1*%
%TO.N,/EAST*%
X4500000Y5450000D03*
D15*
%TO.P,J1,2,Pin_2*%
%TO.N,/WEST*%
X7000000Y5450000D03*
%TO.P,J1,3,Pin_3*%
%TO.N,/SOUTH*%
X9500000Y5450000D03*
%TO.P,J1,4,Pin_4*%
%TO.N,/NORTH*%
X12000000Y5450000D03*
%TO.P,J1,5,Pin_5*%
%TO.N,+3.3V*%
X14500000Y5450000D03*
%TD*%
D10*
%TO.P,J4,1,Pin_1*%
%TO.N,/FOC-*%
X57750000Y5450000D03*
D11*
%TO.P,J4,2,Pin_2*%
%TO.N,GND*%
X60250000Y5450000D03*
%TD*%
D16*
%TO.P,U1,1,~{RST}*%
%TO.N,/RST*%
X11720000Y22000000D03*
D17*
%TO.P,U1,2,A0*%
%TO.N,/V_SENSE*%
X14260000Y22000000D03*
%TO.P,U1,3,D0*%
%TO.N,/EAST*%
X16800000Y22000000D03*
%TO.P,U1,4,SCK/D5*%
%TO.N,/WEST*%
X19340000Y22000000D03*
%TO.P,U1,5,MISO/D6*%
%TO.N,/SOUTH*%
X21880000Y22000000D03*
%TO.P,U1,6,MOSI/D7*%
%TO.N,/NORTH*%
X24420000Y22000000D03*
%TO.P,U1,7,CS/D8*%
%TO.N,/SHIFT*%
X26960000Y22000000D03*
%TO.P,U1,8,3V3*%
%TO.N,+3.3V*%
X29500000Y22000000D03*
%TO.P,U1,9,5V*%
%TO.N,+5V*%
X29500000Y44860000D03*
%TO.P,U1,10,GND*%
%TO.N,GND*%
X26960000Y44860000D03*
%TO.P,U1,11,D4*%
%TO.N,/FOC-*%
X24420000Y44860000D03*
%TO.P,U1,12,D3*%
%TO.N,/FOC+*%
X21880000Y44860000D03*
%TO.P,U1,13,SDA/D2*%
%TO.N,/SDA*%
X19340000Y44860000D03*
%TO.P,U1,14,SCL/D1*%
%TO.N,/SCL*%
X16800000Y44860000D03*
%TO.P,U1,15,RX*%
%TO.N,/RX*%
X14260000Y44860000D03*
%TO.P,U1,16,TX*%
%TO.N,/TX*%
X11720000Y44860000D03*
%TD*%
D10*
%TO.P,J3,1,Pin_1*%
%TO.N,/FOC+*%
X47750000Y5450000D03*
D11*
%TO.P,J3,2,Pin_2*%
%TO.N,GND*%
X50250000Y5450000D03*
%TD*%
D18*
%TO.N,GND*%
X51398959Y21000000D03*
X32500000Y17500000D03*
X51500000Y37000000D03*
X65000000Y25000000D03*
X46500000Y21000000D03*
X10000000Y17000000D03*
X51500000Y31000000D03*
X64500000Y36500000D03*
X46500000Y28000000D03*
X46500000Y37000000D03*
X46500000Y31000000D03*
X64500000Y41500000D03*
X46500000Y34000000D03*
X51500000Y34000000D03*
X65000000Y21000000D03*
X51500000Y28000000D03*
%TO.N,+3.3V*%
X62500000Y32500000D03*
X59000000Y29000000D03*
%TO.N,/RST*%
X51500000Y39000000D03*
%TD*%
D19*
%TO.N,GND*%
X32500000Y17500000D02*
X32250000Y17250000D01*
X10000000Y17000000D02*
X31646446Y17000000D01*
X31646446Y16999981D02*
G75*
G03*
X32250000Y17250000I-46J853619D01*
G01*
%TO.N,+3.3V*%
X62500000Y32500000D02*
X59000000Y29000000D01*
%TO.N,/TX*%
X53746036Y22000000D02*
X36833963Y22000000D01*
X32986207Y23593793D02*
X11720000Y44860000D01*
X57593792Y20406208D02*
X72500000Y5500000D01*
X57593784Y20406200D02*
G75*
G03*
X53746036Y22000000I-3847784J-3847800D01*
G01*
X32986215Y23593801D02*
G75*
G03*
X36833963Y22000000I3847785J3847799D01*
G01*
%TO.N,/RX*%
X54746036Y23500000D02*
X37873963Y23500000D01*
X34026207Y25093793D02*
X14260000Y44860000D01*
X58593792Y21906208D02*
X75000000Y5500000D01*
X58593784Y21906200D02*
G75*
G03*
X54746036Y23500000I-3847784J-3847800D01*
G01*
X34026215Y25093801D02*
G75*
G03*
X37873963Y23500000I3847785J3847799D01*
G01*
%TO.N,/SCL*%
X67293963Y28540000D02*
X75000000Y28540000D01*
X16800000Y44860000D02*
X35066207Y26593793D01*
X63093792Y26593794D02*
X63446207Y26946208D01*
X38913963Y25000000D02*
X59246036Y25000000D01*
X35066215Y26593801D02*
G75*
G03*
X38913963Y25000000I3847785J3847799D01*
G01*
X59246036Y24999991D02*
G75*
G03*
X63093792Y26593794I-36J5441609D01*
G01*
X67293963Y28539958D02*
G75*
G03*
X63446207Y26946208I-163J-5441258D01*
G01*
%TO.N,/SDA*%
X19340000Y44860000D02*
X36106207Y28093793D01*
X67833963Y31080000D02*
X75000000Y31080000D01*
X62593792Y28093794D02*
X63986207Y29486208D01*
X39953963Y26500000D02*
X58746036Y26500000D01*
X58746036Y26499991D02*
G75*
G03*
X62593792Y28093794I-36J5441609D01*
G01*
X67833963Y31079958D02*
G75*
G03*
X63986207Y29486208I-163J-5441258D01*
G01*
X36106215Y28093801D02*
G75*
G03*
X39953963Y26500000I3847785J3847799D01*
G01*
%TO.N,/RST*%
X51500000Y39000000D02*
X56746036Y39000000D01*
X60593792Y37406208D02*
X62786207Y35213793D01*
X66633963Y33620000D02*
X75000000Y33620000D01*
X60593784Y37406200D02*
G75*
G03*
X56746036Y39000000I-3847784J-3847800D01*
G01*
X62786235Y35213821D02*
G75*
G03*
X66633963Y33620000I3847765J3847679D01*
G01*
%TD*%
%TA.AperFunction,Conductor*%
%TO.N,/RST*%
G36*
X74673010Y34400955D02*
G01*
X74679108Y34394733D01*
X74999134Y33624489D01*
X74999143Y33615534D01*
X74999134Y33615511D01*
X74679108Y32845268D01*
X74672769Y32838943D01*
X74664058Y32838854D01*
X73307455Y33367098D01*
X73300989Y33373294D01*
X73300000Y33378001D01*
X73300000Y33862000D01*
X73303427Y33870273D01*
X73307455Y33872903D01*
X74664058Y34401147D01*
X74673010Y34400955D01*
G37*
%TD.AperFunction*%
%TD*%
%TA.AperFunction,Conductor*%
%TO.N,/RX*%
G36*
X15032125Y45213293D02*
G01*
X15032242Y45213038D01*
X15644997Y43832639D01*
X15645221Y43823687D01*
X15642576Y43819619D01*
X15299906Y43476949D01*
X15291633Y43473522D01*
X15287757Y43474183D01*
X14105309Y43889355D01*
X14098638Y43895329D01*
X14097648Y43902340D01*
X14258277Y44854689D01*
X14263032Y44862275D01*
X14264806Y44863315D01*
X15016548Y45218869D01*
X15025490Y45219307D01*
X15032125Y45213293D01*
G37*
%TD.AperFunction*%
%TD*%
%TA.AperFunction,Conductor*%
%TO.N,/SCL*%
G36*
X17572125Y45213293D02*
G01*
X17572242Y45213038D01*
X18184997Y43832639D01*
X18185221Y43823687D01*
X18182576Y43819619D01*
X17839906Y43476949D01*
X17831633Y43473522D01*
X17827757Y43474183D01*
X16645309Y43889355D01*
X16638638Y43895329D01*
X16637648Y43902340D01*
X16798277Y44854689D01*
X16803032Y44862275D01*
X16804806Y44863315D01*
X17556548Y45218869D01*
X17565490Y45219307D01*
X17572125Y45213293D01*
G37*
%TD.AperFunction*%
%TD*%
%TA.AperFunction,Conductor*%
%TO.N,/TX*%
G36*
X12492125Y45213293D02*
G01*
X12492242Y45213038D01*
X13104997Y43832639D01*
X13105221Y43823687D01*
X13102576Y43819619D01*
X12759906Y43476949D01*
X12751633Y43473522D01*
X12747757Y43474183D01*
X11565309Y43889355D01*
X11558638Y43895329D01*
X11557648Y43902340D01*
X11718277Y44854689D01*
X11723032Y44862275D01*
X11724806Y44863315D01*
X12476548Y45218869D01*
X12485490Y45219307D01*
X12492125Y45213293D01*
G37*
%TD.AperFunction*%
%TD*%
%TA.AperFunction,Conductor*%
%TO.N,/RST*%
G36*
X51513817Y39397410D02*
G01*
X52290457Y39251790D01*
X52297956Y39246897D01*
X52300000Y39240290D01*
X52300000Y38759711D01*
X52296573Y38751438D01*
X52290456Y38748211D01*
X51513820Y38602592D01*
X51505057Y38604436D01*
X51500164Y38611936D01*
X51499964Y38614054D01*
X51499000Y39000000D01*
X51499964Y39385941D01*
X51503412Y39394203D01*
X51511693Y39397609D01*
X51513817Y39397410D01*
G37*
%TD.AperFunction*%
%TD*%
%TA.AperFunction,Conductor*%
%TO.N,/SCL*%
G36*
X74673010Y29320955D02*
G01*
X74679108Y29314733D01*
X74999134Y28544489D01*
X74999143Y28535534D01*
X74999134Y28535511D01*
X74679108Y27765268D01*
X74672769Y27758943D01*
X74664058Y27758854D01*
X73307455Y28287098D01*
X73300989Y28293294D01*
X73300000Y28298001D01*
X73300000Y28782000D01*
X73303427Y28790273D01*
X73307455Y28792903D01*
X74664058Y29321147D01*
X74673010Y29320955D01*
G37*
%TD.AperFunction*%
%TD*%
%TA.AperFunction,Conductor*%
%TO.N,/SDA*%
G36*
X20112125Y45213293D02*
G01*
X20112242Y45213038D01*
X20724997Y43832639D01*
X20725221Y43823687D01*
X20722576Y43819619D01*
X20379906Y43476949D01*
X20371633Y43473522D01*
X20367757Y43474183D01*
X19185309Y43889355D01*
X19178638Y43895329D01*
X19177648Y43902340D01*
X19338277Y44854689D01*
X19343032Y44862275D01*
X19344806Y44863315D01*
X20096548Y45218869D01*
X20105490Y45219307D01*
X20112125Y45213293D01*
G37*
%TD.AperFunction*%
%TD*%
%TA.AperFunction,Conductor*%
%TO.N,/TX*%
G36*
X71431678Y6926278D02*
G01*
X72773158Y6422487D01*
X72779699Y6416370D01*
X72780228Y6408094D01*
X72502157Y5504009D01*
X72496449Y5497109D01*
X72496317Y5497040D01*
X71717544Y5097265D01*
X71708619Y5096536D01*
X71701792Y5102331D01*
X71701452Y5103053D01*
X71074189Y6568096D01*
X71074084Y6577049D01*
X71076671Y6580971D01*
X71419298Y6923598D01*
X71427570Y6927024D01*
X71431678Y6926278D01*
G37*
%TD.AperFunction*%
%TD*%
%TA.AperFunction,Conductor*%
%TO.N,+3.3V*%
G36*
X62225479Y32774287D02*
G01*
X62227124Y32772925D01*
X62500707Y32500707D01*
X62772924Y32227125D01*
X62776330Y32218844D01*
X62772882Y32210579D01*
X62771237Y32209217D01*
X62119104Y31763022D01*
X62110341Y31761178D01*
X62104224Y31764405D01*
X61764404Y32104225D01*
X61760977Y32112498D01*
X61763021Y32119105D01*
X62209217Y32771239D01*
X62216716Y32776131D01*
X62225479Y32774287D01*
G37*
%TD.AperFunction*%
%TD*%
%TA.AperFunction,Conductor*%
%TO.N,+3.3V*%
G36*
X59395775Y29735596D02*
G01*
X59735595Y29395776D01*
X59739022Y29387503D01*
X59736978Y29380896D01*
X59290783Y28728763D01*
X59283283Y28723870D01*
X59274520Y28725714D01*
X59272875Y28727076D01*
X58999293Y28999293D01*
X58727075Y29272876D01*
X58723669Y29281157D01*
X58727117Y29289422D01*
X58728756Y29290780D01*
X59380895Y29736980D01*
X59389658Y29738823D01*
X59395775Y29735596D01*
G37*
%TD.AperFunction*%
%TD*%
%TA.AperFunction,Conductor*%
%TO.N,GND*%
G36*
X77015469Y54479815D02*
G01*
X77036111Y54463181D01*
X81963181Y49536112D01*
X81996666Y49474789D01*
X81999500Y49448431D01*
X81999500Y124500D01*
X81979815Y57461D01*
X81927011Y11706D01*
X81875500Y500D01*
X25624000Y500D01*
X25556961Y20185D01*
X25511206Y72989D01*
X25500000Y124500D01*
X25500000Y4649999D01*
X35899500Y4649999D01*
X35899501Y4649982D01*
X35910000Y4547204D01*
X35910001Y4547201D01*
X35955749Y4409144D01*
X35965186Y4380666D01*
X36057288Y4231344D01*
X36181344Y4107288D01*
X36330666Y4015186D01*
X36497203Y3960001D01*
X36599991Y3949500D01*
X37900008Y3949501D01*
X38002797Y3960001D01*
X38169334Y4015186D01*
X38318656Y4107288D01*
X38442712Y4231344D01*
X38534814Y4380666D01*
X38534814Y4380669D01*
X38538178Y4386121D01*
X38590126Y4432846D01*
X38659088Y4444069D01*
X38723170Y4416226D01*
X38731398Y4408706D01*
X38878599Y4261505D01*
X38921675Y4231343D01*
X39072165Y4125968D01*
X39072167Y4125967D01*
X39072170Y4125965D01*
X39286337Y4026097D01*
X39286343Y4026096D01*
X39286344Y4026095D01*
X39292293Y4024501D01*
X39514592Y3964937D01*
X39691034Y3949500D01*
X39749999Y3944341D01*
X39750000Y3944341D01*
X39750001Y3944341D01*
X39808966Y3949500D01*
X39985408Y3964937D01*
X40213663Y4026097D01*
X40427829Y4125965D01*
X40621401Y4261505D01*
X40788495Y4428599D01*
X40924035Y4622171D01*
X40937012Y4649999D01*
X46399500Y4649999D01*
X46399501Y4649982D01*
X46410000Y4547204D01*
X46410001Y4547201D01*
X46455749Y4409144D01*
X46465186Y4380666D01*
X46557288Y4231344D01*
X46681344Y4107288D01*
X46830666Y4015186D01*
X46997203Y3960001D01*
X47099991Y3949500D01*
X48400008Y3949501D01*
X48502797Y3960001D01*
X48669334Y4015186D01*
X48818656Y4107288D01*
X48942712Y4231344D01*
X49034814Y4380666D01*
X49034814Y4380667D01*
X49038448Y4386558D01*
X49090396Y4433283D01*
X49159358Y4444506D01*
X49223441Y4416663D01*
X49231668Y4409144D01*
X49378921Y4261892D01*
X49572421Y4126400D01*
X49786507Y4026571D01*
X49786516Y4026567D01*
X50000000Y3969366D01*
X50000000Y4837699D01*
X50019685Y4904738D01*
X50072489Y4950493D01*
X50141647Y4960437D01*
X50214237Y4950000D01*
X50214238Y4950000D01*
X50285762Y4950000D01*
X50285763Y4950000D01*
X50358353Y4960437D01*
X50427512Y4950493D01*
X50480315Y4904738D01*
X50500000Y4837699D01*
X50499999Y3969367D01*
X50713483Y4026567D01*
X50713492Y4026571D01*
X50927577Y4126400D01*
X50927579Y4126401D01*
X51121073Y4261887D01*
X51121079Y4261892D01*
X51288108Y4428921D01*
X51288113Y4428927D01*
X51423599Y4622421D01*
X51423600Y4622423D01*
X51436459Y4649999D01*
X56399500Y4649999D01*
X56399501Y4649982D01*
X56410000Y4547204D01*
X56410001Y4547201D01*
X56455749Y4409144D01*
X56465186Y4380666D01*
X56557288Y4231344D01*
X56681344Y4107288D01*
X56830666Y4015186D01*
X56997203Y3960001D01*
X57099991Y3949500D01*
X58400008Y3949501D01*
X58502797Y3960001D01*
X58669334Y4015186D01*
X58818656Y4107288D01*
X58942712Y4231344D01*
X59034814Y4380666D01*
X59034814Y4380667D01*
X59038448Y4386558D01*
X59090396Y4433283D01*
X59159358Y4444506D01*
X59223441Y4416663D01*
X59231668Y4409144D01*
X59378921Y4261892D01*
X59572421Y4126400D01*
X59786507Y4026571D01*
X59786516Y4026567D01*
X59999998Y3969365D01*
X59999999Y3969366D01*
X59999999Y4837700D01*
X60019684Y4904739D01*
X60072488Y4950494D01*
X60141642Y4960438D01*
X60214237Y4950000D01*
X60214240Y4950000D01*
X60285762Y4950000D01*
X60285763Y4950000D01*
X60358352Y4960437D01*
X60427510Y4950493D01*
X60480314Y4904739D01*
X60499999Y4837699D01*
X60499999Y3969367D01*
X60713483Y4026567D01*
X60713492Y4026571D01*
X60927577Y4126400D01*
X60927579Y4126401D01*
X61121073Y4261887D01*
X61121079Y4261892D01*
X61288108Y4428921D01*
X61288113Y4428927D01*
X61423599Y4622421D01*
X61423600Y4622423D01*
X61523429Y4836508D01*
X61523433Y4836517D01*
X61584567Y5064674D01*
X61584569Y5064685D01*
X61596407Y5200000D01*
X60863347Y5200000D01*
X60796308Y5219685D01*
X60750553Y5272489D01*
X60740609Y5341647D01*
X60744369Y5358933D01*
X60750000Y5378112D01*
X60750000Y5521889D01*
X60744369Y5541067D01*
X60744370Y5610936D01*
X60782145Y5669714D01*
X60845701Y5698738D01*
X60863347Y5700000D01*
X61596407Y5700000D01*
X61596407Y5700001D01*
X61584569Y5835316D01*
X61584567Y5835327D01*
X61523433Y6063484D01*
X61523429Y6063493D01*
X61423600Y6277578D01*
X61423599Y6277580D01*
X61288113Y6471074D01*
X61288108Y6471080D01*
X61121082Y6638106D01*
X60927578Y6773601D01*
X60713492Y6873430D01*
X60713486Y6873433D01*
X60499999Y6930636D01*
X60499999Y6062302D01*
X60480314Y5995263D01*
X60427510Y5949508D01*
X60358353Y5939564D01*
X60285764Y5950000D01*
X60285763Y5950000D01*
X60214237Y5950000D01*
X60141646Y5939563D01*
X60072487Y5949507D01*
X60019683Y5995262D01*
X59999999Y6062301D01*
X59999999Y6930636D01*
X59999998Y6930636D01*
X59786505Y6873430D01*
X59572422Y6773601D01*
X59572420Y6773600D01*
X59378926Y6638114D01*
X59231668Y6490856D01*
X59170345Y6457372D01*
X59100653Y6462356D01*
X59044720Y6504228D01*
X59038448Y6513442D01*
X58942712Y6668656D01*
X58818657Y6792711D01*
X58818656Y6792712D01*
X58687786Y6873433D01*
X58669336Y6884813D01*
X58669331Y6884815D01*
X58667862Y6885302D01*
X58502797Y6939999D01*
X58502795Y6940000D01*
X58400010Y6950500D01*
X57099998Y6950500D01*
X57099981Y6950499D01*
X56997203Y6940000D01*
X56997200Y6939999D01*
X56830668Y6884815D01*
X56830663Y6884813D01*
X56681342Y6792711D01*
X56557289Y6668658D01*
X56465187Y6519337D01*
X56465185Y6519332D01*
X56449196Y6471080D01*
X56410001Y6352797D01*
X56410001Y6352796D01*
X56410000Y6352796D01*
X56399500Y6250017D01*
X56399500Y4649999D01*
X51436459Y4649999D01*
X51523429Y4836508D01*
X51523433Y4836517D01*
X51584567Y5064674D01*
X51584569Y5064685D01*
X51596407Y5200000D01*
X50863347Y5200000D01*
X50796308Y5219685D01*
X50750553Y5272489D01*
X50740609Y5341647D01*
X50744369Y5358933D01*
X50750000Y5378112D01*
X50750000Y5521889D01*
X50744369Y5541067D01*
X50744370Y5610936D01*
X50782145Y5669714D01*
X50845701Y5698738D01*
X50863347Y5700000D01*
X51596407Y5700000D01*
X51596407Y5700001D01*
X51584569Y5835316D01*
X51584567Y5835327D01*
X51523433Y6063484D01*
X51523429Y6063493D01*
X51423600Y6277578D01*
X51423599Y6277580D01*
X51288113Y6471074D01*
X51288108Y6471080D01*
X51121082Y6638106D01*
X50927578Y6773601D01*
X50713492Y6873430D01*
X50713486Y6873433D01*
X50500000Y6930636D01*
X50500000Y6062302D01*
X50480315Y5995263D01*
X50427511Y5949508D01*
X50358355Y5939564D01*
X50285766Y5950000D01*
X50285763Y5950000D01*
X50214237Y5950000D01*
X50214233Y5950000D01*
X50141645Y5939564D01*
X50072487Y5949508D01*
X50019684Y5995264D01*
X50000000Y6062302D01*
X50000000Y6930636D01*
X49999999Y6930636D01*
X49786513Y6873433D01*
X49786507Y6873430D01*
X49572422Y6773601D01*
X49572420Y6773600D01*
X49378926Y6638114D01*
X49231668Y6490856D01*
X49170345Y6457372D01*
X49100653Y6462356D01*
X49044720Y6504228D01*
X49038448Y6513442D01*
X48942712Y6668656D01*
X48818657Y6792711D01*
X48818656Y6792712D01*
X48687786Y6873433D01*
X48669336Y6884813D01*
X48669331Y6884815D01*
X48667862Y6885302D01*
X48502797Y6939999D01*
X48502795Y6940000D01*
X48400010Y6950500D01*
X47099998Y6950500D01*
X47099981Y6950499D01*
X46997203Y6940000D01*
X46997200Y6939999D01*
X46830668Y6884815D01*
X46830663Y6884813D01*
X46681342Y6792711D01*
X46557289Y6668658D01*
X46465187Y6519337D01*
X46465185Y6519332D01*
X46449196Y6471080D01*
X46410001Y6352797D01*
X46410001Y6352796D01*
X46410000Y6352796D01*
X46399500Y6250017D01*
X46399500Y4649999D01*
X40937012Y4649999D01*
X41023903Y4836337D01*
X41085063Y5064592D01*
X41100500Y5241034D01*
X41100500Y5658966D01*
X41085063Y5835408D01*
X41023903Y6063663D01*
X40924035Y6277829D01*
X40916808Y6288151D01*
X40788494Y6471403D01*
X40621402Y6638494D01*
X40621395Y6638499D01*
X40427834Y6774033D01*
X40427830Y6774035D01*
X40375148Y6798601D01*
X40213663Y6873903D01*
X40213659Y6873904D01*
X40213655Y6873906D01*
X39985413Y6935062D01*
X39985403Y6935064D01*
X39750001Y6955659D01*
X39749999Y6955659D01*
X39514596Y6935064D01*
X39514586Y6935062D01*
X39286344Y6873906D01*
X39286335Y6873902D01*
X39072171Y6774036D01*
X39072169Y6774035D01*
X38878597Y6638495D01*
X38731398Y6491295D01*
X38670075Y6457810D01*
X38600383Y6462794D01*
X38544450Y6504666D01*
X38538178Y6513880D01*
X38442712Y6668656D01*
X38318657Y6792711D01*
X38318656Y6792712D01*
X38187786Y6873433D01*
X38169336Y6884813D01*
X38169331Y6884815D01*
X38167862Y6885302D01*
X38002797Y6939999D01*
X38002795Y6940000D01*
X37900010Y6950500D01*
X36599998Y6950500D01*
X36599981Y6950499D01*
X36497203Y6940000D01*
X36497200Y6939999D01*
X36330668Y6884815D01*
X36330663Y6884813D01*
X36181342Y6792711D01*
X36057289Y6668658D01*
X35965187Y6519337D01*
X35965185Y6519332D01*
X35949196Y6471080D01*
X35910001Y6352797D01*
X35910001Y6352796D01*
X35910000Y6352796D01*
X35899500Y6250017D01*
X35899500Y4649999D01*
X25500000Y4649999D01*
X25500000Y21035951D01*
X25519685Y21102990D01*
X25522413Y21107057D01*
X25550568Y21147266D01*
X25571307Y21191741D01*
X25577618Y21205274D01*
X25623790Y21257714D01*
X25690983Y21276866D01*
X25757865Y21256651D01*
X25802382Y21205275D01*
X25829431Y21147268D01*
X25829432Y21147266D01*
X25959954Y20960859D01*
X26120858Y20799955D01*
X26120861Y20799953D01*
X26307266Y20669432D01*
X26513504Y20573261D01*
X26733308Y20514365D01*
X26895230Y20500199D01*
X26959998Y20494532D01*
X26960000Y20494532D01*
X26960002Y20494532D01*
X27016672Y20499491D01*
X27186692Y20514365D01*
X27406496Y20573261D01*
X27612734Y20669432D01*
X27799139Y20799953D01*
X27960047Y20960861D01*
X28090568Y21147266D01*
X28117618Y21205276D01*
X28163790Y21257715D01*
X28230983Y21276867D01*
X28297865Y21256652D01*
X28342382Y21205275D01*
X28369429Y21147272D01*
X28369432Y21147266D01*
X28499954Y20960859D01*
X28660858Y20799955D01*
X28660861Y20799953D01*
X28847266Y20669432D01*
X29053504Y20573261D01*
X29273308Y20514365D01*
X29435230Y20500199D01*
X29499998Y20494532D01*
X29500000Y20494532D01*
X29500002Y20494532D01*
X29556672Y20499491D01*
X29726692Y20514365D01*
X29946496Y20573261D01*
X30152734Y20669432D01*
X30339139Y20799953D01*
X30500047Y20960861D01*
X30630568Y21147266D01*
X30726739Y21353504D01*
X30785635Y21573308D01*
X30800500Y21743216D01*
X30800500Y22256784D01*
X30785635Y22426692D01*
X30726739Y22646496D01*
X30630568Y22852734D01*
X30500047Y23039139D01*
X30500045Y23039142D01*
X30339141Y23200046D01*
X30152734Y23330568D01*
X30152732Y23330569D01*
X29946497Y23426739D01*
X29946488Y23426742D01*
X29726697Y23485634D01*
X29726693Y23485635D01*
X29726692Y23485635D01*
X29726691Y23485636D01*
X29726686Y23485636D01*
X29500002Y23505468D01*
X29499998Y23505468D01*
X29273313Y23485636D01*
X29273302Y23485634D01*
X29053511Y23426742D01*
X29053502Y23426739D01*
X28847267Y23330569D01*
X28847265Y23330568D01*
X28660858Y23200046D01*
X28499954Y23039142D01*
X28369432Y22852735D01*
X28369431Y22852733D01*
X28342382Y22794725D01*
X28296209Y22742286D01*
X28229016Y22723134D01*
X28162135Y22743350D01*
X28117618Y22794725D01*
X28094638Y22844005D01*
X28090568Y22852734D01*
X27960047Y23039139D01*
X27960045Y23039142D01*
X27799141Y23200046D01*
X27612734Y23330568D01*
X27612732Y23330569D01*
X27406497Y23426739D01*
X27406488Y23426742D01*
X27186697Y23485634D01*
X27186693Y23485635D01*
X27186692Y23485635D01*
X27186691Y23485636D01*
X27186686Y23485636D01*
X26960002Y23505468D01*
X26959998Y23505468D01*
X26733313Y23485636D01*
X26733302Y23485634D01*
X26513511Y23426742D01*
X26513502Y23426739D01*
X26307267Y23330569D01*
X26307265Y23330568D01*
X26120858Y23200046D01*
X25959954Y23039142D01*
X25829432Y22852735D01*
X25829431Y22852733D01*
X25802382Y22794725D01*
X25756209Y22742286D01*
X25689016Y22723134D01*
X25622135Y22743350D01*
X25577618Y22794725D01*
X25554638Y22844005D01*
X25550568Y22852734D01*
X25550566Y22852737D01*
X25522424Y22892930D01*
X25500097Y22959137D01*
X25500000Y22964052D01*
X25500000Y29719271D01*
X25519685Y29786310D01*
X25572489Y29832065D01*
X25641647Y29842009D01*
X25705203Y29812984D01*
X25711676Y29806957D01*
X32397404Y23121229D01*
X32397425Y23121206D01*
X32513882Y23004749D01*
X32514121Y23004526D01*
X32611903Y22906744D01*
X32946170Y22617101D01*
X32946170Y22617100D01*
X33300258Y22352034D01*
X33300257Y22352035D01*
X33672339Y22112912D01*
X34060536Y21900940D01*
X34405903Y21743216D01*
X34462861Y21717204D01*
X34648490Y21647967D01*
X34848642Y21573313D01*
X34877271Y21562635D01*
X35301653Y21438024D01*
X35301655Y21438024D01*
X35301657Y21438023D01*
X35301656Y21438023D01*
X35733840Y21344005D01*
X36171634Y21281057D01*
X36612808Y21249501D01*
X36612809Y21249501D01*
X36731800Y21249501D01*
X36731808Y21249500D01*
X36833958Y21249500D01*
X36912839Y21249499D01*
X36912844Y21249500D01*
X53746031Y21249500D01*
X54111684Y21235132D01*
X54116469Y21234755D01*
X54477475Y21192025D01*
X54482238Y21191271D01*
X54838764Y21120352D01*
X54843464Y21119223D01*
X55193308Y21020556D01*
X55197921Y21019057D01*
X55538931Y20893250D01*
X55543430Y20891386D01*
X55873516Y20739214D01*
X55877842Y20737010D01*
X56194993Y20559396D01*
X56199109Y20556874D01*
X56292410Y20494532D01*
X56501331Y20354935D01*
X56505269Y20352075D01*
X56790719Y20127043D01*
X56794403Y20123896D01*
X57063102Y19875516D01*
X57063291Y19875341D01*
X69751452Y7187181D01*
X69784937Y7125858D01*
X69779953Y7056166D01*
X69738081Y7000233D01*
X69672617Y6975816D01*
X69663771Y6975500D01*
X69349999Y6975500D01*
X69349980Y6975499D01*
X69247203Y6965000D01*
X69247200Y6964999D01*
X69080668Y6909815D01*
X69080663Y6909813D01*
X68931342Y6817711D01*
X68807289Y6693658D01*
X68715187Y6544337D01*
X68715185Y6544332D01*
X68697465Y6490856D01*
X68660001Y6377797D01*
X68660001Y6377796D01*
X68660000Y6377796D01*
X68649500Y6275017D01*
X68649500Y4724999D01*
X68649501Y4724982D01*
X68660000Y4622204D01*
X68660001Y4622201D01*
X68715185Y4455669D01*
X68715187Y4455664D01*
X68739243Y4416663D01*
X68807288Y4306344D01*
X68931344Y4182288D01*
X69080666Y4090186D01*
X69247203Y4035001D01*
X69349991Y4024500D01*
X70650008Y4024501D01*
X70752797Y4035001D01*
X70919334Y4090186D01*
X71068656Y4182288D01*
X71192712Y4306344D01*
X71284814Y4455666D01*
X71284814Y4455669D01*
X71288178Y4461121D01*
X71340126Y4507846D01*
X71409088Y4519069D01*
X71473170Y4491226D01*
X71481398Y4483706D01*
X71628599Y4336505D01*
X71671675Y4306343D01*
X71822165Y4200968D01*
X71822167Y4200967D01*
X71822170Y4200965D01*
X72036337Y4101097D01*
X72264592Y4039937D01*
X72441034Y4024500D01*
X72499999Y4019341D01*
X72500000Y4019341D01*
X72500001Y4019341D01*
X72558966Y4024500D01*
X72735408Y4039937D01*
X72963663Y4101097D01*
X73177829Y4200965D01*
X73371401Y4336505D01*
X73538495Y4503599D01*
X73648426Y4660598D01*
X73703000Y4704221D01*
X73772499Y4711415D01*
X73834853Y4679893D01*
X73851574Y4660597D01*
X73878480Y4622171D01*
X73961275Y4503927D01*
X73961508Y4503595D01*
X74048441Y4416663D01*
X74128599Y4336505D01*
X74171675Y4306343D01*
X74322165Y4200968D01*
X74322167Y4200967D01*
X74322170Y4200965D01*
X74536337Y4101097D01*
X74764592Y4039937D01*
X74941034Y4024500D01*
X74999999Y4019341D01*
X75000000Y4019341D01*
X75000001Y4019341D01*
X75058966Y4024500D01*
X75235408Y4039937D01*
X75463663Y4101097D01*
X75677829Y4200965D01*
X75871401Y4336505D01*
X76038495Y4503599D01*
X76148732Y4661035D01*
X76203306Y4704658D01*
X76272805Y4711852D01*
X76335159Y4680330D01*
X76351880Y4661033D01*
X76461886Y4503927D01*
X76461891Y4503921D01*
X76628917Y4336895D01*
X76822421Y4201400D01*
X77036507Y4101571D01*
X77036516Y4101567D01*
X77249998Y4044367D01*
X77249999Y4912957D01*
X77269683Y4979996D01*
X77322487Y5025751D01*
X77391643Y5035695D01*
X77466025Y5025000D01*
X77466028Y5025000D01*
X77533974Y5025000D01*
X77533975Y5025000D01*
X77603570Y5035007D01*
X77608353Y5035694D01*
X77677512Y5025750D01*
X77730316Y4979995D01*
X77750000Y4912956D01*
X77749999Y4044367D01*
X77963483Y4101567D01*
X77963492Y4101571D01*
X78177577Y4201400D01*
X78177579Y4201401D01*
X78371073Y4336887D01*
X78371079Y4336892D01*
X78538108Y4503921D01*
X78538113Y4503927D01*
X78673599Y4697421D01*
X78673600Y4697423D01*
X78773429Y4911508D01*
X78773433Y4911517D01*
X78834567Y5139674D01*
X78834569Y5139684D01*
X78844221Y5250000D01*
X78087292Y5250000D01*
X78020253Y5269685D01*
X77974498Y5322489D01*
X77964554Y5391647D01*
X77968314Y5408933D01*
X77975000Y5431706D01*
X77975000Y5568295D01*
X77968314Y5591067D01*
X77968316Y5660937D01*
X78006091Y5719714D01*
X78069647Y5748738D01*
X78087292Y5750000D01*
X78844221Y5750000D01*
X78834569Y5860317D01*
X78834567Y5860327D01*
X78773433Y6088484D01*
X78773429Y6088493D01*
X78673600Y6302578D01*
X78673599Y6302580D01*
X78538113Y6496074D01*
X78538108Y6496080D01*
X78371082Y6663106D01*
X78177578Y6798601D01*
X77963492Y6898430D01*
X77963486Y6898433D01*
X77750000Y6955636D01*
X77750000Y6087044D01*
X77730315Y6020005D01*
X77677511Y5974250D01*
X77608353Y5964306D01*
X77582064Y5968086D01*
X77533975Y5975000D01*
X77466025Y5975000D01*
X77391646Y5964306D01*
X77322487Y5974250D01*
X77269683Y6020005D01*
X77249999Y6087044D01*
X77249999Y6955636D01*
X77036513Y6898433D01*
X77036507Y6898430D01*
X76822422Y6798601D01*
X76822420Y6798600D01*
X76628926Y6663114D01*
X76628920Y6663109D01*
X76461891Y6496080D01*
X76461890Y6496078D01*
X76351880Y6338968D01*
X76297303Y6295343D01*
X76227804Y6288151D01*
X76165450Y6319673D01*
X76148730Y6338969D01*
X76038494Y6496403D01*
X75871402Y6663494D01*
X75871395Y6663499D01*
X75677834Y6799033D01*
X75677830Y6799035D01*
X75463663Y6898903D01*
X75392344Y6918014D01*
X75386591Y6919860D01*
X74218524Y7358526D01*
X74174438Y7386929D01*
X70916499Y10644868D01*
X73257580Y10644868D01*
X73277874Y10510232D01*
X73296684Y10385440D01*
X73296685Y10385438D01*
X73296686Y10385432D01*
X73374018Y10134729D01*
X73487847Y9898359D01*
X73487848Y9898358D01*
X73487850Y9898355D01*
X73487852Y9898351D01*
X73635647Y9681576D01*
X73814094Y9489254D01*
X73814098Y9489251D01*
X73814099Y9489250D01*
X74019223Y9325669D01*
X74246437Y9194487D01*
X74490664Y9098635D01*
X74746450Y9040253D01*
X74746456Y9040253D01*
X74746459Y9040252D01*
X74942580Y9025555D01*
X74942586Y9025555D01*
X75073580Y9025555D01*
X75269700Y9040252D01*
X75269702Y9040253D01*
X75269710Y9040253D01*
X75525496Y9098635D01*
X75769723Y9194487D01*
X75996937Y9325669D01*
X76202061Y9489250D01*
X76380513Y9681576D01*
X76528308Y9898351D01*
X76642143Y10134732D01*
X76719476Y10385440D01*
X76758580Y10644873D01*
X76758580Y10907237D01*
X76719476Y11166670D01*
X76642143Y11417378D01*
X76630201Y11442175D01*
X76528312Y11653752D01*
X76528311Y11653753D01*
X76528310Y11653754D01*
X76528308Y11653759D01*
X76380513Y11870534D01*
X76370521Y11881302D01*
X76202065Y12062857D01*
X76162613Y12094319D01*
X75996937Y12226441D01*
X75769723Y12357623D01*
X75525496Y12453475D01*
X75525491Y12453477D01*
X75525482Y12453479D01*
X75307898Y12503141D01*
X75269710Y12511857D01*
X75269709Y12511858D01*
X75269705Y12511858D01*
X75269700Y12511859D01*
X75073580Y12526555D01*
X75073574Y12526555D01*
X74942586Y12526555D01*
X74942580Y12526555D01*
X74746459Y12511859D01*
X74746454Y12511858D01*
X74490677Y12453479D01*
X74490658Y12453473D01*
X74246436Y12357623D01*
X74019223Y12226441D01*
X73814094Y12062857D01*
X73635647Y11870535D01*
X73487848Y11653753D01*
X73487847Y11653752D01*
X73374018Y11417382D01*
X73296686Y11166679D01*
X73296685Y11166674D01*
X73296684Y11166670D01*
X73281933Y11068808D01*
X73257580Y10907243D01*
X73257580Y10644868D01*
X70916499Y10644868D01*
X59092438Y22468930D01*
X59092151Y22469201D01*
X58968095Y22593258D01*
X58633829Y22882900D01*
X58633829Y22882901D01*
X58279741Y23147967D01*
X58279742Y23147966D01*
X57907659Y23387088D01*
X57519463Y23599061D01*
X57117140Y23782796D01*
X57117141Y23782796D01*
X57117138Y23782797D01*
X56702727Y23937365D01*
X56467198Y24006524D01*
X56408421Y24044298D01*
X56379396Y24107853D01*
X56389340Y24177012D01*
X56435095Y24229816D01*
X56502134Y24249500D01*
X59167155Y24249500D01*
X59167160Y24249499D01*
X59194668Y24249500D01*
X59194696Y24249492D01*
X59246041Y24249492D01*
X59246041Y24249491D01*
X59467190Y24249492D01*
X59467191Y24249492D01*
X59908366Y24281048D01*
X60346160Y24343996D01*
X60778346Y24438014D01*
X60778345Y24438014D01*
X60778346Y24438015D01*
X60778349Y24438015D01*
X61202731Y24562627D01*
X61202753Y24562635D01*
X61471127Y24662734D01*
X61617142Y24717195D01*
X61803764Y24802423D01*
X62019468Y24900932D01*
X62407665Y25112904D01*
X62407678Y25112912D01*
X62733283Y25322166D01*
X62779748Y25352027D01*
X62779747Y25352026D01*
X63133830Y25617088D01*
X63133829Y25617088D01*
X63468095Y25906731D01*
X63468098Y25906734D01*
X63552237Y25990875D01*
X63552246Y25990881D01*
X63624474Y26063110D01*
X63624475Y26063109D01*
X63680252Y26118886D01*
X63680252Y26118887D01*
X63697680Y26136315D01*
X63697685Y26136322D01*
X63914051Y26352686D01*
X63914059Y26352692D01*
X63921117Y26359751D01*
X63921120Y26359752D01*
X63976897Y26415530D01*
X64245587Y26663910D01*
X64249275Y26667060D01*
X64512355Y26874457D01*
X64534717Y26892086D01*
X64538657Y26894949D01*
X64840872Y27096884D01*
X64845012Y27099420D01*
X64876577Y27117097D01*
X65162157Y27277029D01*
X65166460Y27279220D01*
X65496590Y27431410D01*
X65501033Y27433249D01*
X65842079Y27559064D01*
X65846659Y27560551D01*
X66196518Y27659216D01*
X66201213Y27660343D01*
X66557723Y27731250D01*
X66562509Y27732008D01*
X66923485Y27774723D01*
X66928305Y27775102D01*
X67293941Y27789458D01*
X67293941Y27789459D01*
X67295007Y27789500D01*
X67372821Y27789498D01*
X67372825Y27789500D01*
X67376156Y27789499D01*
X67376191Y27789500D01*
X73168925Y27789500D01*
X73213918Y27781049D01*
X73339857Y27732010D01*
X74243582Y27380111D01*
X74267153Y27370933D01*
X74322481Y27328265D01*
X74345958Y27262457D01*
X74330130Y27194404D01*
X74293284Y27153809D01*
X74128594Y27038492D01*
X73961505Y26871403D01*
X73825965Y26677831D01*
X73825964Y26677829D01*
X73726098Y26463665D01*
X73726094Y26463656D01*
X73664938Y26235414D01*
X73664936Y26235404D01*
X73644341Y26000001D01*
X73644341Y26000000D01*
X73664936Y25764597D01*
X73664938Y25764587D01*
X73726094Y25536345D01*
X73726096Y25536341D01*
X73726097Y25536337D01*
X73800811Y25376113D01*
X73825965Y25322170D01*
X73825967Y25322166D01*
X73934281Y25167479D01*
X73961501Y25128604D01*
X73961506Y25128598D01*
X74083818Y25006286D01*
X74117303Y24944963D01*
X74112319Y24875271D01*
X74070447Y24819338D01*
X74039471Y24802423D01*
X73907912Y24753354D01*
X73907906Y24753351D01*
X73792812Y24667191D01*
X73792809Y24667188D01*
X73706649Y24552094D01*
X73706645Y24552087D01*
X73656403Y24417380D01*
X73656401Y24417373D01*
X73650000Y24357845D01*
X73650000Y24357828D01*
X73649999Y23710001D01*
X73650000Y23710000D01*
X74386653Y23710000D01*
X74453692Y23690315D01*
X74499447Y23637511D01*
X74509391Y23568353D01*
X74505631Y23551067D01*
X74500000Y23531889D01*
X74500000Y23388111D01*
X74500301Y23387087D01*
X74505631Y23368933D01*
X74505630Y23299064D01*
X74467855Y23240286D01*
X74404299Y23211262D01*
X74386653Y23210000D01*
X73650000Y23210000D01*
X73650000Y22562156D01*
X73656401Y22502628D01*
X73656403Y22502621D01*
X73706645Y22367914D01*
X73706649Y22367907D01*
X73792809Y22252813D01*
X73792812Y22252810D01*
X73907906Y22166650D01*
X73907913Y22166646D01*
X74042620Y22116404D01*
X74042627Y22116402D01*
X74102155Y22110001D01*
X74102172Y22110000D01*
X74750000Y22110000D01*
X74750000Y22847699D01*
X74769685Y22914738D01*
X74822489Y22960493D01*
X74891647Y22970437D01*
X74964237Y22960000D01*
X74964238Y22960000D01*
X75035762Y22960000D01*
X75035763Y22960000D01*
X75108353Y22970437D01*
X75177512Y22960493D01*
X75230315Y22914738D01*
X75250000Y22847699D01*
X75249999Y22110001D01*
X75250000Y22110000D01*
X75897828Y22110000D01*
X75897844Y22110001D01*
X75957372Y22116402D01*
X75957379Y22116404D01*
X76092086Y22166646D01*
X76092093Y22166650D01*
X76207187Y22252810D01*
X76207190Y22252813D01*
X76293350Y22367907D01*
X76293354Y22367914D01*
X76343596Y22502621D01*
X76343598Y22502628D01*
X76349999Y22562156D01*
X76350000Y22562173D01*
X76350000Y23210000D01*
X75613347Y23210000D01*
X75546308Y23229685D01*
X75500553Y23282489D01*
X75490609Y23351647D01*
X75494369Y23368933D01*
X75499699Y23387087D01*
X75500000Y23388111D01*
X75500000Y23531889D01*
X75494368Y23551067D01*
X75494370Y23620936D01*
X75532145Y23679714D01*
X75595701Y23708738D01*
X75613347Y23710000D01*
X76350000Y23710000D01*
X76350000Y24357828D01*
X76349999Y24357845D01*
X76343598Y24417373D01*
X76343596Y24417380D01*
X76293354Y24552087D01*
X76293350Y24552094D01*
X76207190Y24667188D01*
X76207187Y24667191D01*
X76092093Y24753351D01*
X76092088Y24753354D01*
X75960528Y24802423D01*
X75904595Y24844295D01*
X75880178Y24909759D01*
X75895030Y24978032D01*
X75916175Y25006280D01*
X76038495Y25128599D01*
X76174035Y25322170D01*
X76273903Y25536337D01*
X76335063Y25764592D01*
X76355659Y26000000D01*
X76355564Y26001081D01*
X76345258Y26118885D01*
X76335063Y26235408D01*
X76273903Y26463663D01*
X76174035Y26677829D01*
X76089960Y26797902D01*
X76038494Y26871403D01*
X75871402Y27038494D01*
X75871396Y27038499D01*
X75685842Y27168425D01*
X75642217Y27223002D01*
X75635023Y27292500D01*
X75666546Y27354855D01*
X75685842Y27371575D01*
X75839876Y27479431D01*
X75871401Y27501505D01*
X76038495Y27668599D01*
X76174035Y27862170D01*
X76273903Y28076337D01*
X76335063Y28304592D01*
X76355659Y28540000D01*
X76335063Y28775408D01*
X76280948Y28977372D01*
X76273905Y29003656D01*
X76273904Y29003657D01*
X76273903Y29003663D01*
X76174035Y29217829D01*
X76145262Y29258922D01*
X76038494Y29411403D01*
X75871402Y29578494D01*
X75871396Y29578499D01*
X75685842Y29708425D01*
X75642217Y29763002D01*
X75635023Y29832500D01*
X75666546Y29894855D01*
X75685842Y29911575D01*
X75773933Y29973257D01*
X75871401Y30041505D01*
X76038495Y30208599D01*
X76174035Y30402170D01*
X76273903Y30616337D01*
X76335063Y30844592D01*
X76355659Y31080000D01*
X76335063Y31315408D01*
X76273903Y31543663D01*
X76174035Y31757829D01*
X76145262Y31798922D01*
X76038494Y31951403D01*
X75871402Y32118494D01*
X75871396Y32118499D01*
X75685842Y32248425D01*
X75642217Y32303002D01*
X75635023Y32372500D01*
X75666546Y32434855D01*
X75685842Y32451575D01*
X75755000Y32500000D01*
X75871401Y32581505D01*
X76038495Y32748599D01*
X76174035Y32942170D01*
X76273903Y33156337D01*
X76335063Y33384592D01*
X76355659Y33620000D01*
X76335063Y33855408D01*
X76273903Y34083663D01*
X76174035Y34297829D01*
X76123151Y34370500D01*
X76038494Y34491403D01*
X75871402Y34658494D01*
X75871396Y34658499D01*
X75685842Y34788425D01*
X75642217Y34843002D01*
X75635023Y34912500D01*
X75666546Y34974855D01*
X75685842Y34991575D01*
X75784414Y35060596D01*
X75871401Y35121505D01*
X76038495Y35288599D01*
X76174035Y35482170D01*
X76273903Y35696337D01*
X76335063Y35924592D01*
X76355659Y36160000D01*
X76335063Y36395408D01*
X76273903Y36623663D01*
X76174035Y36837829D01*
X76147647Y36875516D01*
X76038494Y37031403D01*
X75871402Y37198494D01*
X75871401Y37198495D01*
X75685842Y37328425D01*
X75685841Y37328426D01*
X75642216Y37383003D01*
X75635024Y37452502D01*
X75666546Y37514856D01*
X75685836Y37531572D01*
X75871401Y37661505D01*
X76038495Y37828599D01*
X76174035Y38022170D01*
X76273903Y38236337D01*
X76335063Y38464592D01*
X76355659Y38700000D01*
X76335063Y38935408D01*
X76273903Y39163663D01*
X76174035Y39377829D01*
X76132349Y39437364D01*
X76038494Y39571403D01*
X75871402Y39738494D01*
X75871395Y39738499D01*
X75854257Y39750499D01*
X75832521Y39765719D01*
X75677834Y39874033D01*
X75677830Y39874035D01*
X75677828Y39874036D01*
X75463663Y39973903D01*
X75463659Y39973904D01*
X75463655Y39973906D01*
X75235413Y40035062D01*
X75235403Y40035064D01*
X75000001Y40055659D01*
X74999999Y40055659D01*
X74764596Y40035064D01*
X74764586Y40035062D01*
X74536344Y39973906D01*
X74536335Y39973902D01*
X74322171Y39874036D01*
X74322169Y39874035D01*
X74128597Y39738495D01*
X73961505Y39571403D01*
X73825965Y39377831D01*
X73825964Y39377829D01*
X73726098Y39163665D01*
X73726094Y39163656D01*
X73664938Y38935414D01*
X73664936Y38935404D01*
X73644341Y38700001D01*
X73644341Y38700000D01*
X73664936Y38464597D01*
X73664938Y38464587D01*
X73726094Y38236345D01*
X73726096Y38236341D01*
X73726097Y38236337D01*
X73792815Y38093261D01*
X73825965Y38022170D01*
X73825967Y38022166D01*
X73961501Y37828605D01*
X73961506Y37828598D01*
X74128597Y37661507D01*
X74128603Y37661502D01*
X74314158Y37531575D01*
X74357783Y37476998D01*
X74364977Y37407500D01*
X74333454Y37345145D01*
X74314158Y37328425D01*
X74128597Y37198495D01*
X73961505Y37031403D01*
X73825965Y36837831D01*
X73825964Y36837829D01*
X73726098Y36623665D01*
X73726094Y36623656D01*
X73664938Y36395414D01*
X73664936Y36395404D01*
X73644341Y36160001D01*
X73644341Y36160000D01*
X73664936Y35924597D01*
X73664938Y35924587D01*
X73726094Y35696345D01*
X73726096Y35696341D01*
X73726097Y35696337D01*
X73819455Y35496130D01*
X73825965Y35482170D01*
X73825967Y35482166D01*
X73934281Y35327479D01*
X73961505Y35288599D01*
X74128599Y35121505D01*
X74293282Y35006193D01*
X74336907Y34951616D01*
X74344101Y34882118D01*
X74312578Y34819763D01*
X74267152Y34789069D01*
X73213916Y34378951D01*
X73168923Y34370500D01*
X66633968Y34370500D01*
X66268342Y34384868D01*
X66263508Y34385248D01*
X66083022Y34406612D01*
X65902551Y34427974D01*
X65897741Y34428736D01*
X65541259Y34499647D01*
X65536528Y34500783D01*
X65186708Y34599445D01*
X65182078Y34600949D01*
X64841065Y34726759D01*
X64836593Y34728611D01*
X64525141Y34872196D01*
X64506506Y34880787D01*
X64502166Y34882998D01*
X64489663Y34890000D01*
X64308293Y34991575D01*
X64185051Y35060596D01*
X64180899Y35063141D01*
X63878687Y35265076D01*
X63874747Y35267939D01*
X63589306Y35492967D01*
X63585603Y35496130D01*
X63369025Y35696337D01*
X63316925Y35744499D01*
X63316924Y35744499D01*
X63316194Y35745174D01*
X61093569Y37967799D01*
X61093568Y37967800D01*
X61092438Y37968930D01*
X61092151Y37969201D01*
X60968095Y38093258D01*
X60633829Y38382900D01*
X60633829Y38382901D01*
X60279741Y38647967D01*
X60279742Y38647966D01*
X59907659Y38887088D01*
X59519463Y39099061D01*
X59117140Y39282796D01*
X59117141Y39282796D01*
X59117138Y39282797D01*
X58702727Y39437365D01*
X58278346Y39561976D01*
X58278343Y39561977D01*
X57846158Y39655995D01*
X57408365Y39718943D01*
X56967191Y39750499D01*
X56833758Y39750500D01*
X56833757Y39750500D01*
X56746041Y39750500D01*
X56667160Y39750501D01*
X56667159Y39750501D01*
X56664136Y39750501D01*
X56664117Y39750500D01*
X52385176Y39750500D01*
X52362324Y39752624D01*
X51751768Y39867103D01*
X51594646Y39900500D01*
X51566069Y39900500D01*
X51560277Y39900771D01*
X51558849Y39900905D01*
X51558847Y39900905D01*
X51486570Y39900500D01*
X51405354Y39900500D01*
X51372897Y39893602D01*
X51220197Y39861145D01*
X51220192Y39861143D01*
X51047270Y39784152D01*
X51047265Y39784149D01*
X50894129Y39672889D01*
X50767466Y39532215D01*
X50672821Y39368285D01*
X50672818Y39368278D01*
X50614327Y39188260D01*
X50614326Y39188256D01*
X50594540Y39000000D01*
X50614326Y38811744D01*
X50614327Y38811741D01*
X50672818Y38631723D01*
X50672821Y38631716D01*
X50767467Y38467784D01*
X50843897Y38382900D01*
X50894129Y38327112D01*
X51047265Y38215852D01*
X51047270Y38215849D01*
X51220192Y38138858D01*
X51220197Y38138856D01*
X51405354Y38099500D01*
X51405355Y38099500D01*
X51594644Y38099500D01*
X51594646Y38099500D01*
X51751809Y38132906D01*
X52362317Y38247376D01*
X52385170Y38249500D01*
X56667150Y38249500D01*
X56746031Y38249500D01*
X57111684Y38235132D01*
X57116469Y38234755D01*
X57477475Y38192025D01*
X57482238Y38191271D01*
X57838764Y38120352D01*
X57843464Y38119223D01*
X58193308Y38020556D01*
X58197921Y38019057D01*
X58538931Y37893250D01*
X58543430Y37891386D01*
X58873516Y37739214D01*
X58877842Y37737010D01*
X59194993Y37559396D01*
X59199109Y37556874D01*
X59318651Y37476998D01*
X59501331Y37354935D01*
X59505269Y37352075D01*
X59790719Y37127043D01*
X59794403Y37123896D01*
X60063102Y36875516D01*
X60063291Y36875341D01*
X62287198Y34651433D01*
X62288226Y34650463D01*
X62411920Y34526766D01*
X62525600Y34428260D01*
X62746185Y34237117D01*
X62746185Y34237118D01*
X63100263Y33972053D01*
X63240205Y33882116D01*
X63472341Y33732927D01*
X63472348Y33732923D01*
X63472353Y33732920D01*
X63860526Y33520957D01*
X63860536Y33520953D01*
X63860535Y33520953D01*
X64262862Y33337212D01*
X64262868Y33337210D01*
X64262872Y33337208D01*
X64677268Y33182642D01*
X65101653Y33058027D01*
X65533840Y32964007D01*
X65971634Y32901058D01*
X66412808Y32869501D01*
X66412809Y32869501D01*
X66531800Y32869501D01*
X66531808Y32869500D01*
X66633958Y32869500D01*
X66712839Y32869499D01*
X66712844Y32869500D01*
X73168925Y32869500D01*
X73213918Y32861049D01*
X74229614Y32465550D01*
X74284942Y32422882D01*
X74308419Y32357074D01*
X74292591Y32289021D01*
X74242483Y32240329D01*
X74229614Y32234452D01*
X73213916Y31838951D01*
X73168923Y31830500D01*
X67789155Y31830500D01*
X67787742Y31830461D01*
X67612837Y31830464D01*
X67612836Y31830464D01*
X67612835Y31830464D01*
X67171659Y31798923D01*
X66733858Y31735986D01*
X66301663Y31641977D01*
X65877276Y31517372D01*
X65773672Y31478731D01*
X65462866Y31362811D01*
X65462860Y31362808D01*
X65060527Y31179073D01*
X64672328Y30967102D01*
X64554623Y30891459D01*
X64300237Y30727975D01*
X64300238Y30727975D01*
X64123199Y30595445D01*
X63946160Y30462913D01*
X63775581Y30315103D01*
X63611889Y30173262D01*
X63611889Y30173261D01*
X63494611Y30055981D01*
X62064830Y28626202D01*
X62064707Y28626325D01*
X62061321Y28622827D01*
X61794419Y28376106D01*
X61790716Y28372943D01*
X61505277Y28147922D01*
X61501337Y28145060D01*
X61199131Y27943132D01*
X61194979Y27940587D01*
X60877850Y27762986D01*
X60873510Y27760775D01*
X60543434Y27608607D01*
X60538935Y27606743D01*
X60197924Y27480936D01*
X60193292Y27479431D01*
X59843482Y27380773D01*
X59838747Y27379636D01*
X59482260Y27308725D01*
X59477452Y27307964D01*
X59116495Y27265240D01*
X59111660Y27264859D01*
X58746260Y27250500D01*
X39953968Y27250500D01*
X39588338Y27264868D01*
X39583506Y27265248D01*
X39222544Y27307973D01*
X39217739Y27308734D01*
X38861253Y27379645D01*
X38856522Y27380781D01*
X38506706Y27479441D01*
X38502078Y27480945D01*
X38161068Y27606751D01*
X38156568Y27608615D01*
X37826482Y27760788D01*
X37822142Y27762999D01*
X37801211Y27774721D01*
X37505012Y27940602D01*
X37500882Y27943133D01*
X37198667Y28145067D01*
X37194727Y28147929D01*
X37108567Y28215852D01*
X36909281Y28372957D01*
X36905593Y28376107D01*
X36728292Y28540001D01*
X36636707Y28624661D01*
X36261368Y29000000D01*
X58094540Y29000000D01*
X58114326Y28811744D01*
X58114327Y28811741D01*
X58172818Y28631723D01*
X58172821Y28631716D01*
X58267467Y28467784D01*
X58394129Y28327113D01*
X58394129Y28327112D01*
X58547265Y28215852D01*
X58547270Y28215849D01*
X58720192Y28138858D01*
X58720197Y28138856D01*
X58905354Y28099500D01*
X58905355Y28099500D01*
X59094644Y28099500D01*
X59094646Y28099500D01*
X59279803Y28138856D01*
X59452730Y28215849D01*
X59605871Y28327112D01*
X59732533Y28467784D01*
X59773589Y28538898D01*
X59776087Y28542866D01*
X60141935Y29077568D01*
X60156583Y29095217D01*
X62404781Y31343416D01*
X62422430Y31358064D01*
X62922315Y31700089D01*
X62941898Y31711028D01*
X62952730Y31715849D01*
X62952730Y31715850D01*
X62952732Y31715850D01*
X63029300Y31771481D01*
X63105871Y31827112D01*
X63153308Y31879798D01*
X63155271Y31881877D01*
X63165682Y31892399D01*
X63165683Y31892403D01*
X63170593Y31898741D01*
X63173531Y31902258D01*
X63232533Y31967784D01*
X63327179Y32131716D01*
X63385674Y32311744D01*
X63405460Y32500000D01*
X63385674Y32688256D01*
X63327179Y32868284D01*
X63232533Y33032216D01*
X63105871Y33172888D01*
X63105870Y33172889D01*
X62952734Y33284149D01*
X62952729Y33284152D01*
X62779807Y33361143D01*
X62779802Y33361145D01*
X62634000Y33392135D01*
X62594646Y33400500D01*
X62405354Y33400500D01*
X62372897Y33393602D01*
X62220197Y33361145D01*
X62220192Y33361143D01*
X62047270Y33284152D01*
X62047265Y33284149D01*
X61894129Y33172889D01*
X61767469Y33032219D01*
X61767467Y33032217D01*
X61767466Y33032215D01*
X61726428Y32961137D01*
X61723910Y32957137D01*
X61358060Y32422433D01*
X61343403Y32404773D01*
X59095231Y30156601D01*
X59077571Y30141944D01*
X58577680Y29799913D01*
X58558104Y29788975D01*
X58547270Y29784151D01*
X58547267Y29784149D01*
X58394130Y29672890D01*
X58394127Y29672888D01*
X58346770Y29620292D01*
X58344781Y29618185D01*
X58334317Y29607603D01*
X58329400Y29601255D01*
X58326459Y29597735D01*
X58267468Y29532218D01*
X58267464Y29532213D01*
X58172821Y29368285D01*
X58172818Y29368278D01*
X58114327Y29188260D01*
X58114326Y29188256D01*
X58094540Y29000000D01*
X36261368Y29000000D01*
X25536319Y39725050D01*
X25502834Y39786373D01*
X25500000Y39812731D01*
X25500000Y43895951D01*
X25519685Y43962990D01*
X25522413Y43967057D01*
X25550568Y44007266D01*
X25577894Y44065869D01*
X25624064Y44118304D01*
X25691257Y44137457D01*
X25758139Y44117242D01*
X25802657Y44065867D01*
X25829867Y44007516D01*
X25960342Y43821180D01*
X26121179Y43660343D01*
X26307517Y43529866D01*
X26513673Y43433735D01*
X26513682Y43433731D01*
X26709999Y43381128D01*
X26710000Y43381129D01*
X26710000Y44247699D01*
X26729685Y44314738D01*
X26782489Y44360493D01*
X26851647Y44370437D01*
X26924237Y44360000D01*
X26924238Y44360000D01*
X26995762Y44360000D01*
X26995763Y44360000D01*
X27068353Y44370437D01*
X27137512Y44360493D01*
X27190315Y44314738D01*
X27210000Y44247699D01*
X27210000Y43381128D01*
X27406317Y43433731D01*
X27406326Y43433735D01*
X27612482Y43529866D01*
X27798820Y43660343D01*
X27959657Y43821180D01*
X28090132Y44007516D01*
X28117341Y44065866D01*
X28163513Y44118305D01*
X28230707Y44137458D01*
X28297588Y44117243D01*
X28342106Y44065867D01*
X28369431Y44007268D01*
X28369432Y44007266D01*
X28499954Y43820859D01*
X28660858Y43659955D01*
X28660861Y43659953D01*
X28847266Y43529432D01*
X29053504Y43433261D01*
X29273308Y43374365D01*
X29435230Y43360199D01*
X29499998Y43354532D01*
X29500000Y43354532D01*
X29500002Y43354532D01*
X29556673Y43359491D01*
X29726692Y43374365D01*
X29946496Y43433261D01*
X30152734Y43529432D01*
X30339139Y43659953D01*
X30500047Y43820861D01*
X30630568Y44007266D01*
X30726739Y44213504D01*
X30785635Y44433308D01*
X30800500Y44603216D01*
X30800500Y45116784D01*
X30785635Y45286692D01*
X30735901Y45472302D01*
X30726741Y45506489D01*
X30726738Y45506498D01*
X30682347Y45601694D01*
X30630568Y45712734D01*
X30500047Y45899139D01*
X30500045Y45899142D01*
X30339141Y46060046D01*
X30152734Y46190568D01*
X30152732Y46190569D01*
X29946497Y46286739D01*
X29946488Y46286742D01*
X29726697Y46345634D01*
X29726693Y46345635D01*
X29726692Y46345635D01*
X29726691Y46345636D01*
X29726686Y46345636D01*
X29500002Y46365468D01*
X29499998Y46365468D01*
X29273313Y46345636D01*
X29273302Y46345634D01*
X29053511Y46286742D01*
X29053502Y46286739D01*
X28847267Y46190569D01*
X28847265Y46190568D01*
X28660858Y46060046D01*
X28499954Y45899142D01*
X28397577Y45752930D01*
X28369432Y45712734D01*
X28369315Y45712482D01*
X28342106Y45654133D01*
X28295933Y45601694D01*
X28228739Y45582543D01*
X28161858Y45602759D01*
X28117342Y45654135D01*
X28090135Y45712480D01*
X28090134Y45712482D01*
X27959657Y45898821D01*
X27798820Y46059658D01*
X27612482Y46190135D01*
X27406328Y46286266D01*
X27210000Y46338873D01*
X27210000Y45472302D01*
X27190315Y45405263D01*
X27137511Y45359508D01*
X27068355Y45349564D01*
X26995766Y45360000D01*
X26995763Y45360000D01*
X26924237Y45360000D01*
X26924233Y45360000D01*
X26851645Y45349564D01*
X26782487Y45359508D01*
X26729684Y45405264D01*
X26710000Y45472302D01*
X26709999Y46338873D01*
X26513671Y46286266D01*
X26307517Y46190135D01*
X26121179Y46059658D01*
X25960342Y45898821D01*
X25829867Y45712485D01*
X25802657Y45654133D01*
X25756484Y45601694D01*
X25689290Y45582543D01*
X25622409Y45602759D01*
X25577893Y45654135D01*
X25550686Y45712480D01*
X25550568Y45712734D01*
X25550567Y45712736D01*
X25522424Y45752930D01*
X25500097Y45819137D01*
X25500000Y45824052D01*
X25500000Y49440828D01*
X73247420Y49440828D01*
X73267714Y49306192D01*
X73286524Y49181400D01*
X73286525Y49181398D01*
X73286526Y49181392D01*
X73363858Y48930689D01*
X73477687Y48694319D01*
X73477688Y48694318D01*
X73477690Y48694315D01*
X73477692Y48694311D01*
X73625487Y48477536D01*
X73803934Y48285214D01*
X73803938Y48285211D01*
X73803939Y48285210D01*
X74009063Y48121629D01*
X74236277Y47990447D01*
X74480504Y47894595D01*
X74736290Y47836213D01*
X74736296Y47836213D01*
X74736299Y47836212D01*
X74932420Y47821515D01*
X74932426Y47821515D01*
X75063420Y47821515D01*
X75259540Y47836212D01*
X75259542Y47836213D01*
X75259550Y47836213D01*
X75515336Y47894595D01*
X75759563Y47990447D01*
X75986777Y48121629D01*
X76191901Y48285210D01*
X76370353Y48477536D01*
X76518148Y48694311D01*
X76631983Y48930692D01*
X76709316Y49181400D01*
X76748420Y49440833D01*
X76748420Y49703197D01*
X76709316Y49962630D01*
X76631983Y50213338D01*
X76620041Y50238135D01*
X76518152Y50449712D01*
X76518151Y50449713D01*
X76518150Y50449714D01*
X76518148Y50449719D01*
X76370353Y50666494D01*
X76360361Y50677262D01*
X76191905Y50858817D01*
X76152453Y50890279D01*
X75986777Y51022401D01*
X75759563Y51153583D01*
X75515336Y51249435D01*
X75515331Y51249437D01*
X75515322Y51249439D01*
X75297738Y51299101D01*
X75259550Y51307817D01*
X75259549Y51307818D01*
X75259545Y51307818D01*
X75259540Y51307819D01*
X75063420Y51322515D01*
X75063414Y51322515D01*
X74932426Y51322515D01*
X74932420Y51322515D01*
X74736299Y51307819D01*
X74736294Y51307818D01*
X74480517Y51249439D01*
X74480498Y51249433D01*
X74236276Y51153583D01*
X74009063Y51022401D01*
X73803934Y50858817D01*
X73625487Y50666495D01*
X73477688Y50449713D01*
X73477687Y50449712D01*
X73363858Y50213342D01*
X73286526Y49962639D01*
X73286525Y49962634D01*
X73286524Y49962630D01*
X73271773Y49864768D01*
X73247420Y49703203D01*
X73247420Y49440828D01*
X25500000Y49440828D01*
X25500000Y54375500D01*
X25519685Y54442539D01*
X25572489Y54488294D01*
X25624000Y54499500D01*
X76948430Y54499500D01*
X77015469Y54479815D01*
G37*
%TD.AperFunction*%
%TD*%
%TA.AperFunction,Conductor*%
%TO.N,/RX*%
G36*
X73931678Y6926278D02*
G01*
X75273158Y6422487D01*
X75279699Y6416370D01*
X75280228Y6408094D01*
X75002157Y5504009D01*
X74996449Y5497109D01*
X74996317Y5497040D01*
X74217544Y5097265D01*
X74208619Y5096536D01*
X74201792Y5102331D01*
X74201452Y5103053D01*
X73574189Y6568096D01*
X73574084Y6577049D01*
X73576671Y6580971D01*
X73919298Y6923598D01*
X73927570Y6927024D01*
X73931678Y6926278D01*
G37*
%TD.AperFunction*%
%TD*%
%TA.AperFunction,Conductor*%
%TO.N,/SDA*%
G36*
X74673010Y31860955D02*
G01*
X74679108Y31854733D01*
X74999134Y31084489D01*
X74999143Y31075534D01*
X74999134Y31075511D01*
X74679108Y30305268D01*
X74672769Y30298943D01*
X74664058Y30298854D01*
X73307455Y30827098D01*
X73300989Y30833294D01*
X73300000Y30838001D01*
X73300000Y31322000D01*
X73303427Y31330273D01*
X73307455Y31332903D01*
X74664058Y31861147D01*
X74673010Y31860955D01*
G37*
%TD.AperFunction*%
%TD*%
%TA.AperFunction,Conductor*%
%TO.N,GND*%
G36*
X10013817Y17397410D02*
G01*
X10790457Y17251790D01*
X10797956Y17246897D01*
X10800000Y17240290D01*
X10800000Y16759711D01*
X10796573Y16751438D01*
X10790456Y16748211D01*
X10013820Y16602592D01*
X10005057Y16604436D01*
X10000164Y16611936D01*
X9999964Y16614054D01*
X9999000Y17000000D01*
X9999964Y17385941D01*
X10003412Y17394203D01*
X10011693Y17397609D01*
X10013817Y17397410D01*
G37*
%TD.AperFunction*%
%TD*%
M02*
