%TF.GenerationSoftware,KiCad,Pcbnew,7.0.7*%
%TF.CreationDate,2023-09-17T22:58:44+02:00*%
%TF.ProjectId,SHC_WEMOS,5348435f-5745-44d4-9f53-2e6b69636164,rev?*%
%TF.SameCoordinates,Original*%
%TF.FileFunction,Soldermask,Top*%
%TF.FilePolarity,Negative*%
%FSLAX46Y46*%
G04 Gerber Fmt 4.6, Leading zero omitted, Abs format (unit mm)*
G04 Created by KiCad (PCBNEW 7.0.7) date 2023-09-17 22:58:44*
%MOMM*%
%LPD*%
G01*
G04 APERTURE LIST*
G04 Aperture macros list*
%AMRoundRect*
0 Rectangle with rounded corners*
0 $1 Rounding radius*
0 $2 $3 $4 $5 $6 $7 $8 $9 X,Y pos of 4 corners*
0 Add a 4 corners polygon primitive as box body*
4,1,4,$2,$3,$4,$5,$6,$7,$8,$9,$2,$3,0*
0 Add four circle primitives for the rounded corners*
1,1,$1+$1,$2,$3*
1,1,$1+$1,$4,$5*
1,1,$1+$1,$6,$7*
1,1,$1+$1,$8,$9*
0 Add four rect primitives between the rounded corners*
20,1,$1+$1,$2,$3,$4,$5,0*
20,1,$1+$1,$4,$5,$6,$7,0*
20,1,$1+$1,$6,$7,$8,$9,0*
20,1,$1+$1,$8,$9,$2,$3,0*%
%AMFreePoly0*
4,1,19,0.500000,-0.750000,0.000000,-0.750000,0.000000,-0.744911,-0.071157,-0.744911,-0.207708,-0.704816,-0.327430,-0.627875,-0.420627,-0.520320,-0.479746,-0.390866,-0.500000,-0.250000,-0.500000,0.250000,-0.479746,0.390866,-0.420627,0.520320,-0.327430,0.627875,-0.207708,0.704816,-0.071157,0.744911,0.000000,0.744911,0.000000,0.750000,0.500000,0.750000,0.500000,-0.750000,0.500000,-0.750000,
$1*%
%AMFreePoly1*
4,1,19,0.000000,0.744911,0.071157,0.744911,0.207708,0.704816,0.327430,0.627875,0.420627,0.520320,0.479746,0.390866,0.500000,0.250000,0.500000,-0.250000,0.479746,-0.390866,0.420627,-0.520320,0.327430,-0.627875,0.207708,-0.704816,0.071157,-0.744911,0.000000,-0.744911,0.000000,-0.750000,-0.500000,-0.750000,-0.500000,0.750000,0.000000,0.750000,0.000000,0.744911,0.000000,0.744911,
$1*%
G04 Aperture macros list end*
%ADD10RoundRect,0.250000X-0.600000X-0.750000X0.600000X-0.750000X0.600000X0.750000X-0.600000X0.750000X0*%
%ADD11O,1.700000X2.000000*%
%ADD12RoundRect,0.200000X-0.200000X-0.275000X0.200000X-0.275000X0.200000X0.275000X-0.200000X0.275000X0*%
%ADD13RoundRect,0.135000X-0.135000X-0.185000X0.135000X-0.185000X0.135000X0.185000X-0.135000X0.185000X0*%
%ADD14R,1.700000X1.700000*%
%ADD15O,1.700000X1.700000*%
%ADD16RoundRect,0.250000X-0.600000X-0.725000X0.600000X-0.725000X0.600000X0.725000X-0.600000X0.725000X0*%
%ADD17O,1.700000X1.950000*%
%ADD18RoundRect,0.250000X-0.250000X-0.475000X0.250000X-0.475000X0.250000X0.475000X-0.250000X0.475000X0*%
%ADD19FreePoly0,180.000000*%
%ADD20FreePoly1,180.000000*%
%ADD21RoundRect,0.250000X-0.325000X-0.650000X0.325000X-0.650000X0.325000X0.650000X-0.325000X0.650000X0*%
%ADD22R,2.000000X2.000000*%
%ADD23O,1.600000X2.000000*%
%ADD24C,3.000000*%
G04 APERTURE END LIST*
D10*
%TO.C,J2*%
X37250000Y5450000D03*
D11*
X39750000Y5450000D03*
%TD*%
D12*
%TO.C,R6*%
X56175000Y25000000D03*
X57825000Y25000000D03*
%TD*%
D13*
%TO.C,R9*%
X3990000Y17000000D03*
X5010000Y17000000D03*
%TD*%
D14*
%TO.C,J6*%
X75000000Y23460000D03*
D15*
X75000000Y26000000D03*
X75000000Y28540000D03*
X75000000Y31080000D03*
X75000000Y33620000D03*
X75000000Y36160000D03*
X75000000Y38700000D03*
%TD*%
D16*
%TO.C,J5*%
X70000000Y5500000D03*
D17*
X72500000Y5500000D03*
X75000000Y5500000D03*
X77500000Y5500000D03*
%TD*%
D12*
%TO.C,R7*%
X56175000Y21000000D03*
X57825000Y21000000D03*
%TD*%
D18*
%TO.C,C7*%
X61050000Y21000000D03*
X62950000Y21000000D03*
%TD*%
D19*
%TO.C,JP2*%
X67800000Y41500000D03*
D20*
X66500000Y41500000D03*
%TD*%
D21*
%TO.C,C8*%
X27525000Y17500000D03*
X30475000Y17500000D03*
%TD*%
D12*
%TO.C,R3*%
X43175000Y31000000D03*
X44825000Y31000000D03*
%TD*%
D16*
%TO.C,J1*%
X4500000Y5450000D03*
D17*
X7000000Y5450000D03*
X9500000Y5450000D03*
X12000000Y5450000D03*
X14500000Y5450000D03*
%TD*%
D18*
%TO.C,C1*%
X48050000Y28000000D03*
X49950000Y28000000D03*
%TD*%
D10*
%TO.C,J4*%
X57750000Y5450000D03*
D11*
X60250000Y5450000D03*
%TD*%
D18*
%TO.C,C3*%
X48050000Y31000000D03*
X49950000Y31000000D03*
%TD*%
D22*
%TO.C,U1*%
X11720000Y22000000D03*
D23*
X14260000Y22000000D03*
X16800000Y22000000D03*
X19340000Y22000000D03*
X21880000Y22000000D03*
X24420000Y22000000D03*
X26960000Y22000000D03*
X29500000Y22000000D03*
X29500000Y44860000D03*
X26960000Y44860000D03*
X24420000Y44860000D03*
X21880000Y44860000D03*
X19340000Y44860000D03*
X16800000Y44860000D03*
X14260000Y44860000D03*
X11720000Y44860000D03*
%TD*%
D10*
%TO.C,J3*%
X47750000Y5450000D03*
D11*
X50250000Y5450000D03*
%TD*%
D18*
%TO.C,C6*%
X61100000Y25000000D03*
X63000000Y25000000D03*
%TD*%
%TO.C,C5*%
X48050000Y21000000D03*
X49950000Y21000000D03*
%TD*%
%TO.C,C4*%
X48050000Y34000000D03*
X49950000Y34000000D03*
%TD*%
D12*
%TO.C,R4*%
X43175000Y34000000D03*
X44825000Y34000000D03*
%TD*%
%TO.C,R2*%
X43175000Y37000000D03*
X44825000Y37000000D03*
%TD*%
D19*
%TO.C,JP1*%
X67650000Y36500000D03*
D20*
X66350000Y36500000D03*
%TD*%
D18*
%TO.C,C2*%
X48000000Y37000000D03*
X49900000Y37000000D03*
%TD*%
D13*
%TO.C,R8*%
X7500000Y17000000D03*
X8520000Y17000000D03*
%TD*%
D12*
%TO.C,R5*%
X43175000Y21000000D03*
X44825000Y21000000D03*
%TD*%
%TO.C,R1*%
X43175000Y28000000D03*
X44825000Y28000000D03*
%TD*%
D24*
%TO.C,REF\u002A\u002A*%
X75008080Y10776055D03*
X74997920Y49572015D03*
X7002120Y49561855D03*
X6997040Y10776055D03*
%TD*%
M02*
