%TF.GenerationSoftware,KiCad,Pcbnew,7.0.7*%
%TF.CreationDate,2023-09-17T22:58:44+02:00*%
%TF.ProjectId,SHC_WEMOS,5348435f-5745-44d4-9f53-2e6b69636164,rev?*%
%TF.SameCoordinates,Original*%
%TF.FileFunction,Soldermask,Bot*%
%TF.FilePolarity,Negative*%
%FSLAX46Y46*%
G04 Gerber Fmt 4.6, Leading zero omitted, Abs format (unit mm)*
G04 Created by KiCad (PCBNEW 7.0.7) date 2023-09-17 22:58:44*
%MOMM*%
%LPD*%
G01*
G04 APERTURE LIST*
G04 Aperture macros list*
%AMRoundRect*
0 Rectangle with rounded corners*
0 $1 Rounding radius*
0 $2 $3 $4 $5 $6 $7 $8 $9 X,Y pos of 4 corners*
0 Add a 4 corners polygon primitive as box body*
4,1,4,$2,$3,$4,$5,$6,$7,$8,$9,$2,$3,0*
0 Add four circle primitives for the rounded corners*
1,1,$1+$1,$2,$3*
1,1,$1+$1,$4,$5*
1,1,$1+$1,$6,$7*
1,1,$1+$1,$8,$9*
0 Add four rect primitives between the rounded corners*
20,1,$1+$1,$2,$3,$4,$5,0*
20,1,$1+$1,$4,$5,$6,$7,0*
20,1,$1+$1,$6,$7,$8,$9,0*
20,1,$1+$1,$8,$9,$2,$3,0*%
G04 Aperture macros list end*
%ADD10RoundRect,0.250000X-0.600000X-0.750000X0.600000X-0.750000X0.600000X0.750000X-0.600000X0.750000X0*%
%ADD11O,1.700000X2.000000*%
%ADD12R,1.700000X1.700000*%
%ADD13O,1.700000X1.700000*%
%ADD14RoundRect,0.250000X-0.600000X-0.725000X0.600000X-0.725000X0.600000X0.725000X-0.600000X0.725000X0*%
%ADD15O,1.700000X1.950000*%
%ADD16R,2.000000X2.000000*%
%ADD17O,1.600000X2.000000*%
%ADD18C,3.000000*%
G04 APERTURE END LIST*
D10*
%TO.C,J2*%
X37250000Y5450000D03*
D11*
X39750000Y5450000D03*
%TD*%
D12*
%TO.C,J6*%
X75000000Y23460000D03*
D13*
X75000000Y26000000D03*
X75000000Y28540000D03*
X75000000Y31080000D03*
X75000000Y33620000D03*
X75000000Y36160000D03*
X75000000Y38700000D03*
%TD*%
D14*
%TO.C,J5*%
X70000000Y5500000D03*
D15*
X72500000Y5500000D03*
X75000000Y5500000D03*
X77500000Y5500000D03*
%TD*%
D14*
%TO.C,J1*%
X4500000Y5450000D03*
D15*
X7000000Y5450000D03*
X9500000Y5450000D03*
X12000000Y5450000D03*
X14500000Y5450000D03*
%TD*%
D10*
%TO.C,J4*%
X57750000Y5450000D03*
D11*
X60250000Y5450000D03*
%TD*%
D16*
%TO.C,U1*%
X11720000Y22000000D03*
D17*
X14260000Y22000000D03*
X16800000Y22000000D03*
X19340000Y22000000D03*
X21880000Y22000000D03*
X24420000Y22000000D03*
X26960000Y22000000D03*
X29500000Y22000000D03*
X29500000Y44860000D03*
X26960000Y44860000D03*
X24420000Y44860000D03*
X21880000Y44860000D03*
X19340000Y44860000D03*
X16800000Y44860000D03*
X14260000Y44860000D03*
X11720000Y44860000D03*
%TD*%
D10*
%TO.C,J3*%
X47750000Y5450000D03*
D11*
X50250000Y5450000D03*
%TD*%
D18*
%TO.C,REF\u002A\u002A*%
X75008080Y10776055D03*
X74997920Y49572015D03*
X7002120Y49561855D03*
X6997040Y10776055D03*
%TD*%
M02*
