M48
; DRILL file {KiCad 7.0.7} date Sun Sep 17 22:58:45 2023
; FORMAT={-:-/ absolute / inch / decimal}
; #@! TF.CreationDate,2023-09-17T22:58:45+02:00
; #@! TF.GenerationSoftware,Kicad,Pcbnew,7.0.7
; #@! TF.FileFunction,Plated,1,2,PTH
FMAT,2
INCH
; #@! TA.AperFunction,Plated,PTH,ViaDrill
T1C0.0157
; #@! TA.AperFunction,Plated,PTH,ComponentDrill
T2C0.0374
; #@! TA.AperFunction,Plated,PTH,ComponentDrill
T3C0.0394
%
G90
G05
T1
X0.3937Y0.6693
X1.2795Y0.689
X1.8307Y1.4567
X1.8307Y1.3386
X1.8307Y1.2205
X1.8307Y1.1024
X1.8307Y0.8268
X2.0236Y0.8268
X2.0276Y1.5354
X2.0276Y1.4567
X2.0276Y1.3386
X2.0276Y1.2205
X2.0276Y1.1024
X2.3228Y1.1417
X2.4606Y1.2795
X2.5394Y1.6339
X2.5394Y1.437
X2.5591Y0.9843
X2.5591Y0.8268
T2
X0.1772Y0.2146
X0.2756Y0.2146
X0.374Y0.2146
X0.4724Y0.2146
X0.5709Y0.2146
X2.7559Y0.2165
X2.8543Y0.2165
X2.9528Y0.2165
X3.0512Y0.2165
T3
X0.4614Y1.7661
X0.4614Y0.8661
X0.5614Y1.7661
X0.5614Y0.8661
X0.6614Y1.7661
X0.6614Y0.8661
X0.7614Y1.7661
X0.7614Y0.8661
X0.8614Y1.7661
X0.8614Y0.8661
X0.9614Y1.7661
X0.9614Y0.8661
X1.0614Y1.7661
X1.0614Y0.8661
X1.1614Y1.7661
X1.1614Y0.8661
X1.4665Y0.2146
X1.565Y0.2146
X1.8799Y0.2146
X1.9783Y0.2146
X2.2736Y0.2146
X2.372Y0.2146
X2.9528Y1.5236
X2.9528Y1.4236
X2.9528Y1.3236
X2.9528Y1.2236
X2.9528Y1.1236
X2.9528Y1.0236
X2.9528Y0.9236
T0
M30
