%TF.GenerationSoftware,KiCad,Pcbnew,7.0.7*%
%TF.CreationDate,2023-09-17T22:58:44+02:00*%
%TF.ProjectId,SHC_WEMOS,5348435f-5745-44d4-9f53-2e6b69636164,rev?*%
%TF.SameCoordinates,Original*%
%TF.FileFunction,Other,Comment*%
%FSLAX46Y46*%
G04 Gerber Fmt 4.6, Leading zero omitted, Abs format (unit mm)*
G04 Created by KiCad (PCBNEW 7.0.7) date 2023-09-17 22:58:44*
%MOMM*%
%LPD*%
G01*
G04 APERTURE LIST*
%ADD10C,0.150000*%
G04 APERTURE END LIST*
D10*
X5824819Y29953810D02*
X4824819Y29953810D01*
X5824819Y30525238D02*
X5253390Y30096667D01*
X4824819Y30525238D02*
X5396247Y29953810D01*
X5301009Y30953810D02*
X5301009Y31287143D01*
X5824819Y31430000D02*
X5824819Y30953810D01*
X5824819Y30953810D02*
X4824819Y30953810D01*
X4824819Y30953810D02*
X4824819Y31430000D01*
X5301009Y31858572D02*
X5301009Y32191905D01*
X5824819Y32334762D02*
X5824819Y31858572D01*
X5824819Y31858572D02*
X4824819Y31858572D01*
X4824819Y31858572D02*
X4824819Y32334762D01*
X5824819Y32763334D02*
X4824819Y32763334D01*
X4824819Y32763334D02*
X4824819Y33144286D01*
X4824819Y33144286D02*
X4872438Y33239524D01*
X4872438Y33239524D02*
X4920057Y33287143D01*
X4920057Y33287143D02*
X5015295Y33334762D01*
X5015295Y33334762D02*
X5158152Y33334762D01*
X5158152Y33334762D02*
X5253390Y33287143D01*
X5253390Y33287143D02*
X5301009Y33239524D01*
X5301009Y33239524D02*
X5348628Y33144286D01*
X5348628Y33144286D02*
X5348628Y32763334D01*
X4824819Y34715715D02*
X4824819Y34906191D01*
X4824819Y34906191D02*
X4872438Y35001429D01*
X4872438Y35001429D02*
X4967676Y35096667D01*
X4967676Y35096667D02*
X5158152Y35144286D01*
X5158152Y35144286D02*
X5491485Y35144286D01*
X5491485Y35144286D02*
X5681961Y35096667D01*
X5681961Y35096667D02*
X5777200Y35001429D01*
X5777200Y35001429D02*
X5824819Y34906191D01*
X5824819Y34906191D02*
X5824819Y34715715D01*
X5824819Y34715715D02*
X5777200Y34620477D01*
X5777200Y34620477D02*
X5681961Y34525239D01*
X5681961Y34525239D02*
X5491485Y34477620D01*
X5491485Y34477620D02*
X5158152Y34477620D01*
X5158152Y34477620D02*
X4967676Y34525239D01*
X4967676Y34525239D02*
X4872438Y34620477D01*
X4872438Y34620477D02*
X4824819Y34715715D01*
X4824819Y35572858D02*
X5634342Y35572858D01*
X5634342Y35572858D02*
X5729580Y35620477D01*
X5729580Y35620477D02*
X5777200Y35668096D01*
X5777200Y35668096D02*
X5824819Y35763334D01*
X5824819Y35763334D02*
X5824819Y35953810D01*
X5824819Y35953810D02*
X5777200Y36049048D01*
X5777200Y36049048D02*
X5729580Y36096667D01*
X5729580Y36096667D02*
X5634342Y36144286D01*
X5634342Y36144286D02*
X4824819Y36144286D01*
X4824819Y36477620D02*
X4824819Y37049048D01*
X5824819Y36763334D02*
X4824819Y36763334D01*
X8364819Y29787143D02*
X7364819Y29787143D01*
X7364819Y29787143D02*
X8364819Y30358571D01*
X8364819Y30358571D02*
X7364819Y30358571D01*
X8364819Y30977619D02*
X8317200Y30882381D01*
X8317200Y30882381D02*
X8269580Y30834762D01*
X8269580Y30834762D02*
X8174342Y30787143D01*
X8174342Y30787143D02*
X7888628Y30787143D01*
X7888628Y30787143D02*
X7793390Y30834762D01*
X7793390Y30834762D02*
X7745771Y30882381D01*
X7745771Y30882381D02*
X7698152Y30977619D01*
X7698152Y30977619D02*
X7698152Y31120476D01*
X7698152Y31120476D02*
X7745771Y31215714D01*
X7745771Y31215714D02*
X7793390Y31263333D01*
X7793390Y31263333D02*
X7888628Y31310952D01*
X7888628Y31310952D02*
X8174342Y31310952D01*
X8174342Y31310952D02*
X8269580Y31263333D01*
X8269580Y31263333D02*
X8317200Y31215714D01*
X8317200Y31215714D02*
X8364819Y31120476D01*
X8364819Y31120476D02*
X8364819Y30977619D01*
X8317200Y32930000D02*
X8364819Y32834762D01*
X8364819Y32834762D02*
X8364819Y32644286D01*
X8364819Y32644286D02*
X8317200Y32549048D01*
X8317200Y32549048D02*
X8269580Y32501429D01*
X8269580Y32501429D02*
X8174342Y32453810D01*
X8174342Y32453810D02*
X7888628Y32453810D01*
X7888628Y32453810D02*
X7793390Y32501429D01*
X7793390Y32501429D02*
X7745771Y32549048D01*
X7745771Y32549048D02*
X7698152Y32644286D01*
X7698152Y32644286D02*
X7698152Y32834762D01*
X7698152Y32834762D02*
X7745771Y32930000D01*
X8364819Y33501429D02*
X8317200Y33406191D01*
X8317200Y33406191D02*
X8269580Y33358572D01*
X8269580Y33358572D02*
X8174342Y33310953D01*
X8174342Y33310953D02*
X7888628Y33310953D01*
X7888628Y33310953D02*
X7793390Y33358572D01*
X7793390Y33358572D02*
X7745771Y33406191D01*
X7745771Y33406191D02*
X7698152Y33501429D01*
X7698152Y33501429D02*
X7698152Y33644286D01*
X7698152Y33644286D02*
X7745771Y33739524D01*
X7745771Y33739524D02*
X7793390Y33787143D01*
X7793390Y33787143D02*
X7888628Y33834762D01*
X7888628Y33834762D02*
X8174342Y33834762D01*
X8174342Y33834762D02*
X8269580Y33787143D01*
X8269580Y33787143D02*
X8317200Y33739524D01*
X8317200Y33739524D02*
X8364819Y33644286D01*
X8364819Y33644286D02*
X8364819Y33501429D01*
X7698152Y34263334D02*
X8698152Y34263334D01*
X7745771Y34263334D02*
X7698152Y34358572D01*
X7698152Y34358572D02*
X7698152Y34549048D01*
X7698152Y34549048D02*
X7745771Y34644286D01*
X7745771Y34644286D02*
X7793390Y34691905D01*
X7793390Y34691905D02*
X7888628Y34739524D01*
X7888628Y34739524D02*
X8174342Y34739524D01*
X8174342Y34739524D02*
X8269580Y34691905D01*
X8269580Y34691905D02*
X8317200Y34644286D01*
X8317200Y34644286D02*
X8364819Y34549048D01*
X8364819Y34549048D02*
X8364819Y34358572D01*
X8364819Y34358572D02*
X8317200Y34263334D01*
X7698152Y35168096D02*
X8698152Y35168096D01*
X7745771Y35168096D02*
X7698152Y35263334D01*
X7698152Y35263334D02*
X7698152Y35453810D01*
X7698152Y35453810D02*
X7745771Y35549048D01*
X7745771Y35549048D02*
X7793390Y35596667D01*
X7793390Y35596667D02*
X7888628Y35644286D01*
X7888628Y35644286D02*
X8174342Y35644286D01*
X8174342Y35644286D02*
X8269580Y35596667D01*
X8269580Y35596667D02*
X8317200Y35549048D01*
X8317200Y35549048D02*
X8364819Y35453810D01*
X8364819Y35453810D02*
X8364819Y35263334D01*
X8364819Y35263334D02*
X8317200Y35168096D01*
X8317200Y36453810D02*
X8364819Y36358572D01*
X8364819Y36358572D02*
X8364819Y36168096D01*
X8364819Y36168096D02*
X8317200Y36072858D01*
X8317200Y36072858D02*
X8221961Y36025239D01*
X8221961Y36025239D02*
X7841009Y36025239D01*
X7841009Y36025239D02*
X7745771Y36072858D01*
X7745771Y36072858D02*
X7698152Y36168096D01*
X7698152Y36168096D02*
X7698152Y36358572D01*
X7698152Y36358572D02*
X7745771Y36453810D01*
X7745771Y36453810D02*
X7841009Y36501429D01*
X7841009Y36501429D02*
X7936247Y36501429D01*
X7936247Y36501429D02*
X8031485Y36025239D01*
X8364819Y36930001D02*
X7698152Y36930001D01*
X7888628Y36930001D02*
X7793390Y36977620D01*
X7793390Y36977620D02*
X7745771Y37025239D01*
X7745771Y37025239D02*
X7698152Y37120477D01*
X7698152Y37120477D02*
X7698152Y37215715D01*
M02*
